{"glyphs":{"0":{"ha":744,"x_min":72,"x_max":679,"o":"m 418 693 q 612 619 544 693 q 679 399 679 544 q 590 101 679 210 q 335 -7 500 -7 q 140 67 208 -7 q 72 283 72 140 q 163 583 72 472 q 418 693 254 693 m 408 631 q 201 540 275 631 q 128 293 128 450 q 342 53 128 53 q 549 141 475 53 q 622 386 622 229 q 408 631 622 631 z "},"1":{"ha":467,"x_min":49,"x_max":328,"o":"m 276 286 l 244 0 l 178 0 l 214 276 l 254 611 l 57 554 l 49 560 l 54 613 l 319 690 l 328 682 l 276 286 z "},"2":{"ha":621,"x_min":32,"x_max":542,"o":"m 349 690 q 465 653 421 690 q 510 556 510 615 q 463 430 510 497 q 303 243 417 363 l 131 60 l 133 56 l 425 56 l 538 60 l 542 53 l 525 -3 l 399 0 l 89 0 l 36 -1 l 32 1 l 38 46 l 258 275 q 401 437 360 381 q 443 540 443 493 q 415 605 443 579 q 335 631 386 631 q 129 529 226 631 l 119 529 l 115 582 q 349 690 228 690 z "},"3":{"ha":558,"x_min":4,"x_max":476,"o":"m 293 692 q 426 649 376 692 q 476 536 476 606 q 431 410 476 471 q 306 314 385 350 l 306 308 q 463 131 463 271 q 419 -6 463 54 q 301 -101 376 -67 q 133 -136 226 -136 q 4 -124 72 -136 l 6 -65 l 13 -58 q 140 -81 76 -81 q 326 -24 254 -81 q 397 126 397 33 q 349 231 397 193 q 208 274 300 269 l 135 274 l 129 281 l 138 328 l 199 329 q 291 355 242 329 q 374 426 340 381 q 407 524 407 471 q 374 603 407 574 q 283 633 340 633 q 96 547 199 633 l 88 547 l 85 603 q 293 692 192 692 z "},"4":{"ha":650,"x_min":18,"x_max":586,"o":"m 574 121 l 461 124 l 435 124 l 406 -124 l 401 -131 l 350 -136 l 344 -129 l 378 124 l 97 124 l 24 121 l 18 129 l 24 176 l 439 686 l 503 686 l 440 178 l 579 178 l 586 171 l 574 121 m 436 594 l 429 594 l 89 178 l 385 178 l 436 594 z "},"5":{"ha":569,"x_min":13,"x_max":540,"o":"m 528 631 l 521 625 l 443 629 l 203 629 l 169 376 l 257 356 q 478 149 478 308 q 433 3 478 68 q 308 -100 388 -62 q 129 -137 228 -137 q 13 -125 72 -137 l 13 -67 l 21 -60 q 143 -81 82 -81 q 284 -52 222 -81 q 380 27 346 -24 q 414 142 414 78 q 232 301 414 260 l 117 326 l 111 335 l 153 675 l 169 689 l 242 686 l 429 686 l 538 690 l 540 685 l 528 631 z "},"6":{"ha":642,"x_min":67,"x_max":601,"o":"m 601 783 q 156 410 243 665 l 161 403 q 360 474 258 474 q 511 418 454 474 q 568 269 568 363 q 543 144 568 208 q 458 35 518 81 q 296 -10 397 -10 q 126 57 185 -10 q 67 243 67 124 q 113 456 67 346 q 266 664 158 565 q 550 824 374 763 l 557 824 l 601 792 l 601 783 m 349 421 q 136 332 238 421 q 129 249 129 297 q 300 43 129 43 q 458 110 411 43 q 506 263 506 176 q 465 380 506 339 q 349 421 424 421 z "},"7":{"ha":568,"x_min":67,"x_max":572,"o":"m 517 686 l 572 689 l 567 638 l 197 -3 l 125 -144 l 68 -126 l 67 -115 l 497 629 l 172 629 l 79 624 l 74 632 l 88 689 l 192 686 l 517 686 z "},"8":{"ha":646,"x_min":61,"x_max":572,"o":"m 378 819 q 519 774 467 819 q 572 644 572 728 q 396 428 572 501 l 394 422 q 480 376 447 399 q 534 317 513 353 q 556 226 556 281 q 522 106 556 160 q 428 23 489 53 q 289 -7 368 -7 q 122 45 183 -7 q 61 186 61 97 q 117 328 61 274 q 265 418 174 382 l 267 424 q 172 494 204 454 q 140 601 140 533 q 207 759 140 699 q 378 819 274 819 m 376 768 q 247 724 297 768 q 197 607 197 679 q 232 513 197 546 q 336 449 267 479 q 466 521 417 476 q 515 640 515 565 q 479 735 515 701 q 376 768 443 768 m 322 396 q 221 351 263 374 q 149 289 179 328 q 119 193 119 250 q 165 83 119 124 q 290 43 211 43 q 440 94 382 43 q 497 221 497 144 q 475 299 497 268 q 419 350 453 331 q 322 396 385 369 z "},"9":{"ha":642,"x_min":47,"x_max":582,"o":"m 47 -96 q 493 278 406 22 l 488 285 q 289 214 390 214 q 138 269 194 214 q 81 418 81 325 q 106 543 81 479 q 191 652 131 607 q 353 697 251 697 q 523 631 464 697 q 582 444 582 564 q 536 232 582 342 q 383 24 490 122 q 99 -136 275 -75 l 92 -136 l 47 -104 l 47 -96 m 300 267 q 513 356 411 267 q 519 439 519 390 q 349 644 519 644 q 190 578 238 644 q 143 425 143 511 q 184 308 143 349 q 300 267 225 267 z "}," ":{"ha":206,"x_min":0,"x_max":0,"o":""},"!":{"ha":354,"x_min":106,"x_max":297,"o":"m 201 288 l 158 285 l 150 294 l 231 901 l 239 910 l 290 913 l 297 904 l 201 288 m 151 86 q 183 74 171 86 q 194 42 194 61 q 182 8 194 21 q 149 -4 169 -4 q 106 40 106 -4 q 118 74 106 61 q 151 86 131 86 z "},"\"":{"ha":349,"x_min":111,"x_max":356,"o":"m 156 651 l 115 646 l 111 654 l 150 879 l 203 885 l 208 876 l 156 651 m 304 651 l 264 646 l 258 654 l 299 879 l 351 885 l 356 876 l 304 651 z "},"#":{"ha":690,"x_min":28,"x_max":663,"o":"m 447 343 l 606 343 l 611 336 l 607 296 l 436 296 l 376 44 l 333 44 l 328 51 l 386 296 l 228 296 l 168 44 l 125 44 l 121 51 l 179 296 l 33 296 l 28 301 l 32 343 l 190 343 l 231 514 l 85 514 l 79 519 l 83 560 l 242 560 l 299 799 l 342 799 l 346 789 l 292 560 l 450 560 l 507 799 l 549 799 l 554 789 l 500 560 l 656 560 l 663 554 l 657 514 l 489 514 l 447 343 m 281 514 l 239 343 l 397 343 l 439 514 l 281 514 z "},"$":{"ha":581,"x_min":47,"x_max":501,"o":"m 365 690 q 501 658 440 685 l 485 603 l 472 600 q 358 642 418 638 l 321 367 q 432 295 393 332 q 471 194 471 258 q 416 66 471 122 q 271 -3 361 10 l 247 -176 l 211 -176 l 203 -168 l 225 -6 q 47 43 119 -3 l 58 103 l 68 106 q 144 60 100 76 q 232 43 189 44 l 269 325 q 155 398 194 361 q 115 499 115 435 q 172 626 115 571 q 318 689 228 681 l 343 882 l 381 882 l 390 872 l 365 690 m 172 506 q 199 440 172 465 q 278 388 226 414 l 311 639 q 210 592 249 631 q 172 506 172 553 m 414 188 q 388 252 414 226 q 313 304 363 278 l 278 47 q 376 100 338 60 q 414 188 414 140 z "},"%":{"ha":1131,"x_min":101,"x_max":1060,"o":"m 960 903 l 168 -125 l 142 -110 l 136 -94 l 928 935 l 956 918 l 960 903 m 338 890 q 460 841 418 890 q 503 701 503 792 q 442 486 503 564 q 268 408 381 408 q 144 458 188 408 q 101 599 101 507 q 164 813 101 735 q 338 890 226 890 m 326 842 q 197 781 243 842 q 151 610 151 719 q 278 457 151 457 q 408 518 363 457 q 454 689 454 579 q 422 802 454 763 q 326 842 389 842 m 893 476 q 1017 428 974 476 q 1060 288 1060 379 q 999 72 1060 150 q 825 -6 938 -6 q 701 44 744 -6 q 658 185 658 93 q 720 399 658 321 q 893 476 782 476 m 882 428 q 753 367 799 428 q 708 196 708 306 q 740 83 708 122 q 833 43 772 43 q 964 104 918 43 q 1010 275 1010 165 q 882 428 1010 428 z "},"&":{"ha":1049,"x_min":78,"x_max":1140,"o":"m 1140 465 q 1080 380 1114 407 q 992 349 1046 353 q 831 374 950 349 q 780 171 831 258 q 639 35 729 83 q 429 -14 549 -14 q 243 32 322 -14 q 121 162 164 78 q 78 357 78 246 q 112 533 78 456 q 204 652 146 610 q 332 694 263 694 q 439 661 399 694 q 479 575 479 628 q 467 514 479 547 q 706 735 601 613 q 867 988 810 857 l 874 988 q 901 938 893 965 q 724 676 842 806 q 455 442 607 546 q 144 283 303 339 q 240 106 165 171 q 433 40 315 40 q 615 83 536 40 q 737 205 694 126 q 776 385 779 283 q 682 399 714 399 q 560 301 600 399 l 550 300 l 531 336 q 592 420 557 393 q 681 451 626 447 q 828 428 707 451 q 989 401 942 401 q 1111 499 1075 401 l 1121 501 l 1140 465 m 332 643 q 232 608 276 643 q 163 510 188 574 q 138 364 138 447 l 139 336 q 367 447 254 379 q 429 560 429 494 q 403 622 429 600 q 332 643 376 643 z "},"'":{"ha":200,"x_min":111,"x_max":208,"o":"m 156 651 l 115 646 l 111 654 l 150 879 l 203 885 l 208 876 l 156 651 z "},"(":{"ha":394,"x_min":103,"x_max":443,"o":"m 442 888 q 160 206 160 694 q 195 -10 160 76 q 313 -164 231 -97 l 311 -172 l 282 -197 l 275 -197 q 142 -30 182 -122 q 103 204 103 63 q 413 921 103 715 l 419 921 l 443 894 l 442 888 z "},")":{"ha":394,"x_min":-37,"x_max":303,"o":"m -36 -165 q 246 517 246 28 q 210 733 246 646 q 93 886 175 819 l 94 894 l 124 919 l 131 919 q 263 752 224 844 q 303 518 303 660 q -7 -199 303 7 l -14 -199 l -37 -172 l -36 -165 z "},"*":{"ha":514,"x_min":117,"x_max":529,"o":"m 335 838 l 303 835 l 296 842 l 299 997 q 353 1006 326 1006 l 357 999 l 335 838 m 267 786 l 257 782 l 117 833 q 125 888 117 865 l 132 890 l 272 818 l 267 786 m 506 867 q 529 817 525 838 l 526 813 l 372 783 l 358 814 l 364 822 l 506 867 m 450 624 q 413 585 438 603 l 406 586 l 333 731 l 357 751 l 365 750 l 450 624 m 299 725 l 211 601 q 163 628 196 607 l 161 633 l 272 750 l 300 736 l 299 725 z "},"+":{"ha":664,"x_min":51,"x_max":625,"o":"m 368 397 l 619 397 l 625 392 l 615 346 l 361 346 l 331 92 l 285 88 l 279 93 l 310 346 l 57 346 l 51 353 l 63 397 l 315 397 l 347 651 l 393 657 l 399 650 l 368 397 z "},",":{"ha":319,"x_min":46,"x_max":181,"o":"m 126 88 q 181 8 181 57 q 71 -147 181 -67 l 46 -124 l 47 -117 q 122 -3 122 -58 q 81 54 122 31 l 81 63 q 126 88 104 81 z "},"-":{"ha":431,"x_min":42,"x_max":397,"o":"m 392 350 l 49 304 l 42 311 l 47 357 l 390 403 l 397 396 l 392 350 z "},".":{"ha":319,"x_min":81,"x_max":169,"o":"m 126 86 q 158 74 146 86 q 169 42 169 61 q 158 8 169 21 q 125 -4 146 -4 q 81 40 81 -4 q 93 73 81 60 q 126 86 106 86 z "},"/":{"ha":401,"x_min":11,"x_max":425,"o":"m 65 -154 l 17 -154 l 11 -147 l 371 939 l 418 939 l 425 931 l 65 -154 z "},":":{"ha":318,"x_min":81,"x_max":215,"o":"m 126 86 q 158 74 146 86 q 169 42 169 61 q 158 8 169 21 q 125 -4 146 -4 q 81 40 81 -4 q 93 73 81 60 q 126 86 106 86 m 172 465 q 203 453 192 465 q 215 421 215 440 q 203 388 215 400 q 171 375 192 375 q 126 419 126 375 q 139 452 126 439 q 172 465 151 465 z "},";":{"ha":319,"x_min":44,"x_max":214,"o":"m 125 88 q 179 8 179 57 q 69 -147 179 -67 l 44 -124 l 46 -117 q 121 -3 121 -58 q 79 54 121 31 l 79 63 q 125 88 103 81 m 171 465 q 202 453 190 465 q 214 421 214 440 q 202 388 214 400 q 169 375 190 375 q 125 419 125 375 q 138 452 125 439 q 171 465 150 465 z "},"<":{"ha":693,"x_min":49,"x_max":638,"o":"m 632 589 l 113 376 l 111 369 l 585 171 l 567 129 l 558 124 l 49 342 l 56 400 l 63 408 l 626 638 l 638 597 l 632 589 z "},"=":{"ha":665,"x_min":47,"x_max":643,"o":"m 639 453 l 81 453 l 74 460 l 79 504 l 636 504 l 643 499 l 639 453 m 613 239 l 54 239 l 47 246 l 53 290 l 610 290 l 617 285 l 613 239 z "},">":{"ha":697,"x_min":75,"x_max":660,"o":"m 660 400 l 653 342 l 90 124 l 82 129 l 75 171 l 597 369 l 597 376 l 129 589 l 126 597 l 149 638 l 656 408 l 660 400 z "},"?":{"ha":454,"x_min":122,"x_max":492,"o":"m 188 913 q 412 851 332 903 q 492 715 492 800 q 356 515 492 599 l 221 432 l 218 426 l 208 285 l 158 279 l 153 288 l 163 444 l 171 457 l 318 546 q 428 701 428 611 q 360 812 428 771 q 161 861 293 853 l 157 869 l 175 908 l 188 913 m 168 86 q 199 74 188 86 q 211 42 211 61 q 199 8 211 21 q 165 -4 186 -4 q 122 40 122 -4 q 135 74 122 61 q 168 86 147 86 z "},"@":{"ha":1131,"x_min":56,"x_max":1081,"o":"m 1081 404 q 966 110 1081 215 q 638 -6 851 6 l 683 332 l 674 332 q 419 -8 553 115 l 401 -8 q 335 70 357 22 q 314 199 314 118 q 351 406 314 308 q 462 566 389 503 q 636 640 535 629 l 642 640 l 731 621 l 772 642 l 782 636 l 715 150 l 708 47 q 946 156 863 64 q 1029 403 1029 247 q 980 604 1029 517 q 838 740 931 692 q 621 788 746 788 q 353 722 469 788 q 172 540 236 657 q 107 272 107 422 q 173 9 107 119 q 360 -160 239 -101 q 642 -219 481 -219 l 643 -228 l 618 -265 q 323 -197 450 -262 q 126 -14 196 -132 q 56 263 56 104 q 126 561 56 431 q 326 764 197 692 q 624 836 456 836 q 865 782 761 836 q 1024 630 968 728 q 1081 404 1081 532 m 422 67 q 482 118 436 67 q 588 263 528 169 q 704 476 647 356 l 707 500 l 713 567 l 628 586 q 492 533 550 585 q 403 398 433 482 q 372 215 372 314 q 388 103 372 139 q 422 67 404 67 z "},"A":{"ha":744,"x_min":-15,"x_max":674,"o":"m 604 0 l 596 74 l 556 271 l 358 272 l 179 271 l 85 76 l 54 0 l -15 0 l 417 888 l 493 888 l 674 0 l 604 0 m 446 808 l 440 808 l 208 331 l 372 328 l 543 331 l 446 808 z "},"B":{"ha":683,"x_min":99,"x_max":621,"o":"m 460 464 q 621 276 621 428 q 530 69 621 142 q 267 -4 439 -4 q 100 0 171 -4 l 99 0 l 138 269 l 211 888 l 407 889 q 561 842 507 889 q 615 708 615 796 q 575 557 615 619 q 460 464 535 494 m 547 697 q 509 796 547 761 q 397 831 471 831 l 272 831 l 226 488 l 383 485 q 505 556 463 501 q 547 697 547 611 m 276 53 q 481 110 408 53 q 553 272 553 168 q 511 381 553 340 q 390 428 469 421 l 219 428 l 199 274 l 174 57 q 276 53 226 53 z "},"C":{"ha":693,"x_min":71,"x_max":718,"o":"m 493 894 q 718 819 625 894 l 694 758 l 683 757 q 485 835 603 835 q 231 710 321 835 q 140 361 140 585 q 201 131 140 211 q 378 51 263 51 q 619 140 504 51 l 631 136 l 617 72 q 369 -8 492 -8 q 148 85 225 -8 q 71 351 71 179 q 121 642 71 519 q 266 829 171 764 q 493 894 361 894 z "},"D":{"ha":854,"x_min":99,"x_max":818,"o":"m 492 893 q 733 803 649 893 q 818 547 818 713 q 765 253 818 378 q 610 60 713 128 q 365 -7 508 -7 q 100 0 263 -7 l 99 0 l 138 269 l 211 888 l 492 893 m 378 50 q 651 178 553 50 q 749 535 749 306 q 681 758 749 682 q 485 835 614 835 q 271 829 374 835 l 199 274 l 174 58 q 378 50 299 50 z "},"E":{"ha":621,"x_min":99,"x_max":654,"o":"m 226 486 l 390 485 l 531 488 l 536 479 l 522 428 l 376 429 l 218 428 l 199 274 l 174 58 l 344 57 l 549 61 l 553 53 l 539 0 l 99 0 l 138 269 l 211 888 l 650 888 l 654 879 l 640 826 l 446 829 l 269 828 l 226 486 z "},"F":{"ha":563,"x_min":99,"x_max":636,"o":"m 224 471 l 378 469 l 514 471 l 518 464 l 504 411 l 363 414 l 217 413 l 199 274 l 167 0 l 99 0 l 138 269 l 211 888 l 631 888 l 636 879 l 621 825 l 433 829 l 269 828 l 224 471 z "},"G":{"ha":799,"x_min":69,"x_max":765,"o":"m 528 894 q 765 824 653 894 l 742 761 l 732 761 q 517 835 624 835 q 236 709 335 835 q 138 351 138 583 q 389 51 138 51 q 601 89 478 51 l 621 221 l 633 338 l 697 343 l 683 228 l 661 42 q 515 4 575 15 q 386 -7 456 -7 q 151 85 232 -7 q 69 346 69 176 q 124 642 69 518 q 281 830 178 765 q 528 894 383 894 z "},"H":{"ha":899,"x_min":99,"x_max":833,"o":"m 754 274 l 722 0 l 656 0 l 692 269 l 710 419 l 453 422 l 218 419 l 199 274 l 167 0 l 99 0 l 136 269 l 210 888 l 278 888 l 225 481 l 468 478 l 717 481 l 765 888 l 833 888 l 754 274 z "},"I":{"ha":343,"x_min":99,"x_max":278,"o":"m 167 0 l 99 0 l 136 269 l 210 888 l 278 888 l 199 274 l 167 0 z "},"J":{"ha":388,"x_min":-40,"x_max":315,"o":"m 238 294 l 222 161 q 156 -8 210 60 q -17 -139 101 -75 l -40 -101 l -40 -90 q 105 22 58 -36 q 161 163 151 81 l 176 286 l 240 831 l 72 829 l 64 838 l 75 888 l 315 888 l 238 294 z "},"K":{"ha":697,"x_min":99,"x_max":743,"o":"m 165 0 l 99 0 l 136 269 l 211 888 l 278 888 l 199 274 l 165 0 m 326 471 q 654 15 472 239 l 653 6 q 592 -11 631 -3 l 583 -7 q 250 469 394 236 l 251 475 l 597 817 l 661 888 l 743 888 l 326 471 z "},"L":{"ha":538,"x_min":97,"x_max":501,"o":"m 489 0 l 97 0 l 135 269 l 208 888 l 275 888 l 196 274 l 171 58 l 497 58 l 501 51 l 489 0 z "},"M":{"ha":1039,"x_min":54,"x_max":933,"o":"m 844 0 l 856 271 l 867 769 l 860 769 l 519 108 l 458 108 l 293 769 l 285 769 l 174 275 l 114 0 l 54 0 l 256 888 l 332 888 l 363 751 l 499 197 l 506 197 l 796 763 l 857 888 l 933 888 l 906 0 l 844 0 z "},"N":{"ha":899,"x_min":99,"x_max":833,"o":"m 719 0 l 651 0 l 267 774 l 258 774 l 196 285 l 163 0 l 99 0 l 136 264 l 213 888 l 281 888 l 665 114 l 672 114 l 769 883 l 833 889 l 750 253 l 719 0 z "},"O":{"ha":840,"x_min":71,"x_max":804,"o":"m 497 896 q 724 803 644 896 q 804 543 804 711 q 754 249 804 374 q 608 58 704 125 q 376 -8 511 -8 q 151 86 231 -8 q 71 353 71 181 q 121 643 71 521 q 267 831 171 765 q 497 896 363 896 m 490 838 q 230 712 319 838 q 140 358 140 586 q 202 129 140 208 q 382 50 264 50 q 644 177 553 50 q 735 533 735 304 q 673 760 735 683 q 490 838 611 838 z "},"P":{"ha":668,"x_min":99,"x_max":651,"o":"m 426 889 q 592 833 533 889 q 651 671 651 776 q 562 423 651 515 q 314 331 472 331 l 206 331 l 199 274 l 167 0 l 99 0 l 138 269 l 211 888 l 426 889 m 367 388 q 525 473 467 399 q 583 660 583 547 q 418 832 583 824 l 271 829 l 214 389 l 367 388 z "},"Q":{"ha":833,"x_min":71,"x_max":928,"o":"m 475 1 q 928 -204 668 -164 l 928 -215 q 897 -257 911 -243 l 890 -260 q 628 -171 753 -236 q 406 -7 503 -106 l 376 -8 q 151 86 231 -8 q 71 353 71 181 q 121 643 71 521 q 267 831 171 765 q 497 896 363 896 q 724 803 644 896 q 804 543 804 711 q 719 178 804 319 q 475 1 633 36 m 140 358 q 202 129 140 208 q 382 50 264 50 q 644 177 553 50 q 735 533 735 304 q 673 760 735 682 q 490 838 611 838 q 230 712 319 838 q 140 358 140 586 z "},"R":{"ha":711,"x_min":99,"x_max":653,"o":"m 653 678 q 594 485 653 567 q 432 364 536 403 q 617 15 517 179 l 614 7 q 556 -11 593 -4 l 546 -6 q 372 349 442 182 l 208 349 l 199 274 l 167 0 l 99 0 l 136 269 l 211 888 l 428 889 q 594 834 536 889 q 653 678 653 779 m 388 406 q 533 500 482 433 q 583 668 583 567 q 418 832 583 824 l 271 829 l 215 408 l 388 406 z "},"S":{"ha":607,"x_min":32,"x_max":582,"o":"m 404 893 q 582 851 499 893 l 563 789 l 549 785 q 394 836 481 836 q 289 811 335 836 q 217 746 243 786 q 192 663 192 706 q 213 591 192 622 q 263 537 233 560 q 347 481 293 514 q 446 415 410 443 q 508 342 482 386 q 535 240 535 299 q 497 115 535 172 q 392 26 458 58 q 244 -7 325 -7 q 132 9 189 -7 q 32 56 75 25 l 47 124 l 60 128 q 149 69 97 89 q 251 50 200 50 q 362 75 313 50 q 439 141 411 100 q 467 229 467 182 q 446 306 467 272 q 394 363 425 339 q 308 419 363 386 q 213 484 249 456 q 151 555 176 513 q 126 656 126 597 q 163 776 126 721 q 263 862 199 831 q 404 893 326 893 z "},"T":{"ha":638,"x_min":99,"x_max":675,"o":"m 661 828 l 522 831 l 418 831 l 344 274 l 314 0 l 247 0 l 283 269 l 350 831 l 249 831 l 104 828 l 99 835 l 114 888 l 669 888 l 675 879 l 661 828 z "},"U":{"ha":819,"x_min":104,"x_max":783,"o":"m 713 326 q 608 80 696 167 q 374 -7 521 -7 q 175 59 246 -7 q 104 247 104 125 q 110 322 104 288 l 128 447 l 182 888 l 247 888 l 174 328 q 169 263 169 294 q 222 106 169 160 q 376 53 275 53 q 563 122 493 53 q 650 322 633 190 l 717 888 l 783 888 l 725 435 l 713 326 z "},"V":{"ha":724,"x_min":94,"x_max":783,"o":"m 278 0 l 94 888 l 164 888 l 174 813 l 324 78 l 329 78 l 686 811 l 715 888 l 783 888 l 354 0 l 278 0 z "},"W":{"ha":1169,"x_min":101,"x_max":1226,"o":"m 732 0 l 619 565 l 613 565 l 344 0 l 274 0 l 101 888 l 169 888 l 176 815 l 319 82 l 328 82 l 600 660 l 553 888 l 622 888 l 632 811 l 775 82 l 783 82 l 1132 813 l 1160 888 l 1226 888 l 801 0 l 732 0 z "},"X":{"ha":763,"x_min":1,"x_max":763,"o":"m 669 0 l 592 0 l 567 61 l 385 408 l 115 57 l 76 0 l 1 0 l 351 458 l 132 888 l 211 888 l 235 828 l 401 506 l 646 825 l 686 888 l 763 888 l 438 457 l 669 0 z "},"Y":{"ha":675,"x_min":99,"x_max":717,"o":"m 349 265 l 318 0 l 251 0 l 288 265 l 296 331 l 99 888 l 172 888 l 182 844 l 333 411 l 342 411 l 619 843 l 642 888 l 717 888 l 358 332 l 349 265 z "},"Z":{"ha":685,"x_min":6,"x_max":699,"o":"m 94 57 l 486 57 l 593 63 l 599 56 l 585 -1 l 461 0 l 67 0 l 6 -3 l 13 49 l 610 829 l 238 829 l 136 824 l 131 832 l 146 889 l 260 888 l 642 888 l 699 889 l 693 836 l 94 57 z "},"[":{"ha":396,"x_min":82,"x_max":443,"o":"m 439 856 l 264 842 l 146 -126 l 317 -140 l 313 -176 l 304 -182 l 82 -168 l 150 358 l 213 883 l 438 897 l 443 892 l 439 856 z "},"\\":{"ha":451,"x_min":79,"x_max":417,"o":"m 417 -147 l 410 -154 l 363 -154 l 79 931 l 85 939 l 132 939 l 417 -147 z "},"]":{"ha":396,"x_min":-37,"x_max":324,"o":"m -33 -140 l 142 -126 l 260 842 l 89 856 l 93 892 l 101 897 l 324 883 l 256 357 l 193 -168 l -32 -182 l -37 -176 l -33 -140 z "},"^":{"ha":576,"x_min":14,"x_max":528,"o":"m 522 168 l 479 157 l 338 622 l 331 622 l 61 161 l 51 157 l 14 174 l 304 674 l 314 679 l 372 679 l 528 176 l 522 168 z "},"_":{"ha":629,"x_min":-79,"x_max":594,"o":"m 585 -169 l -74 -169 l -79 -164 l -69 -121 l 590 -121 l 594 -126 l 585 -169 z "},"`":{"ha":542,"x_min":208,"x_max":458,"o":"m 244 947 q 458 751 346 846 l 436 721 l 426 719 q 210 903 290 831 l 208 911 l 235 946 l 244 947 z "},"a":{"ha":669,"x_min":1,"x_max":579,"o":"m 513 0 l 507 61 l 475 201 l 311 203 l 164 201 l 93 64 l 67 0 l 1 0 l 351 686 l 425 686 l 579 0 l 513 0 m 381 617 l 375 617 l 190 256 l 463 256 l 381 617 z "},"b":{"ha":619,"x_min":96,"x_max":538,"o":"m 404 358 q 538 211 538 332 q 461 52 538 107 q 242 -3 385 -3 q 96 0 142 -3 l 125 208 l 183 686 l 353 688 q 485 650 438 688 q 532 543 532 613 q 404 358 532 410 m 464 533 q 338 636 464 636 l 239 636 l 207 381 l 336 378 q 464 533 464 403 m 251 47 q 415 90 357 47 q 472 210 472 132 q 339 328 472 313 l 200 326 l 185 214 l 165 51 q 251 47 207 47 z "},"c":{"ha":621,"x_min":72,"x_max":608,"o":"m 422 692 q 608 638 532 692 l 588 579 l 578 576 q 413 638 513 638 q 210 545 282 638 q 139 283 139 453 q 188 110 139 171 q 331 49 238 49 q 531 117 436 49 l 539 113 l 526 54 q 326 -7 429 -7 q 138 67 204 -7 q 72 276 72 142 q 164 583 72 474 q 422 692 256 692 z "},"d":{"ha":758,"x_min":97,"x_max":696,"o":"m 419 692 q 623 620 550 692 q 696 419 696 549 q 598 108 696 221 q 321 -6 500 -6 q 97 0 208 -6 l 125 208 l 183 686 l 419 692 m 333 47 q 551 142 474 47 q 629 408 629 238 q 574 578 629 519 q 413 636 518 636 q 240 631 326 636 l 185 214 l 167 54 q 333 47 240 47 z "},"e":{"ha":567,"x_min":96,"x_max":558,"o":"m 206 381 l 343 381 l 458 382 l 463 375 l 451 325 l 331 326 l 199 326 l 183 214 l 165 54 l 301 53 l 476 56 l 482 50 l 468 0 l 96 0 l 124 208 l 182 686 l 554 686 l 558 679 l 546 629 l 383 633 l 239 633 l 206 381 z "},"f":{"ha":507,"x_min":89,"x_max":535,"o":"m 197 367 l 322 365 l 435 368 l 439 361 l 426 311 l 310 313 l 189 311 l 176 214 l 151 0 l 89 0 l 117 208 l 175 686 l 531 686 l 535 679 l 521 629 l 364 633 l 232 633 l 197 367 z "},"g":{"ha":710,"x_min":71,"x_max":651,"o":"m 449 692 q 651 640 549 692 l 622 579 l 614 579 q 440 638 524 638 q 215 545 293 638 q 138 283 138 453 q 342 49 138 49 q 517 79 419 49 l 528 174 l 539 265 l 599 269 l 586 182 l 568 32 q 338 -6 431 -6 q 139 67 207 -6 q 71 279 71 139 q 170 582 71 472 q 449 692 269 692 z "},"h":{"ha":793,"x_min":96,"x_max":706,"o":"m 644 214 l 619 0 l 556 0 l 585 208 l 599 319 l 199 318 l 185 214 l 160 0 l 96 0 l 125 208 l 182 686 l 246 686 l 206 376 l 406 375 l 604 376 l 642 686 l 706 686 l 644 214 z "},"i":{"ha":338,"x_min":96,"x_max":246,"o":"m 160 0 l 96 0 l 125 208 l 182 686 l 246 686 l 185 214 l 160 0 z "},"j":{"ha":381,"x_min":3,"x_max":275,"o":"m 217 228 l 204 126 q 155 -7 194 46 q 26 -108 115 -60 l 3 -71 l 4 -62 q 105 23 72 -21 q 144 129 138 67 l 156 219 l 206 635 l 69 635 l 64 640 l 75 686 l 275 686 l 217 228 z "},"k":{"ha":632,"x_min":96,"x_max":635,"o":"m 296 365 q 569 15 421 181 l 565 4 q 506 -10 544 -4 l 496 -6 q 224 361 332 197 l 224 367 l 504 631 l 558 686 l 635 688 l 296 365 m 160 0 l 96 0 l 125 208 l 182 686 l 246 686 l 185 214 l 160 0 z "},"l":{"ha":497,"x_min":94,"x_max":436,"o":"m 424 0 l 94 0 l 124 208 l 182 686 l 244 686 l 183 214 l 164 56 l 432 56 l 436 49 l 424 0 z "},"m":{"ha":908,"x_min":58,"x_max":788,"o":"m 715 0 l 725 210 l 728 579 l 722 579 l 450 82 l 394 82 l 257 579 l 250 579 l 163 214 l 115 0 l 58 0 l 219 686 l 293 686 l 318 582 l 433 167 l 439 167 l 668 590 l 717 686 l 788 686 l 772 0 l 715 0 z "},"n":{"ha":794,"x_min":96,"x_max":706,"o":"m 617 0 l 550 0 l 232 581 l 228 581 l 181 222 l 154 0 l 96 0 l 124 203 l 183 686 l 249 686 l 568 106 l 575 106 l 646 685 l 706 689 l 640 199 l 617 0 z "},"o":{"ha":744,"x_min":71,"x_max":683,"o":"m 424 693 q 616 620 549 693 q 683 408 683 547 q 642 190 683 283 q 520 44 600 96 q 331 -7 440 -7 q 138 67 206 -7 q 71 283 71 142 q 164 583 71 474 q 424 693 257 693 m 415 638 q 209 547 281 638 q 138 289 138 457 q 335 49 138 49 q 544 140 471 49 q 617 400 617 232 q 415 638 617 638 z "},"p":{"ha":607,"x_min":97,"x_max":561,"o":"m 371 688 q 510 641 460 688 q 561 513 561 594 q 527 379 561 439 q 431 285 493 319 q 288 251 368 251 l 190 251 l 185 214 l 160 0 l 97 0 l 125 208 l 183 686 l 371 688 m 322 304 q 448 369 403 314 q 493 506 493 424 q 358 636 493 629 l 240 635 l 197 306 l 322 304 z "},"q":{"ha":740,"x_min":71,"x_max":764,"o":"m 764 -162 q 732 -201 747 -189 l 725 -203 q 354 -7 511 -160 l 331 -7 q 138 67 206 -7 q 71 283 71 142 q 164 583 71 474 q 424 693 257 693 q 616 620 549 693 q 683 408 683 547 q 614 138 683 244 q 418 3 544 31 q 763 -153 565 -124 l 764 -162 m 138 289 q 335 49 138 49 q 544 140 471 49 q 617 400 617 232 q 415 638 617 638 q 209 547 281 638 q 138 289 138 457 z "},"r":{"ha":644,"x_min":97,"x_max":561,"o":"m 561 519 q 515 374 561 435 q 383 282 468 313 q 538 15 451 144 l 536 6 q 479 -8 510 -4 l 467 -1 q 326 267 392 128 l 192 267 l 185 214 l 160 0 l 97 0 l 125 208 l 183 686 l 369 688 q 510 643 460 688 q 561 519 561 599 m 338 319 q 453 388 413 339 q 494 511 494 438 q 358 636 494 628 l 240 633 l 199 322 l 338 319 z "},"s":{"ha":553,"x_min":47,"x_max":493,"o":"m 343 692 q 493 660 419 692 l 475 597 l 461 594 q 336 639 403 639 q 253 619 289 639 q 197 569 217 600 q 178 506 178 539 q 209 435 178 463 q 304 378 240 408 q 386 332 354 353 q 440 278 418 311 q 463 197 463 244 q 433 98 463 144 q 350 23 404 51 q 226 -6 296 -6 q 132 7 181 -6 q 47 42 83 19 l 60 108 l 69 113 q 147 64 103 81 q 232 47 190 47 q 317 67 279 47 q 377 119 356 88 q 399 188 399 151 q 367 259 399 232 q 271 318 336 286 q 189 364 219 343 q 136 417 158 385 q 114 497 114 450 q 142 593 114 549 q 224 665 171 638 q 343 692 276 692 z "},"t":{"ha":578,"x_min":90,"x_max":574,"o":"m 561 626 l 444 632 l 361 632 l 307 214 l 282 0 l 219 0 l 247 208 l 299 632 l 215 632 l 96 626 l 90 635 l 103 686 l 571 686 l 574 679 l 561 626 z "},"u":{"ha":731,"x_min":99,"x_max":667,"o":"m 608 243 q 523 59 596 124 q 328 -6 450 -6 q 158 45 218 -6 q 99 192 99 96 q 103 243 99 217 l 118 344 l 160 686 l 224 686 l 164 251 q 161 208 161 221 q 205 90 161 131 q 332 50 249 50 q 550 251 525 50 l 603 686 l 667 686 l 621 336 l 608 243 z "},"v":{"ha":653,"x_min":89,"x_max":667,"o":"m 244 0 l 89 686 l 156 686 l 163 625 l 288 71 l 292 71 l 576 622 l 601 686 l 667 686 l 317 0 l 244 0 z "},"w":{"ha":1019,"x_min":94,"x_max":1032,"o":"m 624 0 l 525 422 l 519 422 l 308 0 l 242 0 l 94 686 l 160 686 l 164 626 l 285 75 l 289 75 l 508 511 l 471 686 l 536 686 l 542 622 l 663 75 l 671 75 l 946 625 l 971 686 l 1032 686 l 689 0 l 624 0 z "},"x":{"ha":683,"x_min":17,"x_max":651,"o":"m 582 0 l 506 0 l 483 50 l 335 308 l 122 47 l 89 0 l 17 0 l 304 356 l 114 686 l 193 686 l 213 639 l 349 399 l 542 636 l 576 686 l 651 686 l 381 353 l 582 0 z "},"y":{"ha":613,"x_min":92,"x_max":614,"o":"m 313 203 l 288 0 l 225 0 l 253 203 l 260 256 l 92 686 l 163 686 l 171 653 l 296 326 l 303 326 l 525 650 l 544 686 l 614 686 l 319 247 l 313 203 z "},"z":{"ha":617,"x_min":19,"x_max":593,"o":"m 104 53 l 419 53 l 514 58 l 519 53 l 506 -1 l 396 0 l 75 0 l 19 -1 l 26 46 l 510 633 l 204 633 l 119 628 l 115 635 l 129 688 l 225 686 l 544 686 l 593 688 l 586 638 l 104 53 z "},"{":{"ha":396,"x_min":64,"x_max":436,"o":"m 374 908 q 432 900 396 908 l 436 893 l 424 853 q 371 860 389 860 q 288 820 314 860 q 261 690 261 781 q 264 614 261 667 l 265 547 q 238 426 265 471 q 153 358 210 381 l 153 354 q 229 233 229 322 q 199 93 229 196 q 167 -58 167 -17 q 249 -147 167 -147 q 301 -140 267 -147 l 306 -181 l 299 -186 q 236 -194 269 -194 q 110 -69 110 -194 q 143 99 110 -25 q 171 228 171 199 q 64 336 171 319 l 68 376 q 175 428 142 388 q 208 553 208 468 q 207 619 208 596 l 206 692 q 248 856 206 804 q 374 908 290 908 z "},"|":{"ha":440,"x_min":110,"x_max":344,"o":"m 258 397 l 164 -364 l 115 -367 l 110 -358 l 203 394 l 289 1099 l 340 1103 l 344 1097 l 258 397 z "},"}":{"ha":396,"x_min":-31,"x_max":342,"o":"m 32 -196 q -26 -187 10 -196 l -31 -181 l -18 -140 q 35 -147 17 -147 q 118 -108 92 -147 q 144 22 144 -68 q 142 99 144 46 l 140 165 q 168 287 140 242 q 253 354 196 332 l 253 358 q 176 479 176 390 q 207 619 176 517 q 239 771 239 729 q 157 860 239 860 q 104 853 139 860 l 100 893 l 107 899 q 169 907 136 907 q 296 782 296 907 q 263 614 296 738 q 235 485 235 514 q 342 376 235 393 l 338 336 q 231 285 264 325 q 197 160 197 244 q 199 93 197 117 l 200 21 q 158 -144 200 -92 q 32 -196 115 -196 z "},"~":{"ha":667,"x_min":86,"x_max":588,"o":"m 207 374 q 139 328 189 374 l 113 306 l 103 306 l 86 331 l 86 339 l 186 426 l 197 432 q 326 400 225 428 q 465 367 443 367 q 493 377 478 367 q 539 415 508 388 l 560 433 l 571 433 l 588 408 l 586 400 l 486 311 l 474 308 q 338 342 454 310 q 207 374 231 374 z "}," ":{"ha":206,"x_min":0,"x_max":0,"o":""},"¡":{"ha":354,"x_min":57,"x_max":249,"o":"m 153 350 l 196 353 l 204 343 l 124 -264 l 115 -272 l 64 -275 l 57 -267 l 153 350 m 203 551 q 172 564 183 551 q 160 596 160 576 q 172 629 160 617 q 206 642 185 642 q 249 597 249 642 q 236 564 249 576 q 203 551 224 551 z "},"¢":{"ha":533,"x_min":68,"x_max":492,"o":"m 475 617 l 463 613 q 364 651 408 651 l 357 651 l 264 110 q 403 240 343 132 l 414 239 l 433 213 q 256 61 360 89 l 218 -162 l 181 -162 l 175 -154 l 210 54 q 133 82 163 63 q 85 147 103 101 q 68 274 68 193 q 131 551 68 439 q 317 692 193 664 l 353 904 l 390 904 l 399 896 l 365 699 l 394 700 l 483 672 l 492 661 l 475 617 m 308 644 q 171 525 219 621 q 122 281 122 429 q 146 149 122 192 q 218 104 169 107 l 308 644 z "},"£":{"ha":557,"x_min":4,"x_max":544,"o":"m 404 822 q 544 797 469 822 l 533 743 l 528 739 q 399 774 469 774 q 240 617 260 774 l 221 460 l 396 460 l 400 454 l 390 417 l 215 417 l 188 201 q 114 56 175 101 l 114 53 l 361 53 l 471 57 l 475 49 l 463 -1 l 346 0 l 8 0 l 4 7 l 14 44 q 131 196 114 60 l 157 417 l 63 417 l 58 424 l 67 460 l 163 460 l 181 610 q 250 767 193 713 q 404 822 307 822 z "},"¤":{"ha":606,"x_min":58,"x_max":592,"o":"m 590 707 l 489 618 q 517 522 517 574 q 461 392 517 450 l 543 303 l 542 293 l 507 263 l 499 264 l 421 356 q 303 314 368 314 q 194 354 239 314 l 94 261 l 85 263 l 58 293 l 61 301 l 163 390 q 135 486 135 429 q 190 617 135 558 l 108 706 l 111 715 l 143 746 l 153 746 l 232 653 q 349 693 286 693 q 456 654 410 693 l 556 746 l 565 746 l 592 715 l 590 707 m 343 649 q 264 627 301 649 q 203 569 226 606 q 181 489 181 532 q 217 397 181 435 q 308 360 253 360 q 389 381 351 360 q 449 439 426 403 q 472 518 472 475 q 435 610 472 572 q 343 649 399 649 z "},"¥":{"ha":678,"x_min":29,"x_max":653,"o":"m 643 393 l 635 357 l 422 357 l 347 249 l 343 215 l 615 215 l 621 210 l 613 175 l 339 175 l 317 0 l 260 0 l 283 175 l 33 175 l 29 181 l 36 215 l 289 215 l 293 254 l 251 357 l 56 357 l 51 363 l 58 397 l 235 397 l 117 686 l 182 686 l 190 653 l 326 322 l 333 322 l 568 651 l 589 686 l 653 686 l 451 397 l 639 397 l 643 393 z "},"¦":{"ha":440,"x_min":110,"x_max":344,"o":"m 272 514 l 224 508 l 217 514 l 289 1099 l 340 1103 l 344 1097 l 272 514 m 164 -364 l 115 -367 l 110 -358 l 181 215 l 229 222 l 236 213 l 164 -364 z "},"§":{"ha":574,"x_min":15,"x_max":544,"o":"m 410 893 q 544 864 478 893 l 528 806 l 517 804 q 394 843 454 843 q 317 824 351 843 q 263 776 282 806 q 244 718 244 747 q 273 647 244 679 q 364 565 301 615 q 475 461 438 506 q 513 356 513 417 q 474 247 513 297 q 363 165 435 197 q 414 47 414 107 q 383 -47 414 -3 q 298 -117 351 -90 q 181 -143 244 -143 q 15 -97 85 -143 l 31 -40 l 40 -33 q 192 -94 108 -94 q 276 -76 239 -94 q 333 -27 313 -57 q 354 35 354 3 q 324 110 354 75 q 231 193 293 144 q 120 296 157 251 q 83 399 83 340 q 125 508 83 457 q 235 592 167 560 q 185 707 185 649 q 215 799 185 757 q 296 867 244 842 q 410 893 347 893 m 453 340 q 422 422 453 386 q 326 510 390 458 l 269 557 q 177 490 210 528 q 144 413 144 451 q 174 335 144 369 q 269 250 204 301 l 329 200 q 453 340 453 256 z "},"¨":{"ha":542,"x_min":183,"x_max":485,"o":"m 228 879 q 258 867 247 879 q 269 836 269 856 q 226 792 269 792 q 183 835 183 792 q 195 867 183 854 q 228 879 207 879 m 443 878 q 474 867 463 878 q 485 836 485 856 q 473 803 485 815 q 442 790 461 790 q 399 833 399 790 q 443 878 399 878 z "},"©":{"ha":957,"x_min":82,"x_max":897,"o":"m 489 831 q 703 778 610 831 q 847 629 796 725 q 897 407 897 533 q 847 185 897 281 q 703 36 796 89 q 489 -17 610 -17 q 276 36 368 -17 q 133 185 183 89 q 82 407 82 281 q 133 629 82 533 q 276 778 183 725 q 489 831 368 831 m 489 794 q 294 746 378 794 q 164 610 210 697 q 118 407 118 522 q 164 204 118 292 q 294 68 210 117 q 489 19 378 19 q 683 68 599 19 q 813 204 767 117 q 860 407 860 292 q 813 610 860 522 q 683 746 767 697 q 489 794 599 794 m 506 646 q 639 610 576 646 l 628 567 l 621 565 q 504 600 574 600 q 383 553 425 600 q 342 413 342 506 q 383 269 342 318 q 500 219 424 219 q 629 258 568 219 l 636 257 l 631 213 q 497 174 564 174 q 342 235 396 174 q 289 410 289 296 q 344 585 289 524 q 506 646 400 646 z "},"ª":{"ha":424,"x_min":93,"x_max":417,"o":"m 375 575 l 368 478 l 310 472 l 336 683 l 329 683 q 174 472 254 544 l 161 472 q 108 521 124 490 q 93 607 93 551 q 149 799 93 718 q 304 894 204 881 l 308 894 l 374 886 l 410 899 l 417 893 l 375 575 m 179 528 q 215 559 188 528 q 277 646 242 590 q 347 774 313 701 l 351 801 l 356 843 l 299 851 q 188 785 229 850 q 146 626 146 719 q 157 553 146 578 q 179 528 168 528 z "},"«":{"ha":528,"x_min":58,"x_max":546,"o":"m 61 325 l 299 557 l 331 536 l 329 525 l 115 311 l 278 99 l 275 88 l 239 67 l 58 306 l 61 325 m 276 325 l 514 557 l 546 536 l 544 525 l 331 311 l 493 99 l 490 88 l 454 67 l 274 306 l 276 325 z "},"¬":{"ha":667,"x_min":50,"x_max":592,"o":"m 556 92 l 511 88 l 504 93 l 535 346 l 54 346 l 50 353 l 60 397 l 585 397 l 592 389 l 556 92 z "},"­":{"ha":431,"x_min":42,"x_max":397,"o":"m 392 350 l 49 304 l 42 311 l 47 357 l 390 403 l 397 396 l 392 350 z "},"®":{"ha":604,"x_min":54,"x_max":551,"o":"m 303 975 q 483 907 415 975 q 551 728 551 839 q 483 547 551 615 q 303 478 415 478 q 122 547 190 478 q 54 728 54 615 q 122 907 54 839 q 303 975 190 975 m 304 510 q 461 569 401 510 q 521 728 521 629 q 461 885 521 825 q 304 944 401 944 q 146 885 206 944 q 86 728 86 825 q 146 569 86 629 q 304 510 206 510 m 394 793 q 339 710 394 735 q 413 611 372 661 l 411 606 q 374 599 404 603 l 369 601 q 304 701 343 635 l 256 701 l 256 688 l 257 603 l 218 603 l 218 871 l 308 871 q 394 793 394 871 m 308 733 q 356 789 356 749 q 297 840 356 838 l 258 839 l 257 735 l 308 733 z "},"¯":{"ha":542,"x_min":132,"x_max":538,"o":"m 533 811 l 138 811 l 132 818 l 136 861 l 532 861 l 538 856 l 533 811 z "},"°":{"ha":408,"x_min":81,"x_max":428,"o":"m 276 896 q 385 852 342 896 q 428 743 428 808 q 401 650 428 693 q 329 582 374 607 q 235 557 285 557 q 124 600 168 557 q 81 708 81 643 q 108 801 81 758 q 180 870 135 844 q 276 896 225 896 m 271 856 q 199 836 233 856 q 143 783 164 817 q 122 714 122 750 q 156 631 122 665 q 239 597 189 597 q 310 617 276 597 q 365 669 344 636 q 386 738 386 701 q 353 821 386 786 q 271 856 319 856 z "},"±":{"ha":664,"x_min":-1,"x_max":625,"o":"m 368 397 l 619 397 l 625 392 l 615 346 l 361 346 l 331 92 l 285 88 l 279 93 l 310 346 l 57 346 l 51 353 l 63 397 l 315 397 l 347 651 l 393 657 l 399 650 l 368 397 m 564 -107 l 6 -107 l -1 -100 l 4 -56 l 561 -56 l 568 -61 l 564 -107 z "},"²":{"ha":475,"x_min":60,"x_max":449,"o":"m 300 976 q 392 948 356 976 q 428 874 428 919 q 394 783 428 831 q 276 646 361 736 l 144 506 l 147 503 l 360 503 l 447 506 l 449 499 l 436 451 l 336 454 l 103 454 l 64 453 l 60 456 l 65 493 l 229 664 q 335 785 304 743 q 367 861 367 826 q 346 908 367 890 q 288 926 325 926 q 136 851 208 926 l 128 851 l 124 897 q 300 976 210 976 z "},"³":{"ha":418,"x_min":75,"x_max":399,"o":"m 267 978 q 361 949 324 978 q 399 874 399 919 q 369 795 399 833 q 288 736 339 757 l 288 733 q 390 619 390 708 q 326 498 390 546 q 163 450 261 450 q 75 460 114 450 l 76 503 l 81 506 q 169 497 142 497 q 288 530 243 497 q 333 615 333 563 q 214 704 333 700 l 163 704 l 158 708 l 165 749 l 207 749 q 265 765 235 750 q 317 806 296 781 q 338 863 338 832 q 315 911 338 893 q 257 929 293 929 q 135 879 201 929 l 128 879 l 124 922 q 267 978 200 978 z "},"´":{"ha":542,"x_min":208,"x_max":460,"o":"m 460 911 l 457 903 q 240 719 376 831 l 231 721 l 208 751 q 424 947 318 843 l 432 946 l 460 911 z "},"µ":{"ha":651,"x_min":42,"x_max":575,"o":"m 508 150 l 499 1 l 431 -6 l 478 342 l 468 342 q 324 119 388 203 q 194 -11 260 35 l 179 -11 q 136 10 156 -6 l 119 -112 l 110 -262 l 42 -269 l 146 500 l 153 631 l 219 638 l 153 131 q 161 81 149 99 q 192 63 174 63 q 314 175 231 63 q 499 489 397 288 l 500 500 l 507 631 l 575 638 l 508 150 z "},"¶":{"ha":647,"x_min":100,"x_max":674,"o":"m 661 832 l 553 832 l 479 243 l 471 174 q 406 23 460 89 q 242 -100 351 -43 l 224 -68 l 225 -58 q 355 47 311 -7 q 407 168 399 101 l 414 228 l 488 832 l 397 832 q 229 762 289 825 q 169 593 169 699 q 218 454 169 510 q 358 378 267 399 l 333 333 q 160 419 221 354 q 100 586 100 483 q 187 807 100 726 q 425 888 274 888 l 667 888 l 674 879 l 661 832 z "},"·":{"ha":319,"x_min":117,"x_max":206,"o":"m 163 381 q 194 368 182 381 q 206 336 206 356 q 194 303 206 315 q 161 290 182 290 q 117 335 117 290 q 129 367 117 354 q 163 381 142 381 z "},"¸":{"ha":542,"x_min":113,"x_max":301,"o":"m 251 -101 q 301 -175 301 -132 q 274 -234 301 -211 q 204 -257 246 -257 q 113 -212 149 -257 l 122 -174 l 129 -172 q 201 -215 163 -215 q 251 -174 251 -215 q 221 -133 251 -153 l 157 -93 l 190 21 l 236 21 l 207 -74 l 251 -101 z "},"¹":{"ha":346,"x_min":90,"x_max":293,"o":"m 250 638 l 229 454 l 171 454 l 193 629 l 228 911 l 96 878 l 90 882 l 96 926 l 286 979 l 293 972 l 250 638 z "},"º":{"ha":401,"x_min":92,"x_max":397,"o":"m 299 897 q 397 763 397 885 q 344 556 397 635 q 199 471 290 476 l 192 471 q 92 610 92 479 q 146 814 92 735 q 292 897 200 893 l 299 897 m 283 853 q 183 785 219 853 q 146 611 146 718 q 207 514 146 514 q 307 581 271 514 q 343 757 343 647 q 329 830 343 807 q 283 853 315 853 z "},"»":{"ha":518,"x_min":-14,"x_max":474,"o":"m 471 299 l 233 67 l 201 88 l 203 99 l 417 313 l 254 525 l 257 536 l 293 557 l 474 318 l 471 299 m 256 299 l 18 67 l -14 88 l -12 99 l 201 313 l 39 525 l 42 536 l 78 557 l 258 318 l 256 299 z "},"¼":{"ha":906,"x_min":-39,"x_max":839,"o":"m -8 -125 l -35 -110 l -39 -94 l 753 935 l 781 918 l 785 903 l -8 -125 m 81 797 l 86 842 l 276 894 l 283 888 l 240 553 l 219 369 l 161 369 l 183 544 l 218 826 l 86 793 l 81 797 m 829 151 l 749 154 l 739 154 l 724 4 l 719 0 l 672 -3 l 669 0 l 689 154 l 508 154 l 453 151 l 449 158 l 453 197 l 731 518 l 785 518 l 744 200 l 833 200 l 839 194 l 829 151 m 694 200 l 726 446 l 721 446 l 510 200 l 694 200 z "},"½":{"ha":904,"x_min":-39,"x_max":836,"o":"m 785 903 l -8 -125 l -35 -110 l -39 -94 l 753 935 l 781 918 l 785 903 m 240 553 l 219 369 l 161 369 l 183 544 l 218 826 l 86 793 l 81 797 l 86 842 l 276 894 l 283 888 l 240 553 m 688 522 q 779 494 743 522 q 815 419 815 465 q 782 329 815 376 q 664 192 749 282 l 532 51 l 535 49 l 747 49 l 835 51 l 836 44 l 824 -3 l 724 0 l 490 0 l 451 -1 l 447 1 l 453 39 l 617 210 q 723 331 692 289 q 754 407 754 372 q 733 454 754 436 q 675 472 713 472 q 524 397 596 472 l 515 397 l 511 443 q 688 522 597 522 z "},"¾":{"ha":978,"x_min":33,"x_max":911,"o":"m 64 -125 l 38 -110 l 33 -94 l 825 935 l 853 918 l 857 903 l 64 -125 m 375 535 q 310 413 375 461 q 147 365 246 365 q 60 375 99 365 l 61 418 l 65 421 q 154 413 126 413 q 273 445 228 413 q 318 531 318 478 q 199 619 318 615 l 147 619 l 143 624 l 150 664 l 192 664 q 250 681 219 665 q 301 722 281 696 q 322 778 322 747 q 300 826 322 808 q 242 844 278 844 q 119 794 186 844 l 113 794 l 108 838 q 251 893 185 893 q 346 864 308 893 q 383 789 383 835 q 353 710 383 749 q 272 651 324 672 l 272 649 q 375 535 375 624 m 901 151 l 821 154 l 811 154 l 796 4 l 792 0 l 744 -3 l 742 0 l 761 154 l 581 154 l 525 151 l 521 158 l 525 197 l 803 518 l 857 518 l 817 200 l 906 200 l 911 194 l 901 151 m 767 200 l 799 446 l 793 446 l 582 200 l 767 200 z "},"¿":{"ha":454,"x_min":-33,"x_max":336,"o":"m 271 -275 q 47 -214 126 -265 q -33 -78 -33 -162 q 103 122 -33 39 l 238 206 l 240 211 l 250 353 l 300 358 l 306 350 l 296 193 l 288 181 l 140 92 q 31 -64 31 26 q 98 -174 31 -133 q 297 -224 165 -215 l 301 -232 l 283 -271 l 271 -275 m 290 551 q 259 564 271 551 q 247 596 247 576 q 260 629 247 617 q 293 642 272 642 q 336 597 336 642 q 324 564 336 576 q 290 551 311 551 z "},"À":{"ha":744,"x_min":-15,"x_max":674,"o":"m 604 0 l 596 74 l 556 271 l 358 272 l 179 271 l 85 76 l 54 0 l -15 0 l 417 888 l 493 888 l 674 0 l 604 0 m 446 808 l 440 808 l 208 331 l 372 328 l 543 331 l 446 808 m 361 1181 q 617 1044 463 1121 l 603 1010 l 593 1006 q 561 1021 551 1026 q 338 1129 413 1090 l 333 1139 l 353 1178 l 361 1181 z "},"Á":{"ha":744,"x_min":-15,"x_max":674,"o":"m 604 0 l 596 74 l 556 271 l 358 272 l 179 271 l 85 76 l 54 0 l -15 0 l 417 888 l 493 888 l 674 0 l 604 0 m 446 808 l 440 808 l 208 331 l 372 328 l 543 331 l 446 808 m 631 1138 l 628 1128 q 372 1004 517 1071 l 363 1008 l 347 1043 q 603 1179 465 1099 l 613 1176 l 631 1138 z "},"Â":{"ha":744,"x_min":-15,"x_max":674,"o":"m 604 0 l 596 74 l 556 271 l 358 272 l 179 271 l 85 76 l 54 0 l -15 0 l 417 888 l 493 888 l 674 0 l 604 0 m 446 808 l 440 808 l 208 331 l 372 328 l 543 331 l 446 808 m 313 1053 q 474 1168 390 1101 l 500 1168 q 638 1053 560 1113 l 618 1021 l 608 1021 q 483 1115 544 1065 q 335 1021 417 1069 l 325 1021 l 313 1053 z "},"Ã":{"ha":744,"x_min":-15,"x_max":681,"o":"m 604 0 l 596 74 l 556 271 l 358 272 l 179 271 l 85 76 l 54 0 l -15 0 l 417 888 l 493 888 l 674 0 l 604 0 m 446 808 l 440 808 l 208 331 l 372 328 l 543 331 l 446 808 m 681 1124 l 603 1043 l 592 1039 q 482 1067 565 1042 q 375 1092 393 1092 q 326 1056 360 1092 q 301 1031 301 1031 l 293 1031 l 269 1056 l 269 1064 l 349 1143 l 358 1147 q 471 1119 389 1144 q 575 1096 554 1096 q 625 1132 589 1096 l 650 1156 l 658 1156 l 681 1131 l 681 1124 z "},"Ä":{"ha":744,"x_min":-15,"x_max":674,"o":"m 604 0 l 596 74 l 556 271 l 358 272 l 179 271 l 85 76 l 54 0 l -15 0 l 417 888 l 493 888 l 674 0 l 604 0 m 446 808 l 440 808 l 208 331 l 372 328 l 543 331 l 446 808 m 369 1135 q 400 1123 389 1135 q 411 1092 411 1111 q 368 1047 411 1047 q 325 1090 325 1047 q 337 1122 325 1110 q 369 1135 349 1135 m 585 1133 q 615 1122 604 1133 q 626 1092 626 1111 q 615 1058 626 1071 q 583 1046 603 1046 q 540 1089 540 1046 q 585 1133 540 1133 z "},"Å":{"ha":744,"x_min":-15,"x_max":674,"o":"m 604 0 l 596 74 l 556 271 l 358 272 l 179 271 l 85 76 l 54 0 l -15 0 l 417 888 l 493 888 l 674 0 l 604 0 m 446 808 l 440 808 l 208 331 l 372 328 l 543 331 l 446 808 m 476 1203 q 554 1173 526 1203 q 582 1099 582 1143 q 550 1021 582 1050 q 474 992 518 992 q 400 1020 431 992 q 369 1097 369 1049 q 399 1173 369 1143 q 476 1203 428 1203 m 475 1163 q 426 1145 444 1163 q 408 1099 408 1128 q 427 1049 408 1067 q 475 1032 446 1032 q 524 1049 504 1032 q 543 1096 543 1065 q 526 1144 543 1125 q 475 1163 508 1163 z "},"Æ":{"ha":1049,"x_min":-58,"x_max":990,"o":"m 976 0 l 549 0 l 551 74 l 543 383 l 210 317 l 56 76 l 14 0 l -58 0 l 515 888 l 958 888 l 964 879 l 949 826 l 735 829 l 599 829 l 607 451 l 911 510 l 915 503 l 911 453 l 608 397 l 615 57 l 771 57 l 986 61 l 990 53 l 976 0 m 533 807 l 526 807 l 253 382 l 543 439 l 533 807 z "},"Ç":{"ha":693,"x_min":71,"x_max":718,"o":"m 493 894 q 718 819 625 894 l 694 758 l 685 757 q 486 835 603 835 q 231 710 322 835 q 140 361 140 585 q 201 131 140 211 q 378 51 263 51 q 619 140 504 51 l 631 136 l 617 72 q 407 -7 511 3 l 386 -74 l 431 -101 q 481 -175 481 -132 q 453 -234 481 -211 q 383 -257 425 -257 q 292 -212 328 -257 l 301 -174 l 308 -172 q 381 -215 342 -215 q 431 -174 431 -215 q 400 -133 431 -153 l 336 -93 l 361 -8 q 146 88 221 -6 q 71 351 71 182 q 121 642 71 519 q 266 829 171 764 q 493 894 361 894 z "},"È":{"ha":621,"x_min":99,"x_max":654,"o":"m 226 486 l 390 485 l 531 488 l 536 479 l 522 428 l 376 429 l 218 428 l 199 274 l 174 58 l 344 57 l 549 61 l 553 53 l 539 0 l 99 0 l 138 269 l 211 888 l 650 888 l 654 879 l 640 826 l 446 829 l 269 828 l 226 486 m 342 1181 q 597 1044 443 1121 l 583 1010 l 574 1006 q 542 1021 532 1026 q 318 1129 393 1090 l 314 1139 l 333 1178 l 342 1181 z "},"É":{"ha":621,"x_min":99,"x_max":654,"o":"m 226 486 l 390 485 l 531 488 l 536 479 l 522 428 l 376 429 l 218 428 l 199 274 l 174 58 l 344 57 l 549 61 l 553 53 l 539 0 l 99 0 l 138 269 l 211 888 l 650 888 l 654 879 l 640 826 l 446 829 l 269 828 l 226 486 m 613 1138 l 610 1128 q 354 1004 499 1071 l 344 1008 l 329 1043 q 585 1179 447 1099 l 594 1176 l 613 1138 z "},"Ê":{"ha":621,"x_min":99,"x_max":654,"o":"m 226 486 l 390 485 l 531 488 l 536 479 l 522 428 l 376 429 l 218 428 l 199 274 l 174 58 l 344 57 l 549 61 l 553 53 l 539 0 l 99 0 l 138 269 l 211 888 l 650 888 l 654 879 l 640 826 l 446 829 l 269 828 l 226 486 m 294 1053 q 456 1168 372 1101 l 482 1168 q 619 1053 542 1113 l 600 1021 l 590 1021 q 465 1115 526 1065 q 317 1021 399 1069 l 307 1021 l 294 1053 z "},"Ë":{"ha":621,"x_min":99,"x_max":654,"o":"m 226 486 l 390 485 l 531 488 l 536 479 l 522 428 l 376 429 l 218 428 l 199 274 l 174 58 l 344 57 l 549 61 l 553 53 l 539 0 l 99 0 l 138 269 l 211 888 l 650 888 l 654 879 l 640 826 l 446 829 l 269 828 l 226 486 m 350 1135 q 381 1123 369 1135 q 392 1092 392 1111 q 349 1047 392 1047 q 306 1090 306 1047 q 317 1122 306 1110 q 350 1135 329 1135 m 565 1133 q 596 1122 585 1133 q 607 1092 607 1111 q 595 1058 607 1071 q 564 1046 583 1046 q 521 1089 521 1046 q 565 1133 521 1133 z "},"Ì":{"ha":343,"x_min":99,"x_max":408,"o":"m 167 0 l 99 0 l 136 269 l 210 888 l 278 888 l 199 274 l 167 0 m 153 1181 q 408 1044 254 1121 l 394 1010 l 385 1006 q 353 1021 343 1026 q 129 1129 204 1090 l 125 1139 l 144 1178 l 153 1181 z "},"Í":{"ha":343,"x_min":99,"x_max":422,"o":"m 167 0 l 99 0 l 136 269 l 210 888 l 278 888 l 199 274 l 167 0 m 422 1138 l 419 1128 q 164 1004 308 1071 l 154 1008 l 139 1043 q 394 1179 257 1099 l 404 1176 l 422 1138 z "},"Î":{"ha":343,"x_min":99,"x_max":431,"o":"m 167 0 l 99 0 l 136 269 l 210 888 l 278 888 l 199 274 l 167 0 m 106 1053 q 267 1168 183 1101 l 293 1168 q 431 1053 353 1113 l 411 1021 l 401 1021 q 276 1115 338 1065 q 128 1021 210 1069 l 118 1021 l 106 1053 z "},"Ï":{"ha":343,"x_min":99,"x_max":389,"o":"m 167 0 l 99 0 l 136 269 l 210 888 l 278 888 l 199 274 l 167 0 m 190 1133 q 221 1122 210 1133 q 232 1092 232 1111 q 219 1058 232 1071 q 188 1046 207 1046 q 146 1089 146 1046 q 190 1133 146 1133 m 347 1133 q 389 1092 389 1133 q 377 1058 389 1071 q 346 1046 365 1046 q 315 1058 326 1046 q 303 1089 303 1069 q 315 1122 303 1110 q 347 1133 328 1133 z "},"Ð":{"ha":885,"x_min":43,"x_max":849,"o":"m 522 893 q 764 803 679 893 q 849 547 849 713 q 796 253 849 378 q 641 60 743 128 q 396 -7 539 -7 q 131 0 294 -7 l 129 0 l 167 269 l 186 428 l 46 428 l 43 435 l 49 479 l 192 479 l 242 888 l 522 893 m 408 50 q 681 178 583 50 q 778 535 778 306 q 711 758 778 682 q 515 835 644 835 q 300 829 408 835 l 254 479 l 489 479 l 492 474 l 486 428 l 249 428 l 228 274 l 203 58 q 408 50 328 50 z "},"Ñ":{"ha":899,"x_min":99,"x_max":833,"o":"m 719 0 l 651 0 l 267 774 l 258 774 l 196 285 l 163 0 l 99 0 l 136 264 l 213 888 l 281 888 l 665 114 l 672 114 l 769 883 l 833 889 l 750 253 l 719 0 m 750 1124 l 672 1043 l 661 1039 q 551 1067 635 1042 q 444 1092 463 1092 q 396 1056 429 1092 q 371 1031 371 1031 l 363 1031 l 339 1056 l 339 1064 l 418 1143 l 428 1147 q 540 1119 458 1144 q 644 1096 624 1096 q 694 1132 658 1096 l 719 1156 l 728 1156 l 750 1131 l 750 1124 z "},"Ò":{"ha":840,"x_min":71,"x_max":804,"o":"m 497 896 q 724 803 644 896 q 804 543 804 711 q 754 249 804 374 q 608 58 704 125 q 376 -8 511 -8 q 151 86 231 -8 q 71 353 71 181 q 121 643 71 521 q 267 831 171 765 q 497 896 363 896 m 490 838 q 230 712 319 838 q 140 358 140 586 q 202 129 140 208 q 382 50 264 50 q 644 177 553 50 q 735 533 735 304 q 673 760 735 683 q 490 838 611 838 m 401 1181 q 657 1044 503 1121 l 643 1010 l 633 1006 q 601 1021 592 1026 q 378 1129 453 1090 l 374 1139 l 393 1178 l 401 1181 z "},"Ó":{"ha":840,"x_min":71,"x_max":804,"o":"m 497 896 q 724 803 644 896 q 804 543 804 711 q 754 249 804 374 q 608 58 704 125 q 376 -8 511 -8 q 151 86 231 -8 q 71 353 71 181 q 121 643 71 521 q 267 831 171 765 q 497 896 363 896 m 490 838 q 230 712 319 838 q 140 358 140 586 q 202 129 140 208 q 382 50 264 50 q 644 177 553 50 q 735 533 735 304 q 673 760 735 683 q 490 838 611 838 m 671 1138 l 668 1128 q 413 1004 557 1071 l 403 1008 l 388 1043 q 643 1179 506 1099 l 653 1176 l 671 1138 z "},"Ô":{"ha":840,"x_min":71,"x_max":804,"o":"m 497 896 q 724 803 644 896 q 804 543 804 711 q 754 249 804 374 q 608 58 704 125 q 376 -8 511 -8 q 151 86 231 -8 q 71 353 71 181 q 121 643 71 521 q 267 831 171 765 q 497 896 363 896 m 490 838 q 230 712 319 838 q 140 358 140 586 q 202 129 140 208 q 382 50 264 50 q 644 177 553 50 q 735 533 735 304 q 673 760 735 683 q 490 838 611 838 m 354 1053 q 515 1168 432 1101 l 542 1168 q 679 1053 601 1113 l 660 1021 l 650 1021 q 525 1115 586 1065 q 376 1021 458 1069 l 367 1021 l 354 1053 z "},"Õ":{"ha":840,"x_min":71,"x_max":804,"o":"m 497 896 q 724 803 644 896 q 804 543 804 711 q 754 249 804 374 q 608 58 704 125 q 376 -8 511 -8 q 151 86 231 -8 q 71 353 71 181 q 121 643 71 521 q 267 831 171 765 q 497 896 363 896 m 490 838 q 230 712 319 838 q 140 358 140 586 q 202 129 140 208 q 382 50 264 50 q 644 177 553 50 q 735 533 735 304 q 673 760 735 683 q 490 838 611 838 m 721 1124 l 643 1043 l 632 1039 q 522 1067 606 1042 q 415 1092 433 1092 q 367 1056 400 1092 q 342 1031 342 1031 l 333 1031 l 310 1056 l 310 1064 l 389 1143 l 399 1147 q 511 1119 429 1144 q 615 1096 594 1096 q 665 1132 629 1096 l 690 1156 l 699 1156 l 721 1131 l 721 1124 z "},"Ö":{"ha":840,"x_min":71,"x_max":804,"o":"m 497 896 q 724 803 644 896 q 804 543 804 711 q 754 249 804 374 q 608 58 704 125 q 376 -8 511 -8 q 151 86 231 -8 q 71 353 71 181 q 121 643 71 521 q 267 831 171 765 q 497 896 363 896 m 490 838 q 230 712 319 838 q 140 358 140 586 q 202 129 140 208 q 382 50 264 50 q 644 177 553 50 q 735 533 735 304 q 673 760 735 683 q 490 838 611 838 m 410 1135 q 440 1123 429 1135 q 451 1092 451 1111 q 408 1047 451 1047 q 365 1090 365 1047 q 377 1122 365 1110 q 410 1135 389 1135 m 625 1133 q 656 1122 644 1133 q 667 1092 667 1111 q 655 1058 667 1071 q 624 1046 643 1046 q 581 1089 581 1046 q 625 1133 581 1133 z "},"×":{"ha":668,"x_min":103,"x_max":579,"o":"m 578 550 l 378 372 l 533 193 l 532 185 l 494 156 l 336 335 l 133 156 l 103 185 l 103 193 l 306 372 l 147 550 l 149 560 l 186 589 l 344 408 l 547 589 l 579 560 l 578 550 z "},"Ø":{"ha":842,"x_min":71,"x_max":804,"o":"m 692 835 q 804 543 804 743 q 754 249 804 374 q 608 58 704 125 q 376 -8 511 -8 q 232 22 297 -8 l 146 -131 l 104 -117 l 101 -110 l 190 49 q 71 353 71 138 q 120 643 71 521 q 265 831 169 765 q 496 896 361 896 q 650 863 585 896 l 725 994 l 767 981 l 769 971 l 692 835 m 140 358 q 224 106 140 182 l 619 807 q 490 838 563 838 q 230 712 319 838 q 140 358 140 586 m 382 50 q 644 177 553 50 q 735 533 735 304 q 658 775 735 700 l 264 76 q 382 50 314 50 z "},"Ù":{"ha":819,"x_min":104,"x_max":783,"o":"m 713 326 q 608 80 696 167 q 374 -7 521 -7 q 175 59 246 -7 q 104 247 104 125 q 110 322 104 288 l 128 447 l 182 888 l 247 888 l 174 328 q 169 263 169 294 q 222 106 169 160 q 376 53 275 53 q 563 122 493 53 q 650 322 633 190 l 717 888 l 783 888 l 725 435 l 713 326 m 392 1181 q 647 1044 493 1121 l 633 1010 l 624 1006 q 592 1021 582 1026 q 368 1129 443 1090 l 364 1139 l 383 1178 l 392 1181 z "},"Ú":{"ha":819,"x_min":104,"x_max":783,"o":"m 713 326 q 608 80 696 167 q 374 -7 521 -7 q 175 59 246 -7 q 104 247 104 125 q 110 322 104 288 l 128 447 l 182 888 l 247 888 l 174 328 q 169 263 169 294 q 222 106 169 160 q 376 53 275 53 q 563 122 493 53 q 650 322 633 190 l 717 888 l 783 888 l 725 435 l 713 326 m 661 1138 l 658 1128 q 403 1004 547 1071 l 393 1008 l 378 1043 q 633 1179 496 1099 l 643 1176 l 661 1138 z "},"Û":{"ha":819,"x_min":104,"x_max":783,"o":"m 713 326 q 608 80 696 167 q 374 -7 521 -7 q 175 59 246 -7 q 104 247 104 125 q 110 322 104 288 l 128 447 l 182 888 l 247 888 l 174 328 q 169 263 169 294 q 222 106 169 160 q 376 53 275 53 q 563 122 493 53 q 650 322 633 190 l 717 888 l 783 888 l 725 435 l 713 326 m 343 1053 q 504 1168 421 1101 l 531 1168 q 668 1053 590 1113 l 649 1021 l 639 1021 q 514 1115 575 1065 q 365 1021 447 1069 l 356 1021 l 343 1053 z "},"Ü":{"ha":819,"x_min":104,"x_max":783,"o":"m 713 326 q 608 80 696 167 q 374 -7 521 -7 q 175 59 246 -7 q 104 247 104 125 q 110 322 104 288 l 128 447 l 182 888 l 247 888 l 174 328 q 169 263 169 294 q 222 106 169 160 q 376 53 275 53 q 563 122 493 53 q 650 322 633 190 l 717 888 l 783 888 l 725 435 l 713 326 m 400 1135 q 431 1123 419 1135 q 442 1092 442 1111 q 399 1047 442 1047 q 356 1090 356 1047 q 367 1122 356 1110 q 400 1135 379 1135 m 615 1133 q 646 1122 635 1133 q 657 1092 657 1111 q 645 1058 657 1071 q 614 1046 633 1046 q 571 1089 571 1046 q 615 1133 571 1133 z "},"Ý":{"ha":675,"x_min":99,"x_max":717,"o":"m 349 265 l 318 0 l 251 0 l 288 265 l 296 331 l 99 888 l 172 888 l 182 844 l 333 411 l 342 411 l 619 843 l 642 888 l 717 888 l 358 332 l 349 265 m 589 1138 l 586 1128 q 331 1004 475 1071 l 321 1008 l 306 1043 q 561 1179 424 1099 l 571 1176 l 589 1138 z "},"Þ":{"ha":674,"x_min":100,"x_max":633,"o":"m 408 726 q 574 670 515 726 q 633 507 633 614 q 544 259 633 351 q 296 167 454 167 l 186 167 l 167 0 l 100 0 l 136 269 l 211 888 l 278 888 l 257 725 l 408 726 m 349 224 q 507 310 449 235 q 565 497 565 385 q 400 668 565 660 l 249 665 l 199 274 l 193 226 l 349 224 z "},"ß":{"ha":726,"x_min":74,"x_max":653,"o":"m 421 692 q 651 629 524 692 l 653 614 l 436 386 q 594 315 542 360 q 647 200 647 271 q 616 92 647 139 q 531 20 585 46 q 414 -6 478 -6 q 321 7 368 -6 q 240 43 274 19 l 256 106 l 264 108 q 338 63 294 79 q 418 47 381 47 q 534 90 488 47 q 581 193 581 133 q 351 346 581 304 l 350 364 l 569 593 q 410 638 489 638 q 263 589 321 638 q 193 458 204 540 l 161 214 l 136 0 l 74 0 l 101 203 l 132 458 q 224 628 146 564 q 421 692 303 692 z "},"à":{"ha":669,"x_min":1,"x_max":579,"o":"m 513 0 l 507 61 l 475 201 l 311 203 l 164 201 l 93 64 l 67 0 l 1 0 l 351 686 l 425 686 l 579 0 l 513 0 m 381 617 l 375 617 l 190 256 l 463 256 l 381 617 m 307 1001 q 521 806 408 900 l 499 775 l 489 774 q 272 957 353 885 l 271 965 l 297 1000 l 307 1001 z "},"á":{"ha":669,"x_min":1,"x_max":579,"o":"m 513 0 l 507 61 l 475 201 l 311 203 l 164 201 l 93 64 l 67 0 l 1 0 l 351 686 l 425 686 l 579 0 l 513 0 m 381 617 l 375 617 l 190 256 l 463 256 l 381 617 m 538 965 l 535 957 q 318 774 454 885 l 308 775 l 286 806 q 501 1001 396 897 l 510 1000 l 538 965 z "},"â":{"ha":669,"x_min":1,"x_max":579,"o":"m 513 0 l 507 61 l 475 201 l 311 203 l 164 201 l 93 64 l 67 0 l 1 0 l 351 686 l 425 686 l 579 0 l 513 0 m 381 617 l 375 617 l 190 256 l 463 256 l 381 617 m 240 800 q 415 981 311 867 l 443 981 q 575 800 507 883 l 551 771 l 542 771 q 424 925 482 840 q 267 771 332 829 l 257 771 l 240 800 z "},"ã":{"ha":669,"x_min":1,"x_max":614,"o":"m 513 0 l 507 61 l 475 201 l 311 203 l 164 201 l 93 64 l 67 0 l 1 0 l 351 686 l 425 686 l 579 0 l 513 0 m 381 617 l 375 617 l 190 256 l 463 256 l 381 617 m 614 922 l 536 842 l 525 838 q 415 865 499 840 q 308 890 326 890 q 260 854 293 890 q 235 829 235 829 l 226 829 l 203 854 l 203 863 l 282 942 l 292 946 q 404 918 322 943 q 508 894 488 894 q 558 931 522 894 l 583 954 l 592 954 l 614 929 l 614 922 z "},"ä":{"ha":669,"x_min":1,"x_max":579,"o":"m 513 0 l 507 61 l 475 201 l 311 203 l 164 201 l 93 64 l 67 0 l 1 0 l 351 686 l 425 686 l 579 0 l 513 0 m 381 617 l 375 617 l 190 256 l 463 256 l 381 617 m 303 933 q 333 922 322 933 q 344 890 344 910 q 301 846 344 846 q 258 889 258 846 q 270 921 258 908 q 303 933 282 933 m 518 932 q 549 921 538 932 q 560 890 560 910 q 548 857 560 869 q 517 844 536 844 q 474 888 474 844 q 518 932 474 932 z "},"å":{"ha":669,"x_min":1,"x_max":579,"o":"m 513 0 l 507 61 l 475 201 l 311 203 l 164 201 l 93 64 l 67 0 l 1 0 l 351 686 l 425 686 l 579 0 l 513 0 m 381 617 l 375 617 l 190 256 l 463 256 l 381 617 m 410 1001 q 488 972 460 1001 q 515 897 515 942 q 483 819 515 849 q 407 790 451 790 q 333 819 364 790 q 303 896 303 847 q 332 972 303 942 q 410 1001 361 1001 m 408 961 q 360 944 378 961 q 342 897 342 926 q 360 848 342 865 q 408 831 379 831 q 457 847 438 831 q 476 894 476 864 q 459 942 476 924 q 408 961 442 961 z "},"æ":{"ha":922,"x_min":-33,"x_max":846,"o":"m 833 0 l 471 0 l 475 61 l 467 286 l 183 231 l 68 63 l 35 0 l -33 0 l 438 686 l 814 686 l 818 679 l 804 629 l 625 635 l 515 635 l 525 351 l 774 397 l 779 393 l 775 342 l 526 297 l 535 54 l 663 54 l 842 57 l 846 51 l 833 0 m 454 617 l 449 617 l 226 294 l 464 340 l 454 617 z "},"ç":{"ha":621,"x_min":72,"x_max":610,"o":"m 422 692 q 610 638 533 692 l 589 579 l 578 576 q 413 638 514 638 q 210 545 282 638 q 139 283 139 453 q 189 110 139 171 q 332 49 239 49 q 531 117 439 49 l 540 113 l 528 54 q 353 -6 443 1 l 331 -76 l 375 -104 q 425 -178 425 -135 q 397 -237 425 -214 q 328 -260 369 -260 q 236 -215 272 -260 l 246 -176 l 253 -175 q 325 -218 286 -218 q 375 -176 375 -218 q 344 -136 375 -156 l 281 -96 l 307 -7 q 133 74 194 0 q 72 276 72 147 q 165 583 72 474 q 422 692 257 692 z "},"è":{"ha":567,"x_min":96,"x_max":558,"o":"m 206 381 l 343 381 l 458 382 l 463 375 l 451 325 l 331 326 l 199 326 l 183 214 l 165 54 l 301 53 l 476 56 l 482 50 l 468 0 l 96 0 l 124 208 l 182 686 l 554 686 l 558 679 l 546 629 l 383 633 l 239 633 l 206 381 m 289 1001 q 503 806 390 900 l 481 775 l 471 774 q 254 957 335 885 l 253 965 l 279 1000 l 289 1001 z "},"é":{"ha":567,"x_min":96,"x_max":558,"o":"m 206 381 l 343 381 l 458 382 l 463 375 l 451 325 l 331 326 l 199 326 l 183 214 l 165 54 l 301 53 l 476 56 l 482 50 l 468 0 l 96 0 l 124 208 l 182 686 l 554 686 l 558 679 l 546 629 l 383 633 l 239 633 l 206 381 m 521 965 l 518 957 q 301 774 438 885 l 292 775 l 269 806 q 485 1001 379 897 l 493 1000 l 521 965 z "},"ê":{"ha":567,"x_min":96,"x_max":558,"o":"m 206 381 l 343 381 l 458 382 l 463 375 l 451 325 l 331 326 l 199 326 l 183 214 l 165 54 l 301 53 l 476 56 l 482 50 l 468 0 l 96 0 l 124 208 l 182 686 l 554 686 l 558 679 l 546 629 l 383 633 l 239 633 l 206 381 m 224 800 q 399 981 294 867 l 426 981 q 558 800 490 883 l 535 771 l 525 771 q 407 925 465 840 q 250 771 315 829 l 240 771 l 224 800 z "},"ë":{"ha":567,"x_min":96,"x_max":558,"o":"m 206 381 l 343 381 l 458 382 l 463 375 l 451 325 l 331 326 l 199 326 l 183 214 l 165 54 l 301 53 l 476 56 l 482 50 l 468 0 l 96 0 l 124 208 l 182 686 l 554 686 l 558 679 l 546 629 l 383 633 l 239 633 l 206 381 m 286 933 q 317 922 306 933 q 328 890 328 910 q 285 846 328 846 q 242 889 242 846 q 253 921 242 908 q 286 933 265 933 m 501 932 q 532 921 521 932 q 543 890 543 910 q 531 857 543 869 q 500 844 519 844 q 457 888 457 844 q 501 932 457 932 z "},"ì":{"ha":338,"x_min":96,"x_max":350,"o":"m 160 0 l 96 0 l 125 208 l 182 686 l 246 686 l 185 214 l 160 0 m 136 1001 q 350 806 238 900 l 328 775 l 318 774 q 101 957 182 885 l 100 965 l 126 1000 l 136 1001 z "},"í":{"ha":338,"x_min":96,"x_max":368,"o":"m 160 0 l 96 0 l 125 208 l 182 686 l 246 686 l 185 214 l 160 0 m 368 965 l 365 957 q 149 774 285 885 l 139 775 l 117 806 q 332 1001 226 897 l 340 1000 l 368 965 z "},"î":{"ha":338,"x_min":71,"x_max":406,"o":"m 160 0 l 96 0 l 125 208 l 182 686 l 246 686 l 185 214 l 160 0 m 71 800 q 246 981 142 867 l 274 981 q 406 800 338 883 l 382 771 l 372 771 q 254 925 313 840 q 97 771 163 829 l 88 771 l 71 800 z "},"ï":{"ha":338,"x_min":96,"x_max":361,"o":"m 160 0 l 96 0 l 125 208 l 182 686 l 246 686 l 185 214 l 160 0 m 163 932 q 193 921 182 932 q 204 890 204 910 q 192 857 204 869 q 160 844 179 844 q 118 888 118 844 q 163 932 118 932 m 319 932 q 361 890 361 932 q 349 857 361 869 q 318 844 338 844 q 287 856 299 844 q 275 888 275 868 q 288 920 275 908 q 319 932 300 932 z "},"ð":{"ha":754,"x_min":8,"x_max":699,"o":"m 422 692 q 626 620 553 692 q 699 419 699 549 q 601 108 699 221 q 324 -6 503 -6 q 100 0 208 -6 l 128 208 l 140 315 l 13 315 l 8 322 l 17 365 l 147 365 l 186 686 l 422 692 m 336 47 q 554 142 476 47 q 632 408 632 238 q 576 578 632 519 q 415 636 521 636 q 242 631 325 636 l 207 365 l 386 365 l 389 358 l 382 315 l 200 315 l 188 214 l 169 54 q 336 47 243 47 z "},"ñ":{"ha":794,"x_min":96,"x_max":706,"o":"m 617 0 l 550 0 l 232 581 l 228 581 l 181 222 l 154 0 l 96 0 l 124 203 l 183 686 l 249 686 l 568 106 l 575 106 l 646 685 l 706 689 l 640 199 l 617 0 m 671 922 l 593 842 l 582 838 q 472 865 556 840 q 365 890 383 890 q 317 854 350 890 q 292 829 292 829 l 283 829 l 260 854 l 260 863 l 339 942 l 349 946 q 461 918 379 943 q 565 894 544 894 q 615 931 579 894 l 640 954 l 649 954 l 671 929 l 671 922 z "},"ò":{"ha":744,"x_min":71,"x_max":683,"o":"m 424 693 q 616 620 549 693 q 683 408 683 547 q 642 190 683 283 q 520 44 600 96 q 331 -7 440 -7 q 138 67 206 -7 q 71 283 71 142 q 164 583 71 474 q 424 693 257 693 m 415 638 q 209 547 281 638 q 138 289 138 457 q 335 49 138 49 q 544 140 471 49 q 617 400 617 232 q 415 638 617 638 m 338 1001 q 551 806 439 900 l 529 775 l 519 774 q 303 957 383 885 l 301 965 l 328 1000 l 338 1001 z "},"ó":{"ha":744,"x_min":71,"x_max":683,"o":"m 424 693 q 616 620 549 693 q 683 408 683 547 q 642 190 683 283 q 520 44 600 96 q 331 -7 440 -7 q 138 67 206 -7 q 71 283 71 142 q 164 583 71 474 q 424 693 257 693 m 415 638 q 209 547 281 638 q 138 289 138 457 q 335 49 138 49 q 544 140 471 49 q 617 400 617 232 q 415 638 617 638 m 569 965 l 567 957 q 350 774 486 885 l 340 775 l 318 806 q 533 1001 428 897 l 542 1000 l 569 965 z "},"ô":{"ha":744,"x_min":71,"x_max":683,"o":"m 424 693 q 616 620 549 693 q 683 408 683 547 q 642 190 683 283 q 520 44 600 96 q 331 -7 440 -7 q 138 67 206 -7 q 71 283 71 142 q 164 583 71 474 q 424 693 257 693 m 415 638 q 209 547 281 638 q 138 289 138 457 q 335 49 138 49 q 544 140 471 49 q 617 400 617 232 q 415 638 617 638 m 271 800 q 446 981 342 867 l 474 981 q 606 800 538 883 l 582 771 l 572 771 q 454 925 513 840 q 297 771 363 829 l 288 771 l 271 800 z "},"õ":{"ha":744,"x_min":71,"x_max":683,"o":"m 424 693 q 616 620 549 693 q 683 408 683 547 q 642 190 683 283 q 520 44 600 96 q 331 -7 440 -7 q 138 67 206 -7 q 71 283 71 142 q 164 583 71 474 q 424 693 257 693 m 415 638 q 209 547 281 638 q 138 289 138 457 q 335 49 138 49 q 544 140 471 49 q 617 400 617 232 q 415 638 617 638 m 646 922 l 568 842 l 557 838 q 447 865 531 840 q 340 890 358 890 q 292 854 325 890 q 267 829 267 829 l 258 829 l 235 854 l 235 863 l 314 942 l 324 946 q 436 918 354 943 q 540 894 519 894 q 590 931 554 894 l 615 954 l 624 954 l 646 929 l 646 922 z "},"ö":{"ha":744,"x_min":71,"x_max":683,"o":"m 424 693 q 616 620 549 693 q 683 408 683 547 q 642 190 683 283 q 520 44 600 96 q 331 -7 440 -7 q 138 67 206 -7 q 71 283 71 142 q 164 583 71 474 q 424 693 257 693 m 415 638 q 209 547 281 638 q 138 289 138 457 q 335 49 138 49 q 544 140 471 49 q 617 400 617 232 q 415 638 617 638 m 335 933 q 365 922 354 933 q 376 890 376 910 q 333 846 376 846 q 290 889 290 846 q 302 921 290 908 q 335 933 314 933 m 550 932 q 581 921 569 932 q 592 890 592 910 q 580 857 592 869 q 549 844 568 844 q 506 888 506 844 q 550 932 506 932 z "},"÷":{"ha":664,"x_min":54,"x_max":624,"o":"m 619 346 l 61 346 l 54 353 l 60 397 l 617 397 l 624 392 l 619 346 m 303 166 q 334 153 322 166 q 345 122 345 141 q 334 90 345 102 q 302 78 322 78 q 259 121 259 78 q 271 153 259 140 q 303 166 283 166 m 362 648 q 392 635 381 648 q 404 604 404 623 q 392 572 404 584 q 360 560 381 560 q 317 603 317 560 q 329 635 317 622 q 362 648 341 648 z "},"ø":{"ha":744,"x_min":71,"x_max":683,"o":"m 581 651 q 683 408 683 581 q 642 190 683 283 q 520 44 600 96 q 331 -7 440 -7 q 214 14 264 -7 l 135 -122 l 93 -100 l 90 -92 l 167 40 q 71 283 71 113 q 164 583 71 474 q 424 693 257 693 q 532 675 486 693 l 599 790 l 640 768 l 643 760 l 581 651 m 138 289 q 197 94 138 154 l 503 624 q 415 638 467 638 q 209 547 281 638 q 138 289 138 457 m 335 49 q 544 140 471 49 q 617 400 617 232 q 549 596 617 540 l 243 65 q 335 49 281 49 z "},"ù":{"ha":731,"x_min":99,"x_max":667,"o":"m 608 243 q 523 59 596 124 q 328 -6 450 -6 q 158 45 218 -6 q 99 192 99 96 q 103 243 99 217 l 118 344 l 160 686 l 224 686 l 164 251 q 161 208 161 221 q 205 90 161 131 q 332 50 249 50 q 550 251 525 50 l 603 686 l 667 686 l 621 336 l 608 243 m 332 1001 q 546 806 433 900 l 524 775 l 514 774 q 297 957 378 885 l 296 965 l 322 1000 l 332 1001 z "},"ú":{"ha":731,"x_min":99,"x_max":667,"o":"m 608 243 q 523 59 596 124 q 328 -6 450 -6 q 158 45 218 -6 q 99 192 99 96 q 103 243 99 217 l 118 344 l 160 686 l 224 686 l 164 251 q 161 208 161 221 q 205 90 161 131 q 332 50 249 50 q 550 251 525 50 l 603 686 l 667 686 l 621 336 l 608 243 m 563 965 l 560 957 q 343 774 479 885 l 333 775 l 311 806 q 526 1001 421 897 l 535 1000 l 563 965 z "},"û":{"ha":731,"x_min":99,"x_max":667,"o":"m 608 243 q 523 59 596 124 q 328 -6 450 -6 q 158 45 218 -6 q 99 192 99 96 q 103 243 99 217 l 118 344 l 160 686 l 224 686 l 164 251 q 161 208 161 221 q 205 90 161 131 q 332 50 249 50 q 550 251 525 50 l 603 686 l 667 686 l 621 336 l 608 243 m 265 800 q 440 981 336 867 l 468 981 q 600 800 532 883 l 576 771 l 567 771 q 449 925 507 840 q 292 771 357 829 l 282 771 l 265 800 z "},"ü":{"ha":731,"x_min":99,"x_max":667,"o":"m 608 243 q 523 59 596 124 q 328 -6 450 -6 q 158 45 218 -6 q 99 192 99 96 q 103 243 99 217 l 118 344 l 160 686 l 224 686 l 164 251 q 161 208 161 221 q 205 90 161 131 q 332 50 249 50 q 550 251 525 50 l 603 686 l 667 686 l 621 336 l 608 243 m 328 933 q 358 922 347 933 q 369 890 369 910 q 326 846 369 846 q 283 889 283 846 q 295 921 283 908 q 328 933 307 933 m 543 932 q 574 921 563 932 q 585 890 585 910 q 573 857 585 869 q 542 844 561 844 q 499 888 499 844 q 543 932 499 932 z "},"ý":{"ha":613,"x_min":92,"x_max":614,"o":"m 313 203 l 288 0 l 225 0 l 253 203 l 260 256 l 92 686 l 163 686 l 171 653 l 296 326 l 303 326 l 525 650 l 544 686 l 614 686 l 319 247 l 313 203 m 504 965 l 501 957 q 285 774 421 885 l 275 775 l 253 806 q 468 1001 363 897 l 476 1000 l 504 965 z "},"þ":{"ha":613,"x_min":96,"x_max":551,"o":"m 360 565 q 501 519 450 565 q 551 390 551 472 q 517 256 551 315 q 419 163 482 197 q 276 129 357 129 l 175 129 l 160 0 l 96 0 l 125 208 l 183 686 l 247 686 l 231 564 l 360 565 m 313 181 q 438 247 393 192 q 483 383 483 301 q 347 514 483 506 l 224 511 l 185 214 l 181 183 l 313 181 z "},"ÿ":{"ha":613,"x_min":92,"x_max":614,"o":"m 313 203 l 288 0 l 225 0 l 253 203 l 260 256 l 92 686 l 163 686 l 171 653 l 296 326 l 303 326 l 525 650 l 544 686 l 614 686 l 319 247 l 313 203 m 269 933 q 300 922 289 933 q 311 890 311 910 q 268 846 311 846 q 225 889 225 846 q 237 921 225 908 q 269 933 249 933 m 485 932 q 515 921 504 932 q 526 890 526 910 q 515 857 526 869 q 483 844 503 844 q 440 888 440 844 q 485 932 440 932 z "},"Ā":{"ha":744,"x_min":-15,"x_max":679,"o":"m 604 0 l 596 74 l 556 271 l 358 272 l 179 271 l 85 76 l 54 0 l -15 0 l 417 888 l 493 888 l 674 0 l 604 0 m 446 808 l 440 808 l 208 331 l 372 328 l 543 331 l 446 808 m 675 1067 l 279 1067 l 274 1074 l 278 1117 l 674 1117 l 679 1111 l 675 1067 z "},"ā":{"ha":669,"x_min":1,"x_max":613,"o":"m 513 0 l 507 61 l 475 201 l 311 203 l 164 201 l 93 64 l 67 0 l 1 0 l 351 686 l 425 686 l 579 0 l 513 0 m 381 617 l 375 617 l 190 256 l 463 256 l 381 617 m 608 865 l 213 865 l 207 872 l 211 915 l 607 915 l 613 910 l 608 865 z "},"Ă":{"ha":744,"x_min":-15,"x_max":674,"o":"m 604 0 l 596 74 l 556 271 l 358 272 l 179 271 l 85 76 l 54 0 l -15 0 l 417 888 l 493 888 l 674 0 l 604 0 m 446 808 l 440 808 l 208 331 l 372 328 l 543 331 l 446 808 m 631 1122 q 465 1010 581 1010 q 367 1039 406 1010 q 318 1122 328 1068 l 344 1149 l 357 1149 q 467 1061 372 1061 q 599 1149 560 1061 l 610 1149 l 631 1122 z "},"ă":{"ha":669,"x_min":1,"x_max":579,"o":"m 513 0 l 507 61 l 475 201 l 311 203 l 164 201 l 93 64 l 67 0 l 1 0 l 351 686 l 425 686 l 579 0 l 513 0 m 381 617 l 375 617 l 190 256 l 463 256 l 381 617 m 565 935 q 393 782 517 782 q 292 820 325 782 q 251 935 258 858 l 279 964 l 290 964 q 396 835 296 835 q 532 964 496 835 l 544 964 l 565 935 z "},"Ą":{"ha":744,"x_min":-15,"x_max":674,"o":"m 671 -197 q 557 -272 617 -272 q 501 -253 524 -272 q 478 -194 478 -233 q 501 -122 478 -162 q 604 0 525 -82 l 596 74 l 556 271 l 358 272 l 179 271 l 85 76 l 54 0 l -15 0 l 417 888 l 493 888 l 674 0 l 661 0 q 556 -115 583 -78 q 529 -182 529 -153 q 568 -222 529 -222 q 660 -156 611 -222 l 664 -156 l 671 -197 m 446 808 l 440 808 l 208 331 l 372 328 l 543 331 l 446 808 z "},"ą":{"ha":669,"x_min":1,"x_max":581,"o":"m 581 -197 q 464 -272 524 -272 q 407 -253 431 -272 q 383 -194 383 -233 q 408 -123 383 -162 q 513 0 432 -83 l 506 61 l 474 201 l 311 203 l 164 201 l 93 64 l 67 0 l 1 0 l 351 686 l 424 686 l 579 0 l 569 0 q 463 -116 490 -78 q 435 -182 435 -154 q 475 -222 435 -222 q 568 -156 519 -222 l 574 -156 l 581 -197 m 381 617 l 375 617 l 190 256 l 463 256 l 381 617 z "},"Ć":{"ha":693,"x_min":71,"x_max":718,"o":"m 493 894 q 718 819 625 894 l 694 758 l 683 757 q 485 835 603 835 q 231 710 321 835 q 140 361 140 585 q 201 131 140 211 q 378 51 263 51 q 619 140 504 51 l 631 136 l 617 72 q 369 -8 492 -8 q 148 85 225 -8 q 71 351 71 179 q 121 642 71 519 q 266 829 171 764 q 493 894 361 894 m 647 1138 l 644 1128 q 389 1004 533 1071 l 379 1008 l 364 1043 q 619 1179 482 1099 l 629 1176 l 647 1138 z "},"ć":{"ha":621,"x_min":72,"x_max":608,"o":"m 422 692 q 608 638 532 692 l 588 579 l 578 576 q 413 638 513 638 q 210 545 282 638 q 139 283 139 453 q 188 110 139 171 q 331 49 238 49 q 531 117 436 49 l 539 113 l 526 54 q 326 -7 429 -7 q 138 67 204 -7 q 72 276 72 142 q 164 583 72 474 q 422 692 256 692 m 533 965 l 531 957 q 314 774 450 885 l 304 775 l 282 806 q 497 1001 392 897 l 506 1000 l 533 965 z "},"Ĉ":{"ha":693,"x_min":71,"x_max":718,"o":"m 493 894 q 718 819 625 894 l 694 758 l 683 757 q 485 835 603 835 q 231 710 321 835 q 140 361 140 585 q 201 131 140 211 q 378 51 263 51 q 619 140 504 51 l 631 136 l 617 72 q 369 -8 492 -8 q 148 85 225 -8 q 71 351 71 179 q 121 642 71 519 q 266 829 171 764 q 493 894 361 894 m 329 1053 q 490 1168 407 1101 l 517 1168 q 654 1053 576 1113 l 635 1021 l 625 1021 q 500 1115 561 1065 q 351 1021 433 1069 l 342 1021 l 329 1053 z "},"ĉ":{"ha":621,"x_min":72,"x_max":608,"o":"m 422 692 q 608 638 532 692 l 588 579 l 578 576 q 413 638 513 638 q 210 545 282 638 q 139 283 139 453 q 188 110 139 171 q 331 49 238 49 q 531 117 436 49 l 539 113 l 526 54 q 326 -7 429 -7 q 138 67 204 -7 q 72 276 72 142 q 164 583 72 474 q 422 692 256 692 m 235 800 q 410 981 306 867 l 438 981 q 569 800 501 883 l 546 771 l 536 771 q 418 925 476 840 q 261 771 326 829 l 251 771 l 235 800 z "},"Ċ":{"ha":693,"x_min":71,"x_max":718,"o":"m 493 894 q 718 819 625 894 l 694 758 l 683 757 q 485 835 603 835 q 231 710 321 835 q 140 361 140 585 q 201 131 140 211 q 378 51 263 51 q 619 140 504 51 l 631 136 l 617 72 q 369 -8 492 -8 q 148 85 225 -8 q 71 351 71 179 q 121 642 71 519 q 266 829 171 764 q 493 894 361 894 m 493 1153 q 536 1108 536 1153 q 524 1075 536 1088 q 492 1063 513 1063 q 447 1107 447 1063 q 460 1140 447 1128 q 493 1153 472 1153 z "},"ċ":{"ha":621,"x_min":72,"x_max":608,"o":"m 422 692 q 608 638 532 692 l 588 579 l 578 576 q 413 638 513 638 q 210 545 282 638 q 139 283 139 453 q 188 110 139 171 q 331 49 238 49 q 531 117 436 49 l 539 113 l 526 54 q 326 -7 429 -7 q 138 67 204 -7 q 72 276 72 142 q 164 583 72 474 q 422 692 256 692 m 407 951 q 450 907 450 951 q 438 874 450 886 q 406 861 426 861 q 361 906 361 861 q 374 939 361 926 q 407 951 386 951 z "},"Č":{"ha":693,"x_min":71,"x_max":718,"o":"m 493 894 q 718 819 625 894 l 694 758 l 683 757 q 485 835 603 835 q 231 710 321 835 q 140 361 140 585 q 201 131 140 211 q 378 51 263 51 q 619 140 504 51 l 631 136 l 617 72 q 369 -8 492 -8 q 148 85 225 -8 q 71 351 71 179 q 121 642 71 519 q 266 829 171 764 q 493 894 361 894 m 651 1125 q 492 1010 579 1081 l 465 1010 q 328 1125 393 1075 l 347 1157 l 356 1157 q 481 1063 419 1113 q 629 1157 547 1108 l 639 1157 l 651 1125 z "},"č":{"ha":621,"x_min":72,"x_max":608,"o":"m 422 692 q 608 638 532 692 l 588 579 l 578 576 q 413 638 513 638 q 210 545 282 638 q 139 283 139 453 q 188 110 139 171 q 331 49 238 49 q 531 117 436 49 l 539 113 l 526 54 q 326 -7 429 -7 q 138 67 204 -7 q 72 276 72 142 q 164 583 72 474 q 422 692 256 692 m 571 958 q 399 778 504 894 l 369 778 q 235 958 303 878 l 260 988 l 269 988 q 388 833 336 908 q 543 988 450 901 l 553 988 l 571 958 z "},"Ď":{"ha":854,"x_min":99,"x_max":818,"o":"m 492 893 q 733 803 649 893 q 818 547 818 713 q 765 253 818 378 q 610 60 713 128 q 365 -7 508 -7 q 100 0 263 -7 l 99 0 l 138 269 l 211 888 l 492 893 m 378 50 q 651 178 553 50 q 749 535 749 306 q 681 758 749 682 q 485 835 614 835 q 271 829 374 835 l 199 274 l 174 58 q 378 50 299 50 m 647 1125 q 488 1010 575 1081 l 461 1010 q 324 1125 389 1075 l 343 1157 l 351 1157 q 476 1063 415 1113 q 625 1157 543 1108 l 635 1157 l 647 1125 z "},"ď":{"ha":758,"x_min":97,"x_max":696,"o":"m 419 692 q 623 620 550 692 q 696 419 696 549 q 598 108 696 221 q 321 -6 500 -6 q 97 0 208 -6 l 125 208 l 183 686 l 419 692 m 333 47 q 551 142 474 47 q 629 408 629 238 q 574 578 629 519 q 413 636 518 636 q 240 631 326 636 l 185 214 l 167 54 q 333 47 240 47 m 596 958 q 424 778 529 894 l 394 778 q 260 958 328 878 l 285 988 l 294 988 q 413 833 361 908 q 568 988 475 901 l 578 988 l 596 958 z "},"Đ":{"ha":854,"x_min":99,"x_max":818,"o":"m 492 893 q 733 803 649 893 q 818 547 818 713 q 765 253 818 378 q 610 60 713 128 q 365 -7 508 -7 q 100 0 263 -7 l 99 0 l 138 269 l 211 888 l 492 893 m 378 50 q 651 178 553 50 q 749 535 749 306 q 681 758 749 682 q 485 835 614 835 q 271 829 374 835 l 199 274 l 174 58 q 378 50 299 50 m 686 1067 l 290 1067 l 285 1074 l 289 1117 l 685 1117 l 690 1111 l 686 1067 z "},"đ":{"ha":758,"x_min":97,"x_max":696,"o":"m 419 692 q 623 620 550 692 q 696 419 696 549 q 598 108 696 221 q 321 -6 500 -6 q 97 0 208 -6 l 125 208 l 183 686 l 419 692 m 333 47 q 551 142 474 47 q 629 408 629 238 q 574 578 629 519 q 413 636 518 636 q 240 631 326 636 l 185 214 l 167 54 q 333 47 240 47 m 628 865 l 232 865 l 226 872 l 231 915 l 626 915 l 632 910 l 628 865 z "},"Ē":{"ha":621,"x_min":99,"x_max":660,"o":"m 226 486 l 390 485 l 531 488 l 536 479 l 522 428 l 376 429 l 218 428 l 199 274 l 174 58 l 344 57 l 549 61 l 553 53 l 539 0 l 99 0 l 138 269 l 211 888 l 650 888 l 654 879 l 640 826 l 446 829 l 269 828 l 226 486 m 656 1067 l 260 1067 l 254 1074 l 258 1117 l 654 1117 l 660 1111 l 656 1067 z "},"ē":{"ha":567,"x_min":96,"x_max":596,"o":"m 206 381 l 343 381 l 458 382 l 463 375 l 451 325 l 331 326 l 199 326 l 183 214 l 165 54 l 301 53 l 476 56 l 482 50 l 468 0 l 96 0 l 124 208 l 182 686 l 554 686 l 558 679 l 546 629 l 383 633 l 239 633 l 206 381 m 592 865 l 196 865 l 190 872 l 194 915 l 590 915 l 596 910 l 592 865 z "},"Ĕ":{"ha":621,"x_min":99,"x_max":654,"o":"m 226 486 l 390 485 l 531 488 l 536 479 l 522 428 l 376 429 l 218 428 l 199 274 l 174 58 l 344 57 l 549 61 l 553 53 l 539 0 l 99 0 l 138 269 l 211 888 l 650 888 l 654 879 l 640 826 l 446 829 l 269 828 l 226 486 m 611 1122 q 446 1010 561 1010 q 347 1039 386 1010 q 299 1122 308 1068 l 325 1149 l 338 1149 q 447 1061 353 1061 q 579 1149 540 1061 l 590 1149 l 611 1122 z "},"ĕ":{"ha":567,"x_min":96,"x_max":558,"o":"m 206 381 l 343 381 l 458 382 l 463 375 l 451 325 l 331 326 l 199 326 l 183 214 l 165 54 l 301 53 l 476 56 l 482 50 l 468 0 l 96 0 l 124 208 l 182 686 l 554 686 l 558 679 l 546 629 l 383 633 l 239 633 l 206 381 m 547 935 q 375 782 499 782 q 274 820 307 782 q 233 935 240 858 l 261 964 l 272 964 q 378 835 278 835 q 514 964 478 835 l 526 964 l 547 935 z "},"Ė":{"ha":621,"x_min":99,"x_max":654,"o":"m 226 486 l 390 485 l 531 488 l 536 479 l 522 428 l 376 429 l 218 428 l 199 274 l 174 58 l 344 57 l 549 61 l 553 53 l 539 0 l 99 0 l 138 269 l 211 888 l 650 888 l 654 879 l 640 826 l 446 829 l 269 828 l 226 486 m 458 1153 q 501 1108 501 1153 q 490 1075 501 1088 q 457 1063 478 1063 q 413 1107 413 1063 q 425 1140 413 1128 q 458 1153 438 1153 z "},"ė":{"ha":567,"x_min":96,"x_max":558,"o":"m 206 381 l 343 381 l 458 382 l 463 375 l 451 325 l 331 326 l 199 326 l 183 214 l 165 54 l 301 53 l 476 56 l 482 50 l 468 0 l 96 0 l 124 208 l 182 686 l 554 686 l 558 679 l 546 629 l 383 633 l 239 633 l 206 381 m 394 951 q 438 907 438 951 q 426 874 438 886 q 393 861 414 861 q 349 906 349 861 q 361 939 349 926 q 394 951 374 951 z "},"Ę":{"ha":621,"x_min":99,"x_max":654,"o":"m 226 486 l 390 485 l 531 488 l 536 479 l 522 428 l 375 429 l 218 428 l 199 274 l 172 58 l 344 57 l 549 61 l 553 53 l 539 0 l 449 0 l 388 -92 q 361 -164 361 -135 q 377 -207 361 -190 q 421 -224 393 -224 q 525 -160 475 -224 l 529 -160 l 544 -197 q 413 -274 481 -274 q 340 -247 367 -274 q 313 -175 313 -219 q 344 -82 313 -129 l 400 0 l 99 0 l 136 269 l 210 888 l 651 888 l 654 879 l 642 826 l 446 829 l 269 828 l 226 486 z "},"ę":{"ha":567,"x_min":96,"x_max":558,"o":"m 206 381 l 343 381 l 458 382 l 463 375 l 450 325 l 329 326 l 199 326 l 183 214 l 165 54 l 301 53 l 476 56 l 482 50 l 469 0 l 371 0 l 310 -92 q 283 -164 283 -135 q 299 -207 283 -190 q 343 -224 315 -224 q 447 -160 397 -224 l 451 -160 l 467 -197 q 335 -274 403 -274 q 262 -247 289 -274 q 235 -175 235 -219 q 267 -82 235 -129 l 322 0 l 96 0 l 124 208 l 182 686 l 554 686 l 558 679 l 546 629 l 383 633 l 239 633 l 206 381 z "},"Ě":{"ha":621,"x_min":99,"x_max":654,"o":"m 226 486 l 390 485 l 531 488 l 536 479 l 522 428 l 376 429 l 218 428 l 199 274 l 174 58 l 344 57 l 549 61 l 553 53 l 539 0 l 99 0 l 138 269 l 211 888 l 650 888 l 654 879 l 640 826 l 446 829 l 269 828 l 226 486 m 617 1125 q 457 1010 544 1081 l 431 1010 q 293 1125 358 1075 l 313 1157 l 321 1157 q 446 1063 385 1113 q 594 1157 513 1108 l 604 1157 l 617 1125 z "},"ě":{"ha":567,"x_min":96,"x_max":560,"o":"m 206 381 l 343 381 l 458 382 l 463 375 l 451 325 l 331 326 l 199 326 l 183 214 l 165 54 l 301 53 l 476 56 l 482 50 l 468 0 l 96 0 l 124 208 l 182 686 l 554 686 l 558 679 l 546 629 l 383 633 l 239 633 l 206 381 m 560 958 q 388 778 493 894 l 358 778 q 224 958 292 878 l 249 988 l 258 988 q 376 833 325 908 q 532 988 439 901 l 542 988 l 560 958 z "},"Ĝ":{"ha":799,"x_min":69,"x_max":765,"o":"m 528 894 q 765 824 653 894 l 742 761 l 732 761 q 517 835 624 835 q 236 709 335 835 q 138 351 138 583 q 389 51 138 51 q 601 89 478 51 l 621 221 l 633 338 l 697 343 l 683 228 l 661 42 q 515 4 575 15 q 386 -7 456 -7 q 151 85 232 -7 q 69 346 69 176 q 124 642 69 518 q 281 830 178 765 q 528 894 383 894 m 344 1053 q 506 1168 422 1101 l 532 1168 q 669 1053 592 1113 l 650 1021 l 640 1021 q 515 1115 576 1065 q 367 1021 449 1069 l 357 1021 l 344 1053 z "},"ĝ":{"ha":710,"x_min":71,"x_max":651,"o":"m 449 692 q 651 640 549 692 l 622 579 l 614 579 q 440 638 524 638 q 215 545 293 638 q 138 283 138 453 q 342 49 138 49 q 517 79 419 49 l 528 174 l 539 265 l 599 269 l 586 182 l 568 32 q 338 -6 431 -6 q 139 67 207 -6 q 71 279 71 139 q 170 582 71 472 q 449 692 269 692 m 268 800 q 443 981 339 867 l 471 981 q 603 800 535 883 l 579 771 l 569 771 q 451 925 510 840 q 294 771 360 829 l 285 771 l 268 800 z "},"Ğ":{"ha":799,"x_min":69,"x_max":765,"o":"m 528 894 q 765 824 653 894 l 742 761 l 732 761 q 517 835 624 835 q 236 709 335 835 q 138 351 138 583 q 389 51 138 51 q 601 89 478 51 l 621 221 l 633 338 l 697 343 l 683 228 l 661 42 q 515 4 575 15 q 386 -7 456 -7 q 151 85 232 -7 q 69 346 69 176 q 124 642 69 518 q 281 830 178 765 q 528 894 383 894 m 663 1122 q 497 1010 613 1010 q 399 1039 438 1010 q 350 1122 360 1068 l 376 1149 l 389 1149 q 499 1061 404 1061 q 631 1149 592 1061 l 642 1149 l 663 1122 z "},"ğ":{"ha":710,"x_min":71,"x_max":651,"o":"m 449 692 q 651 640 549 692 l 622 579 l 614 579 q 440 638 524 638 q 215 545 293 638 q 138 283 138 453 q 342 49 138 49 q 517 79 419 49 l 528 174 l 539 265 l 599 269 l 586 182 l 568 32 q 338 -6 431 -6 q 139 67 207 -6 q 71 279 71 139 q 170 582 71 472 q 449 692 269 692 m 593 935 q 421 782 544 782 q 319 820 353 782 q 279 935 286 858 l 307 964 l 318 964 q 424 835 324 835 q 560 964 524 835 l 572 964 l 593 935 z "},"Ġ":{"ha":799,"x_min":69,"x_max":765,"o":"m 528 894 q 765 824 653 894 l 742 761 l 732 761 q 517 835 624 835 q 236 709 335 835 q 138 351 138 583 q 389 51 138 51 q 601 89 478 51 l 621 221 l 633 338 l 697 343 l 683 228 l 661 42 q 515 4 575 15 q 386 -7 456 -7 q 151 85 232 -7 q 69 346 69 176 q 124 642 69 518 q 281 830 178 765 q 528 894 383 894 m 510 1153 q 553 1108 553 1153 q 541 1075 553 1088 q 508 1063 529 1063 q 464 1107 464 1063 q 476 1140 464 1128 q 510 1153 489 1153 z "},"ġ":{"ha":710,"x_min":71,"x_max":651,"o":"m 449 692 q 651 640 549 692 l 622 579 l 614 579 q 440 638 524 638 q 215 545 293 638 q 138 283 138 453 q 342 49 138 49 q 517 79 419 49 l 528 174 l 539 265 l 599 269 l 586 182 l 568 32 q 338 -6 431 -6 q 139 67 207 -6 q 71 279 71 139 q 170 582 71 472 q 449 692 269 692 m 440 951 q 483 907 483 951 q 472 874 483 886 q 439 861 460 861 q 394 906 394 861 q 407 939 394 926 q 440 951 419 951 z "},"Ģ":{"ha":799,"x_min":69,"x_max":765,"o":"m 528 894 q 765 824 653 894 l 742 761 l 732 761 q 517 835 624 835 q 236 709 335 835 q 138 351 138 583 q 389 51 138 51 q 601 89 478 51 l 621 221 l 633 338 l 697 343 l 683 228 l 661 42 q 515 4 575 15 q 386 -7 456 -7 q 151 85 232 -7 q 69 346 69 176 q 124 642 69 518 q 281 830 178 765 q 528 894 383 894 m 424 -87 q 476 -164 476 -118 q 371 -314 476 -237 l 347 -292 l 349 -285 q 421 -174 421 -229 q 381 -119 421 -144 l 381 -112 q 424 -87 400 -97 z "},"ģ":{"ha":710,"x_min":71,"x_max":651,"o":"m 449 692 q 651 640 549 692 l 622 579 l 614 579 q 440 638 524 638 q 215 545 293 638 q 138 283 138 453 q 342 49 138 49 q 517 79 419 49 l 528 174 l 539 265 l 599 269 l 586 182 l 568 32 q 338 -6 431 -6 q 139 67 207 -6 q 71 279 71 139 q 170 582 71 472 q 449 692 269 692 m 363 -87 q 415 -164 415 -118 q 310 -314 415 -237 l 286 -292 l 288 -285 q 360 -174 360 -229 q 319 -119 360 -144 l 319 -112 q 363 -87 339 -97 z "},"Ĥ":{"ha":899,"x_min":99,"x_max":833,"o":"m 754 274 l 722 0 l 656 0 l 692 269 l 710 419 l 453 422 l 218 419 l 199 274 l 167 0 l 99 0 l 136 269 l 210 888 l 278 888 l 225 481 l 468 478 l 717 481 l 765 888 l 833 888 l 754 274 m 383 1053 q 544 1168 461 1101 l 571 1168 q 708 1053 631 1113 l 689 1021 l 679 1021 q 554 1115 615 1065 q 406 1021 488 1069 l 396 1021 l 383 1053 z "},"ĥ":{"ha":793,"x_min":96,"x_max":706,"o":"m 644 214 l 619 0 l 556 0 l 585 208 l 599 319 l 199 318 l 185 214 l 160 0 l 96 0 l 125 208 l 182 686 l 246 686 l 206 376 l 406 375 l 604 376 l 642 686 l 706 686 l 644 214 m 296 800 q 471 981 367 867 l 499 981 q 631 800 563 883 l 607 771 l 597 771 q 479 925 538 840 q 322 771 388 829 l 313 771 l 296 800 z "},"Ħ":{"ha":932,"x_min":111,"x_max":915,"o":"m 819 668 l 768 274 l 736 0 l 669 0 l 707 269 l 725 419 l 468 422 l 232 419 l 213 274 l 181 0 l 114 0 l 150 269 l 199 668 l 115 668 l 111 674 l 115 719 l 204 719 l 225 888 l 292 888 l 269 719 l 761 719 l 781 888 l 847 888 l 825 719 l 910 719 l 915 714 l 911 668 l 819 668 m 264 668 l 239 481 l 482 478 l 732 481 l 754 668 l 264 668 z "},"ħ":{"ha":793,"x_min":82,"x_max":763,"o":"m 682 506 l 644 214 l 618 0 l 556 0 l 585 208 l 599 319 l 199 318 l 185 214 l 158 0 l 96 0 l 125 208 l 161 506 l 86 506 l 82 511 l 92 550 l 165 550 l 182 686 l 246 686 l 228 550 l 625 550 l 642 686 l 706 686 l 688 550 l 757 550 l 763 546 l 754 506 l 682 506 m 222 506 l 206 376 l 404 375 l 604 376 l 621 506 l 222 506 z "},"Ĩ":{"ha":343,"x_min":85,"x_max":449,"o":"m 167 0 l 99 0 l 136 269 l 210 888 l 278 888 l 199 274 l 167 0 m 449 1119 l 378 1039 l 368 1036 q 267 1064 342 1039 q 181 1088 199 1088 q 161 1078 171 1088 q 138 1053 151 1069 q 114 1028 124 1038 l 107 1028 l 85 1053 l 85 1061 l 154 1140 l 165 1144 q 263 1117 192 1142 q 353 1093 336 1093 q 400 1131 365 1093 l 419 1151 l 426 1151 l 449 1126 l 449 1119 z "},"ĩ":{"ha":338,"x_min":57,"x_max":421,"o":"m 160 0 l 96 0 l 125 208 l 182 686 l 246 686 l 185 214 l 160 0 m 421 918 l 350 838 l 340 835 q 239 863 314 838 q 153 886 171 886 q 133 877 143 886 q 110 852 124 868 q 86 826 96 836 l 79 826 l 57 851 l 57 860 l 126 939 l 138 943 q 235 915 164 940 q 325 892 308 892 q 372 929 338 892 l 392 950 l 399 950 l 421 925 l 421 918 z "},"Ī":{"ha":343,"x_min":99,"x_max":418,"o":"m 167 0 l 99 0 l 136 269 l 210 888 l 278 888 l 199 274 l 167 0 m 414 1067 l 121 1067 l 114 1074 l 119 1117 l 413 1117 l 418 1111 l 414 1067 z "},"ī":{"ha":338,"x_min":86,"x_max":390,"o":"m 160 0 l 96 0 l 125 208 l 182 686 l 246 686 l 185 214 l 160 0 m 386 865 l 93 865 l 86 872 l 92 915 l 385 915 l 390 910 l 386 865 z "},"Ĭ":{"ha":343,"x_min":99,"x_max":422,"o":"m 167 0 l 99 0 l 136 269 l 210 888 l 278 888 l 199 274 l 167 0 m 422 1122 q 257 1010 372 1010 q 158 1039 197 1010 q 110 1122 119 1068 l 136 1149 l 149 1149 q 258 1061 164 1061 q 390 1149 351 1061 l 401 1149 l 422 1122 z "},"ĭ":{"ha":338,"x_min":81,"x_max":394,"o":"m 160 0 l 96 0 l 125 208 l 182 686 l 246 686 l 185 214 l 160 0 m 394 935 q 222 782 346 782 q 121 820 154 782 q 81 935 88 858 l 108 964 l 119 964 q 225 835 125 835 q 361 964 325 835 l 374 964 l 394 935 z "},"Į":{"ha":343,"x_min":-22,"x_max":276,"o":"m 197 274 l 165 0 l 147 0 q 53 -123 79 -83 q 26 -186 26 -162 q 64 -224 26 -224 q 138 -169 106 -224 l 142 -169 l 158 -207 q 54 -274 111 -274 q -1 -251 19 -274 q -22 -196 -22 -229 q 3 -124 -22 -164 q 99 4 28 -83 l 136 269 l 210 888 l 276 888 l 197 274 z "},"į":{"ha":338,"x_min":-24,"x_max":246,"o":"m 185 214 l 158 0 l 146 0 q 51 -123 78 -83 q 25 -186 25 -162 q 63 -224 25 -224 q 136 -169 104 -224 l 140 -169 l 157 -207 q 53 -274 110 -274 q -3 -251 18 -274 q -24 -196 -24 -229 q 1 -123 -24 -164 q 96 3 26 -82 l 125 208 l 182 686 l 246 686 l 185 214 z "},"İ":{"ha":343,"x_min":99,"x_max":313,"o":"m 167 0 l 99 0 l 136 269 l 210 888 l 278 888 l 199 274 l 167 0 m 269 1153 q 313 1108 313 1153 q 301 1075 313 1088 q 268 1063 289 1063 q 224 1107 224 1063 q 236 1140 224 1128 q 269 1153 249 1153 z "},"ı":{"ha":338,"x_min":96,"x_max":246,"o":"m 160 0 l 96 0 l 125 208 l 182 686 l 246 686 l 185 214 l 160 0 z "},"Ĳ":{"ha":731,"x_min":99,"x_max":658,"o":"m 167 0 l 99 0 l 136 269 l 210 888 l 278 888 l 199 274 l 167 0 m 581 294 l 565 161 q 499 -8 553 60 q 326 -139 444 -75 l 303 -101 l 303 -90 q 448 22 401 -36 q 504 163 494 81 l 519 286 l 583 831 l 415 829 l 407 838 l 418 888 l 658 888 l 581 294 z "},"ĳ":{"ha":718,"x_min":96,"x_max":613,"o":"m 160 0 l 96 0 l 125 208 l 182 686 l 246 686 l 185 214 l 160 0 m 554 228 l 542 126 q 492 -7 532 46 q 364 -108 453 -60 l 340 -71 l 342 -62 q 442 23 410 -21 q 482 129 475 67 l 493 219 l 543 635 l 407 635 l 401 640 l 413 686 l 613 686 l 554 228 z "},"Ĵ":{"ha":388,"x_min":-40,"x_max":397,"o":"m 238 294 l 222 161 q 156 -8 210 60 q -17 -139 101 -75 l -40 -101 l -40 -90 q 105 22 58 -36 q 161 163 151 81 l 176 286 l 240 831 l 72 829 l 64 838 l 75 888 l 315 888 l 238 294 m 72 1053 q 233 1168 150 1101 l 260 1168 q 397 1053 319 1113 l 378 1021 l 368 1021 q 243 1115 304 1065 q 94 1021 176 1069 l 85 1021 l 72 1053 z "},"ĵ":{"ha":381,"x_min":3,"x_max":368,"o":"m 217 228 l 204 126 q 155 -7 194 46 q 26 -108 115 -60 l 3 -71 l 4 -62 q 105 23 72 -21 q 144 129 138 67 l 156 219 l 206 635 l 69 635 l 64 640 l 75 686 l 275 686 l 217 228 m 33 800 q 208 981 104 867 l 236 981 q 368 800 300 883 l 344 771 l 335 771 q 217 925 275 840 q 60 771 125 829 l 50 771 l 33 800 z "},"Ķ":{"ha":697,"x_min":99,"x_max":743,"o":"m 165 0 l 99 0 l 136 269 l 211 888 l 278 888 l 199 274 l 165 0 m 326 471 q 654 15 472 239 l 653 6 q 592 -11 631 -3 l 583 -7 q 250 469 394 236 l 251 475 l 597 817 l 661 888 l 743 888 l 326 471 m 364 -87 q 417 -164 417 -118 q 311 -314 417 -237 l 288 -292 l 289 -285 q 361 -174 361 -229 q 321 -119 361 -144 l 321 -112 q 364 -87 340 -97 z "},"ķ":{"ha":632,"x_min":96,"x_max":635,"o":"m 296 365 q 569 15 421 181 l 565 4 q 506 -10 544 -4 l 496 -6 q 224 361 332 197 l 224 367 l 504 631 l 558 686 l 635 688 l 296 365 m 160 0 l 96 0 l 125 208 l 182 686 l 246 686 l 185 214 l 160 0 m 289 -87 q 342 -164 342 -118 q 236 -314 342 -237 l 213 -292 l 214 -285 q 286 -174 286 -229 q 246 -119 286 -144 l 246 -112 q 289 -87 265 -97 z "},"ĸ":{"ha":632,"x_min":96,"x_max":635,"o":"m 296 365 q 569 15 421 181 l 565 4 q 506 -10 544 -4 l 496 -6 q 224 361 332 197 l 224 367 l 504 631 l 558 686 l 635 688 l 296 365 m 160 0 l 96 0 l 125 208 l 182 686 l 246 686 l 185 214 l 160 0 z "},"Ĺ":{"ha":538,"x_min":97,"x_max":501,"o":"m 489 0 l 97 0 l 135 269 l 208 888 l 275 888 l 196 274 l 171 58 l 497 58 l 501 51 l 489 0 m 425 1138 l 422 1128 q 167 1004 311 1071 l 157 1008 l 142 1043 q 397 1179 260 1099 l 407 1176 l 425 1138 z "},"ĺ":{"ha":497,"x_min":94,"x_max":436,"o":"m 424 0 l 94 0 l 124 208 l 182 686 l 244 686 l 183 214 l 164 56 l 432 56 l 436 49 l 424 0 m 367 965 l 364 957 q 147 774 283 885 l 138 775 l 115 806 q 331 1001 225 897 l 339 1000 l 367 965 z "},"Ļ":{"ha":538,"x_min":97,"x_max":501,"o":"m 489 0 l 97 0 l 135 269 l 208 888 l 275 888 l 196 274 l 171 58 l 497 58 l 501 51 l 489 0 m 265 -87 q 318 -164 318 -118 q 213 -314 318 -237 l 189 -292 l 190 -285 q 263 -174 263 -229 q 222 -119 263 -144 l 222 -112 q 265 -87 242 -97 z "},"ļ":{"ha":497,"x_min":94,"x_max":436,"o":"m 424 0 l 94 0 l 124 208 l 182 686 l 244 686 l 183 214 l 164 56 l 432 56 l 436 49 l 424 0 m 260 -87 q 313 -164 313 -118 q 207 -314 313 -237 l 183 -292 l 185 -285 q 257 -174 257 -229 q 217 -119 257 -144 l 217 -112 q 260 -87 236 -97 z "},"Ľ":{"ha":551,"x_min":97,"x_max":560,"o":"m 501 51 l 489 0 l 97 0 l 135 269 l 208 888 l 276 888 l 197 274 l 171 58 l 497 58 l 501 51 m 510 579 l 471 574 l 465 581 l 504 801 l 556 806 l 560 797 l 510 579 z "},"ľ":{"ha":510,"x_min":96,"x_max":488,"o":"m 438 49 l 425 0 l 96 0 l 124 208 l 182 686 l 246 686 l 183 214 l 165 56 l 433 56 l 438 49 m 438 426 l 399 422 l 393 429 l 432 649 l 482 653 l 488 646 l 438 426 z "},"Ŀ":{"ha":538,"x_min":97,"x_max":501,"o":"m 489 0 l 97 0 l 135 269 l 208 888 l 275 888 l 196 274 l 171 58 l 497 58 l 501 51 l 489 0 m 438 563 q 469 550 457 563 q 481 518 481 538 q 469 485 481 497 q 436 472 457 472 q 392 517 392 472 q 404 549 392 536 q 438 563 417 563 z "},"ŀ":{"ha":511,"x_min":96,"x_max":438,"o":"m 425 0 l 96 0 l 124 208 l 182 686 l 246 686 l 183 214 l 165 56 l 433 56 l 438 49 l 425 0 m 371 339 q 326 383 326 339 q 339 416 326 403 q 372 429 351 429 q 403 417 392 429 q 415 385 415 404 q 403 351 415 364 q 371 339 392 339 z "},"Ł":{"ha":551,"x_min":35,"x_max":514,"o":"m 500 0 l 108 0 l 146 269 l 165 433 l 51 374 l 43 379 l 35 422 l 172 494 l 219 888 l 288 888 l 242 531 l 443 636 l 451 632 l 461 590 l 233 469 l 208 274 l 182 58 l 508 58 l 514 51 l 500 0 z "},"ł":{"ha":506,"x_min":28,"x_max":438,"o":"m 425 0 l 96 0 l 124 208 l 139 329 l 38 283 l 29 289 l 28 328 l 144 381 l 182 686 l 246 686 l 210 410 l 392 492 l 399 489 l 399 449 l 203 358 l 183 214 l 165 56 l 433 56 l 438 49 l 425 0 z "},"Ń":{"ha":899,"x_min":99,"x_max":833,"o":"m 719 0 l 651 0 l 267 774 l 258 774 l 196 285 l 163 0 l 99 0 l 136 264 l 213 888 l 281 888 l 665 114 l 672 114 l 769 883 l 833 889 l 750 253 l 719 0 m 701 1138 l 699 1128 q 443 1004 588 1071 l 433 1008 l 418 1043 q 674 1179 536 1099 l 683 1176 l 701 1138 z "},"ń":{"ha":794,"x_min":96,"x_max":706,"o":"m 617 0 l 550 0 l 232 581 l 228 581 l 181 222 l 154 0 l 96 0 l 124 203 l 183 686 l 249 686 l 568 106 l 575 106 l 646 685 l 706 689 l 640 199 l 617 0 m 594 965 l 592 957 q 375 774 511 885 l 365 775 l 343 806 q 558 1001 453 897 l 567 1000 l 594 965 z "},"Ņ":{"ha":899,"x_min":99,"x_max":833,"o":"m 719 0 l 651 0 l 267 774 l 258 774 l 196 285 l 163 0 l 99 0 l 136 264 l 213 888 l 281 888 l 665 114 l 672 114 l 769 883 l 833 889 l 750 253 l 719 0 m 399 -87 q 451 -164 451 -118 q 346 -314 451 -237 l 322 -292 l 324 -285 q 396 -174 396 -229 q 356 -119 396 -144 l 356 -112 q 399 -87 375 -97 z "},"ņ":{"ha":794,"x_min":96,"x_max":706,"o":"m 617 0 l 550 0 l 232 581 l 228 581 l 181 222 l 154 0 l 96 0 l 124 203 l 183 686 l 249 686 l 568 106 l 575 106 l 646 685 l 706 689 l 640 199 l 617 0 m 343 -87 q 396 -164 396 -118 q 290 -314 396 -237 l 267 -292 l 268 -285 q 340 -174 340 -229 q 300 -119 340 -144 l 300 -112 q 343 -87 319 -97 z "},"Ň":{"ha":899,"x_min":99,"x_max":833,"o":"m 719 0 l 651 0 l 267 774 l 258 774 l 196 285 l 163 0 l 99 0 l 136 264 l 213 888 l 281 888 l 665 114 l 672 114 l 769 883 l 833 889 l 750 253 l 719 0 m 706 1125 q 546 1010 633 1081 l 519 1010 q 382 1125 447 1075 l 401 1157 l 410 1157 q 535 1063 474 1113 q 683 1157 601 1108 l 693 1157 l 706 1125 z "},"ň":{"ha":794,"x_min":96,"x_max":706,"o":"m 617 0 l 550 0 l 232 581 l 228 581 l 181 222 l 154 0 l 96 0 l 124 203 l 183 686 l 249 686 l 568 106 l 575 106 l 646 685 l 706 689 l 640 199 l 617 0 m 632 958 q 460 778 565 894 l 431 778 q 296 958 364 878 l 321 988 l 331 988 q 449 833 397 908 q 604 988 511 901 l 614 988 l 632 958 z "},"Ŋ":{"ha":910,"x_min":99,"x_max":838,"o":"m 732 65 q 668 -89 721 -26 q 499 -211 615 -151 l 475 -174 l 476 -162 q 594 -81 553 -119 q 654 4 636 -43 l 263 772 l 256 772 l 196 285 l 164 0 l 99 0 l 135 264 l 210 888 l 279 888 l 671 115 l 678 115 l 772 883 l 838 889 l 754 253 l 732 65 z "},"ŋ":{"ha":794,"x_min":96,"x_max":706,"o":"m 622 50 q 579 -72 613 -24 q 471 -167 546 -121 l 451 -137 l 453 -128 q 553 1 533 -72 l 233 581 l 228 581 l 182 222 l 156 0 l 96 0 l 125 203 l 183 686 l 250 686 l 568 111 l 575 111 l 646 685 l 706 689 l 640 199 l 622 50 z "},"Ō":{"ha":840,"x_min":71,"x_max":804,"o":"m 497 896 q 724 803 644 896 q 804 543 804 711 q 754 249 804 374 q 608 58 704 125 q 376 -8 511 -8 q 151 86 231 -8 q 71 353 71 181 q 121 643 71 521 q 267 831 171 765 q 497 896 363 896 m 490 838 q 230 712 319 838 q 140 358 140 586 q 202 129 140 208 q 382 50 264 50 q 644 177 553 50 q 735 533 735 304 q 673 760 735 683 q 490 838 611 838 m 715 1067 l 319 1067 l 314 1074 l 318 1117 l 714 1117 l 719 1111 l 715 1067 z "},"ō":{"ha":744,"x_min":71,"x_max":683,"o":"m 424 693 q 616 620 549 693 q 683 408 683 547 q 642 190 683 283 q 520 44 600 96 q 331 -7 440 -7 q 138 67 206 -7 q 71 283 71 142 q 164 583 71 474 q 424 693 257 693 m 415 638 q 209 547 281 638 q 138 289 138 457 q 335 49 138 49 q 544 140 471 49 q 617 400 617 232 q 415 638 617 638 m 640 865 l 244 865 l 239 872 l 243 915 l 639 915 l 644 910 l 640 865 z "},"Ŏ":{"ha":840,"x_min":71,"x_max":804,"o":"m 497 896 q 724 803 644 896 q 804 543 804 711 q 754 249 804 374 q 608 58 704 125 q 376 -8 511 -8 q 151 86 231 -8 q 71 353 71 181 q 121 643 71 521 q 267 831 171 765 q 497 896 363 896 m 490 838 q 230 712 319 838 q 140 358 140 586 q 202 129 140 208 q 382 50 264 50 q 644 177 553 50 q 735 533 735 304 q 673 760 735 683 q 490 838 611 838 m 671 1122 q 506 1010 621 1010 q 407 1039 446 1010 q 358 1122 368 1068 l 385 1149 l 397 1149 q 507 1061 413 1061 q 639 1149 600 1061 l 650 1149 l 671 1122 z "},"ŏ":{"ha":744,"x_min":71,"x_max":683,"o":"m 424 693 q 616 620 549 693 q 683 408 683 547 q 642 190 683 283 q 520 44 600 96 q 331 -7 440 -7 q 138 67 206 -7 q 71 283 71 142 q 164 583 71 474 q 424 693 257 693 m 415 638 q 209 547 281 638 q 138 289 138 457 q 335 49 138 49 q 544 140 471 49 q 617 400 617 232 q 415 638 617 638 m 596 935 q 424 782 547 782 q 322 820 356 782 q 282 935 289 858 l 310 964 l 321 964 q 426 835 326 835 q 563 964 526 835 l 575 964 l 596 935 z "},"Ő":{"ha":840,"x_min":71,"x_max":804,"o":"m 497 896 q 724 803 644 896 q 804 543 804 711 q 754 249 804 374 q 608 58 704 125 q 376 -8 511 -8 q 151 86 231 -8 q 71 353 71 181 q 121 643 71 521 q 267 831 171 765 q 497 896 363 896 m 490 838 q 230 712 319 838 q 140 358 140 586 q 202 129 140 208 q 382 50 264 50 q 644 177 553 50 q 735 533 735 304 q 673 760 735 683 q 490 838 611 838 m 324 1025 q 479 1183 429 1128 l 489 1182 l 519 1158 l 518 1149 q 358 1000 451 1083 l 350 1000 l 324 1025 m 513 1025 q 668 1183 618 1128 l 676 1182 l 708 1158 l 707 1149 q 589 1039 669 1111 l 547 1000 l 539 1000 l 513 1025 z "},"ő":{"ha":744,"x_min":71,"x_max":694,"o":"m 424 693 q 616 620 549 693 q 683 408 683 547 q 642 190 683 283 q 520 44 600 96 q 331 -7 440 -7 q 138 67 206 -7 q 71 283 71 142 q 164 583 71 474 q 424 693 257 693 m 415 638 q 209 547 281 638 q 138 289 138 457 q 335 49 138 49 q 544 140 471 49 q 617 400 617 232 q 415 638 617 638 m 271 799 q 465 1000 365 892 l 475 1000 l 506 975 l 506 967 q 306 774 414 874 l 296 774 l 271 799 m 458 799 q 654 1000 567 904 l 663 1000 l 694 975 l 693 967 q 493 774 601 874 l 483 774 l 458 799 z "},"Œ":{"ha":1113,"x_min":71,"x_max":1146,"o":"m 549 904 q 654 896 585 904 q 757 888 721 888 l 1140 888 l 1146 879 l 1132 826 l 949 829 l 761 829 l 718 486 l 871 485 l 1022 488 l 1026 479 l 1013 428 l 858 429 l 708 428 l 689 265 l 664 58 l 835 57 l 1039 61 l 1044 53 l 1031 0 l 646 0 q 526 -8 607 0 q 414 -17 449 -17 q 160 83 250 -17 q 71 361 71 183 q 128 649 71 526 q 293 838 185 772 q 549 904 401 904 m 536 846 q 243 719 347 846 q 139 367 139 592 q 213 126 139 210 q 431 42 286 42 q 564 56 506 42 q 595 69 586 61 q 607 96 604 76 l 688 781 q 689 807 689 792 q 676 829 689 825 q 536 846 614 846 z "},"œ":{"ha":972,"x_min":72,"x_max":967,"o":"m 458 699 q 551 692 500 699 q 642 686 613 686 l 963 686 l 967 679 l 954 629 l 800 633 l 646 633 l 614 381 l 740 381 l 865 382 l 869 375 l 857 325 l 729 326 l 607 326 l 593 207 l 572 53 l 717 53 l 885 56 l 888 50 l 876 0 l 556 0 q 461 -7 513 0 q 365 -12 397 -12 q 149 66 226 -12 q 72 282 72 144 q 174 588 72 476 q 458 699 275 699 m 453 643 q 218 551 299 643 q 138 288 138 460 q 374 43 138 43 q 486 54 431 43 q 508 65 503 58 q 517 88 514 72 l 576 593 q 578 611 578 600 q 567 629 578 628 q 453 643 483 643 z "},"Ŕ":{"ha":711,"x_min":99,"x_max":653,"o":"m 653 678 q 594 485 653 567 q 432 364 536 403 q 617 15 517 179 l 614 7 q 556 -11 593 -4 l 546 -6 q 372 349 442 182 l 208 349 l 199 274 l 167 0 l 99 0 l 136 269 l 211 888 l 428 889 q 594 834 536 889 q 653 678 653 779 m 388 406 q 533 500 482 433 q 583 668 583 567 q 418 832 583 824 l 271 829 l 215 408 l 388 406 m 579 1167 l 576 1158 q 360 975 496 1086 l 350 976 l 328 1007 q 543 1203 438 1099 l 551 1201 l 579 1167 z "},"ŕ":{"ha":644,"x_min":97,"x_max":561,"o":"m 561 519 q 515 374 561 435 q 383 282 468 313 q 538 15 451 144 l 536 6 q 479 -8 510 -4 l 467 -1 q 326 267 392 128 l 192 267 l 185 214 l 160 0 l 97 0 l 125 208 l 183 686 l 369 688 q 510 643 460 688 q 561 519 561 599 m 338 319 q 453 388 413 339 q 494 511 494 438 q 358 636 494 628 l 240 633 l 199 322 l 338 319 m 517 965 l 514 957 q 297 774 433 885 l 288 775 l 265 806 q 481 1001 375 897 l 489 1000 l 517 965 z "},"Ŗ":{"ha":711,"x_min":99,"x_max":653,"o":"m 653 678 q 594 485 653 567 q 432 364 536 403 q 617 15 517 179 l 614 7 q 556 -11 593 -4 l 546 -6 q 372 349 442 182 l 208 349 l 199 274 l 167 0 l 99 0 l 136 269 l 211 888 l 428 889 q 594 834 536 889 q 653 678 653 779 m 388 406 q 533 500 482 433 q 583 668 583 567 q 418 832 583 824 l 271 829 l 215 408 l 388 406 m 303 -87 q 356 -164 356 -118 q 250 -314 356 -237 l 226 -292 l 228 -285 q 300 -174 300 -229 q 260 -119 300 -144 l 260 -112 q 303 -87 279 -97 z "},"ŗ":{"ha":644,"x_min":97,"x_max":561,"o":"m 561 519 q 515 374 561 435 q 383 282 468 313 q 538 15 451 144 l 536 6 q 479 -8 510 -4 l 467 -1 q 326 267 392 128 l 192 267 l 185 214 l 160 0 l 97 0 l 125 208 l 183 686 l 369 688 q 510 643 460 688 q 561 519 561 599 m 338 319 q 453 388 413 339 q 494 511 494 438 q 358 636 494 628 l 240 633 l 199 322 l 338 319 m 290 -87 q 343 -164 343 -118 q 238 -314 343 -237 l 214 -292 l 215 -285 q 288 -174 288 -229 q 247 -119 288 -144 l 247 -112 q 290 -87 267 -97 z "},"Ř":{"ha":711,"x_min":99,"x_max":653,"o":"m 653 678 q 594 485 653 567 q 432 364 536 403 q 617 15 517 179 l 614 7 q 556 -11 593 -4 l 546 -6 q 372 349 442 182 l 208 349 l 199 274 l 167 0 l 99 0 l 136 269 l 211 888 l 428 889 q 594 834 536 889 q 653 678 653 779 m 388 406 q 533 500 482 433 q 583 668 583 567 q 418 832 583 824 l 271 829 l 215 408 l 388 406 m 618 1160 q 446 979 551 1096 l 417 979 q 282 1160 350 1079 l 307 1189 l 317 1189 q 435 1035 383 1110 q 590 1189 497 1103 l 600 1189 l 618 1160 z "},"ř":{"ha":644,"x_min":97,"x_max":561,"o":"m 561 519 q 515 374 561 435 q 383 282 468 313 q 538 15 451 144 l 536 6 q 479 -8 510 -4 l 467 -1 q 326 267 392 128 l 192 267 l 185 214 l 160 0 l 97 0 l 125 208 l 183 686 l 369 688 q 510 643 460 688 q 561 519 561 599 m 338 319 q 453 388 413 339 q 494 511 494 438 q 358 636 494 628 l 240 633 l 199 322 l 338 319 m 556 958 q 383 778 489 894 l 354 778 q 219 958 288 878 l 244 988 l 254 988 q 372 833 321 908 q 528 988 435 901 l 538 988 l 556 958 z "},"Ś":{"ha":607,"x_min":32,"x_max":582,"o":"m 404 893 q 582 851 499 893 l 563 789 l 549 785 q 394 836 481 836 q 289 811 335 836 q 217 746 243 786 q 192 663 192 706 q 213 591 192 622 q 263 537 233 560 q 347 481 293 514 q 446 415 410 443 q 508 342 482 386 q 535 240 535 299 q 497 115 535 172 q 392 26 458 58 q 244 -7 325 -7 q 132 9 189 -7 q 32 56 75 25 l 47 124 l 60 128 q 149 69 97 89 q 251 50 200 50 q 362 75 313 50 q 439 141 411 100 q 467 229 467 182 q 446 306 467 272 q 394 363 425 339 q 308 419 363 386 q 213 484 249 456 q 151 555 176 513 q 126 656 126 597 q 163 776 126 721 q 263 862 199 831 q 404 893 326 893 m 529 1167 l 526 1158 q 310 975 446 1086 l 300 976 l 278 1007 q 493 1203 388 1099 l 501 1201 l 529 1167 z "},"ś":{"ha":553,"x_min":47,"x_max":493,"o":"m 343 692 q 493 660 419 692 l 475 597 l 461 594 q 336 639 403 639 q 253 619 289 639 q 197 569 217 600 q 178 506 178 539 q 209 435 178 463 q 304 378 240 408 q 386 332 354 353 q 440 278 418 311 q 463 197 463 244 q 433 98 463 144 q 350 23 404 51 q 226 -6 296 -6 q 132 7 181 -6 q 47 42 83 19 l 60 108 l 69 113 q 147 64 103 81 q 232 47 190 47 q 317 67 279 47 q 377 119 356 88 q 399 188 399 151 q 367 259 399 232 q 271 318 336 286 q 189 364 219 343 q 136 417 158 385 q 114 497 114 450 q 142 593 114 549 q 224 665 171 638 q 343 692 276 692 m 472 965 l 469 957 q 253 774 389 885 l 243 775 l 221 806 q 436 1001 331 897 l 444 1000 l 472 965 z "},"Ŝ":{"ha":607,"x_min":32,"x_max":582,"o":"m 404 893 q 582 851 499 893 l 563 789 l 549 785 q 394 836 481 836 q 289 811 335 836 q 217 746 243 786 q 192 663 192 706 q 213 591 192 622 q 263 537 233 560 q 347 481 293 514 q 446 415 410 443 q 508 342 482 386 q 535 240 535 299 q 497 115 535 172 q 392 26 458 58 q 244 -7 325 -7 q 132 9 189 -7 q 32 56 75 25 l 47 124 l 60 128 q 149 69 97 89 q 251 50 200 50 q 362 75 313 50 q 439 141 411 100 q 467 229 467 182 q 446 306 467 272 q 394 363 425 339 q 308 419 363 386 q 213 484 249 456 q 151 555 176 513 q 126 656 126 597 q 163 776 126 721 q 263 862 199 831 q 404 893 326 893 m 231 1001 q 406 1182 301 1068 l 433 1182 q 565 1001 497 1085 l 542 972 l 532 972 q 414 1126 472 1042 q 257 972 322 1031 l 247 972 l 231 1001 z "},"ŝ":{"ha":553,"x_min":47,"x_max":508,"o":"m 343 692 q 493 660 419 692 l 475 597 l 461 594 q 336 639 403 639 q 253 619 289 639 q 197 569 217 600 q 178 506 178 539 q 209 435 178 463 q 304 378 240 408 q 386 332 354 353 q 440 278 418 311 q 463 197 463 244 q 433 98 463 144 q 350 23 404 51 q 226 -6 296 -6 q 132 7 181 -6 q 47 42 83 19 l 60 108 l 69 113 q 147 64 103 81 q 232 47 190 47 q 317 67 279 47 q 377 119 356 88 q 399 188 399 151 q 367 259 399 232 q 271 318 336 286 q 189 364 219 343 q 136 417 158 385 q 114 497 114 450 q 142 593 114 549 q 224 665 171 638 q 343 692 276 692 m 174 800 q 349 981 244 867 l 376 981 q 508 800 440 883 l 485 771 l 475 771 q 357 925 415 840 q 200 771 265 829 l 190 771 l 174 800 z "},"Ş":{"ha":607,"x_min":32,"x_max":582,"o":"m 404 893 q 582 851 499 893 l 563 789 l 549 785 q 394 836 481 836 q 289 811 335 836 q 217 746 243 786 q 192 663 192 706 q 213 591 192 622 q 263 537 233 560 q 346 481 292 514 q 444 415 407 443 q 508 342 482 386 q 533 240 533 299 q 499 122 533 176 q 406 34 465 68 q 272 -6 346 0 l 251 -74 l 296 -101 q 346 -175 346 -132 q 318 -234 346 -211 q 249 -257 290 -257 q 157 -212 193 -257 l 167 -174 l 174 -172 q 246 -215 207 -215 q 296 -174 296 -215 q 265 -133 296 -153 l 201 -93 l 226 -7 q 32 56 108 0 l 47 124 l 58 128 q 251 50 136 50 q 362 75 313 50 q 439 141 411 100 q 467 229 467 182 q 445 306 467 272 q 393 363 424 339 q 308 419 363 386 q 213 484 249 456 q 151 555 176 513 q 125 656 125 597 q 162 776 125 721 q 263 862 199 831 q 404 893 326 893 z "},"ş":{"ha":553,"x_min":47,"x_max":493,"o":"m 336 639 q 253 619 289 639 q 197 569 217 600 q 178 506 178 539 q 209 435 178 463 q 304 378 240 408 q 386 332 354 353 q 440 278 418 311 q 463 197 463 244 q 408 66 463 124 q 265 -3 354 8 l 243 -74 l 288 -101 q 338 -175 338 -132 q 310 -234 338 -211 q 240 -257 282 -257 q 149 -212 185 -257 l 158 -174 l 165 -172 q 238 -215 199 -215 q 288 -174 288 -215 q 257 -133 288 -153 l 193 -93 l 218 -6 q 47 42 117 -3 l 60 108 l 69 113 q 147 64 103 81 q 232 47 190 47 q 317 67 279 47 q 377 119 356 88 q 399 188 399 151 q 367 259 399 232 q 271 318 336 286 q 189 364 219 343 q 136 417 158 385 q 114 497 114 450 q 142 593 114 549 q 224 665 171 638 q 343 692 276 692 q 493 660 419 692 l 475 597 l 461 594 q 336 639 403 639 z "},"Š":{"ha":607,"x_min":32,"x_max":582,"o":"m 404 893 q 582 851 499 893 l 563 789 l 549 785 q 394 836 481 836 q 289 811 335 836 q 217 746 243 786 q 192 663 192 706 q 213 591 192 622 q 263 537 233 560 q 347 481 293 514 q 446 415 410 443 q 508 342 482 386 q 535 240 535 299 q 497 115 535 172 q 392 26 458 58 q 244 -7 325 -7 q 132 9 189 -7 q 32 56 75 25 l 47 124 l 60 128 q 149 69 97 89 q 251 50 200 50 q 362 75 313 50 q 439 141 411 100 q 467 229 467 182 q 446 306 467 272 q 394 363 425 339 q 308 419 363 386 q 213 484 249 456 q 151 555 176 513 q 126 656 126 597 q 163 776 126 721 q 263 862 199 831 q 404 893 326 893 m 568 1160 q 396 979 501 1096 l 367 979 q 232 1160 300 1079 l 257 1189 l 267 1189 q 385 1035 333 1110 q 540 1189 447 1103 l 550 1189 l 568 1160 z "},"š":{"ha":553,"x_min":47,"x_max":511,"o":"m 343 692 q 493 660 419 692 l 475 597 l 461 594 q 336 639 403 639 q 253 619 289 639 q 197 569 217 600 q 178 506 178 539 q 209 435 178 463 q 304 378 240 408 q 386 332 354 353 q 440 278 418 311 q 463 197 463 244 q 433 98 463 144 q 350 23 404 51 q 226 -6 296 -6 q 132 7 181 -6 q 47 42 83 19 l 60 108 l 69 113 q 147 64 103 81 q 232 47 190 47 q 317 67 279 47 q 377 119 356 88 q 399 188 399 151 q 367 259 399 232 q 271 318 336 286 q 189 364 219 343 q 136 417 158 385 q 114 497 114 450 q 142 593 114 549 q 224 665 171 638 q 343 692 276 692 m 511 958 q 339 778 444 894 l 310 778 q 175 958 243 878 l 200 988 l 210 988 q 328 833 276 908 q 483 988 390 901 l 493 988 l 511 958 z "},"Ţ":{"ha":638,"x_min":99,"x_max":674,"o":"m 660 828 l 522 831 l 418 831 l 346 274 l 314 0 l 300 0 l 279 -74 l 319 -100 q 365 -172 365 -132 q 340 -231 365 -208 q 276 -253 314 -253 q 192 -208 231 -253 l 201 -172 l 207 -171 q 237 -203 222 -193 q 274 -214 251 -214 q 319 -172 319 -214 q 292 -131 319 -147 l 233 -92 l 260 0 l 247 0 l 285 269 l 351 831 l 247 831 l 104 828 l 99 835 l 113 888 l 669 888 l 674 879 l 660 828 z "},"ţ":{"ha":576,"x_min":89,"x_max":572,"o":"m 560 626 l 443 632 l 360 632 l 306 214 l 281 0 l 269 0 l 240 -75 l 278 -101 q 317 -167 317 -131 q 286 -231 317 -206 q 214 -256 256 -256 q 135 -211 160 -256 l 149 -174 l 153 -174 q 217 -217 179 -217 q 256 -204 240 -217 q 271 -169 271 -192 q 246 -132 271 -150 l 190 -93 l 229 0 l 218 0 l 246 208 l 297 632 l 214 632 l 94 626 l 89 635 l 101 686 l 569 686 l 572 679 l 560 626 z "},"Ť":{"ha":638,"x_min":99,"x_max":675,"o":"m 661 828 l 522 831 l 418 831 l 344 274 l 314 0 l 247 0 l 283 269 l 350 831 l 249 831 l 104 828 l 99 835 l 114 888 l 669 888 l 675 879 l 661 828 m 582 1160 q 410 979 515 1096 l 381 979 q 246 1160 314 1079 l 271 1189 l 281 1189 q 399 1035 347 1110 q 554 1189 461 1103 l 564 1189 l 582 1160 z "},"ť":{"ha":578,"x_min":90,"x_max":574,"o":"m 561 626 l 444 632 l 361 632 l 307 214 l 282 0 l 219 0 l 247 208 l 299 632 l 215 632 l 96 626 l 90 635 l 103 686 l 571 686 l 574 679 l 561 626 m 526 958 q 354 778 460 894 l 325 778 q 190 958 258 878 l 215 988 l 225 988 q 343 833 292 908 q 499 988 406 901 l 508 988 l 526 958 z "},"Ŧ":{"ha":638,"x_min":99,"x_max":674,"o":"m 660 828 l 522 831 l 418 831 l 374 483 l 503 483 l 510 478 l 506 436 l 367 436 l 346 274 l 314 0 l 247 0 l 285 269 l 304 436 l 176 436 l 171 442 l 175 483 l 310 483 l 351 831 l 247 831 l 104 828 l 99 835 l 113 888 l 669 888 l 674 879 l 660 828 z "},"ŧ":{"ha":576,"x_min":90,"x_max":574,"o":"m 326 358 l 453 358 l 457 353 l 449 311 l 319 311 l 307 214 l 282 0 l 219 0 l 247 208 l 260 311 l 129 311 l 125 317 l 135 358 l 265 358 l 299 632 l 214 632 l 94 626 l 90 635 l 103 686 l 569 686 l 574 679 l 561 626 l 443 632 l 361 632 l 326 358 z "},"Ũ":{"ha":819,"x_min":104,"x_max":783,"o":"m 713 326 q 608 80 696 167 q 374 -7 521 -7 q 175 59 246 -7 q 104 247 104 125 q 110 322 104 288 l 128 447 l 182 888 l 247 888 l 174 328 q 169 263 169 294 q 222 106 169 160 q 376 53 275 53 q 563 122 493 53 q 650 322 633 190 l 717 888 l 783 888 l 725 435 l 713 326 m 711 1124 l 633 1043 l 622 1039 q 513 1067 596 1042 q 406 1092 424 1092 q 357 1056 390 1092 q 332 1031 332 1031 l 324 1031 l 300 1056 l 300 1064 l 379 1143 l 389 1147 q 501 1119 419 1144 q 606 1096 585 1096 q 656 1132 619 1096 l 681 1156 l 689 1156 l 711 1131 l 711 1124 z "},"ũ":{"ha":731,"x_min":99,"x_max":667,"o":"m 608 243 q 523 59 596 124 q 328 -6 450 -6 q 158 45 218 -6 q 99 192 99 96 q 103 243 99 217 l 118 344 l 160 686 l 224 686 l 164 251 q 161 208 161 221 q 205 90 161 131 q 332 50 249 50 q 550 251 525 50 l 603 686 l 667 686 l 621 336 l 608 243 m 639 922 l 561 842 l 550 838 q 440 865 524 840 q 333 890 351 890 q 285 854 318 890 q 260 829 260 829 l 251 829 l 228 854 l 228 863 l 307 942 l 317 946 q 429 918 347 943 q 533 894 513 894 q 583 931 547 894 l 608 954 l 617 954 l 639 929 l 639 922 z "},"Ū":{"ha":819,"x_min":104,"x_max":783,"o":"m 713 326 q 608 80 696 167 q 374 -7 521 -7 q 175 59 246 -7 q 104 247 104 125 q 110 322 104 288 l 128 447 l 182 888 l 247 888 l 174 328 q 169 263 169 294 q 222 106 169 160 q 376 53 275 53 q 563 122 493 53 q 650 322 633 190 l 717 888 l 783 888 l 725 435 l 713 326 m 706 1067 l 310 1067 l 304 1074 l 308 1117 l 704 1117 l 710 1111 l 706 1067 z "},"ū":{"ha":731,"x_min":99,"x_max":667,"o":"m 608 243 q 523 59 596 124 q 328 -6 450 -6 q 158 45 218 -6 q 99 192 99 96 q 103 243 99 217 l 118 344 l 160 686 l 224 686 l 164 251 q 161 208 161 221 q 205 90 161 131 q 332 50 249 50 q 550 251 525 50 l 603 686 l 667 686 l 621 336 l 608 243 m 633 865 l 238 865 l 232 872 l 236 915 l 632 915 l 638 910 l 633 865 z "},"Ŭ":{"ha":819,"x_min":104,"x_max":783,"o":"m 713 326 q 608 80 696 167 q 374 -7 521 -7 q 175 59 246 -7 q 104 247 104 125 q 110 322 104 288 l 128 447 l 182 888 l 247 888 l 174 328 q 169 263 169 294 q 222 106 169 160 q 376 53 275 53 q 563 122 493 53 q 650 322 633 190 l 717 888 l 783 888 l 725 435 l 713 326 m 661 1136 q 489 983 613 983 q 388 1022 421 983 q 347 1136 354 1060 l 375 1165 l 386 1165 q 492 1036 392 1036 q 628 1165 592 1036 l 640 1165 l 661 1136 z "},"ŭ":{"ha":731,"x_min":99,"x_max":667,"o":"m 608 243 q 523 59 596 124 q 328 -6 450 -6 q 158 45 218 -6 q 99 192 99 96 q 103 243 99 217 l 118 344 l 160 686 l 224 686 l 164 251 q 161 208 161 221 q 205 90 161 131 q 332 50 249 50 q 550 251 525 50 l 603 686 l 667 686 l 621 336 l 608 243 m 590 935 q 418 782 542 782 q 317 820 350 782 q 276 935 283 858 l 304 964 l 315 964 q 421 835 321 835 q 557 964 521 835 l 569 964 l 590 935 z "},"Ů":{"ha":819,"x_min":104,"x_max":783,"o":"m 713 326 q 608 80 696 167 q 374 -7 521 -7 q 175 59 246 -7 q 104 247 104 125 q 110 322 104 288 l 128 447 l 182 888 l 247 888 l 174 328 q 169 263 169 294 q 222 106 169 160 q 376 53 275 53 q 563 122 493 53 q 650 322 633 190 l 717 888 l 783 888 l 725 435 l 713 326 m 507 1203 q 585 1173 557 1203 q 613 1099 613 1143 q 581 1021 613 1050 q 504 992 549 992 q 431 1020 461 992 q 400 1097 400 1049 q 429 1173 400 1143 q 507 1203 458 1203 m 506 1163 q 457 1145 475 1163 q 439 1099 439 1128 q 458 1049 439 1067 q 506 1032 476 1032 q 554 1049 535 1032 q 574 1096 574 1065 q 556 1144 574 1125 q 506 1163 539 1163 z "},"ů":{"ha":731,"x_min":99,"x_max":667,"o":"m 608 243 q 523 59 596 124 q 328 -6 450 -6 q 158 45 218 -6 q 99 192 99 96 q 103 243 99 217 l 118 344 l 160 686 l 224 686 l 164 251 q 161 208 161 221 q 205 90 161 131 q 332 50 249 50 q 550 251 525 50 l 603 686 l 667 686 l 621 336 l 608 243 m 435 1001 q 513 972 485 1001 q 540 897 540 942 q 508 819 540 849 q 432 790 476 790 q 358 819 389 790 q 328 896 328 847 q 357 972 328 942 q 435 1001 386 1001 m 433 961 q 385 944 403 961 q 367 897 367 926 q 385 848 367 865 q 433 831 404 831 q 482 847 463 831 q 501 894 501 864 q 484 942 501 924 q 433 961 467 961 z "},"Ű":{"ha":819,"x_min":104,"x_max":783,"o":"m 713 326 q 608 80 696 167 q 374 -7 521 -7 q 175 59 246 -7 q 104 247 104 125 q 110 322 104 288 l 128 447 l 182 888 l 247 888 l 174 328 q 169 263 169 294 q 222 106 169 160 q 376 53 275 53 q 563 122 493 53 q 650 322 633 190 l 717 888 l 783 888 l 725 435 l 713 326 m 314 1025 q 469 1183 419 1128 l 479 1182 l 510 1158 l 508 1149 q 349 1000 442 1083 l 340 1000 l 314 1025 m 503 1025 q 658 1183 608 1128 l 667 1182 l 699 1158 l 697 1149 q 579 1039 660 1111 l 538 1000 l 529 1000 l 503 1025 z "},"ű":{"ha":731,"x_min":99,"x_max":688,"o":"m 608 243 q 523 59 596 124 q 328 -6 450 -6 q 158 45 218 -6 q 99 192 99 96 q 103 243 99 217 l 118 344 l 160 686 l 224 686 l 164 251 q 161 208 161 221 q 205 90 161 131 q 332 50 249 50 q 550 251 525 50 l 603 686 l 667 686 l 621 336 l 608 243 m 264 799 q 458 1000 358 892 l 468 1000 l 499 975 l 499 967 q 299 774 407 874 l 289 774 l 264 799 m 451 799 q 647 1000 560 904 l 656 1000 l 688 975 l 686 967 q 486 774 594 874 l 476 774 l 451 799 z "},"Ų":{"ha":818,"x_min":104,"x_max":783,"o":"m 725 435 l 713 326 q 550 36 692 118 l 469 -96 q 444 -169 444 -137 q 458 -210 444 -194 q 497 -225 472 -225 q 549 -208 522 -225 q 597 -160 576 -190 l 603 -160 l 618 -197 q 490 -274 556 -274 q 422 -247 447 -274 q 397 -174 397 -219 q 426 -86 397 -129 l 486 8 q 374 -7 433 -7 q 175 59 246 -7 q 104 247 104 125 q 110 322 104 288 l 128 447 l 182 888 l 247 888 l 174 328 q 169 263 169 294 q 222 106 169 160 q 376 53 275 53 q 563 122 493 53 q 650 322 633 190 l 717 888 l 783 888 l 725 435 z "},"ų":{"ha":731,"x_min":99,"x_max":665,"o":"m 619 336 l 608 243 q 483 32 593 94 l 401 -92 q 375 -164 375 -135 q 391 -207 375 -190 q 435 -224 407 -224 q 539 -160 489 -224 l 544 -160 l 560 -197 q 426 -274 494 -274 q 354 -247 382 -274 q 326 -175 326 -219 q 358 -82 326 -129 l 418 6 q 326 -6 374 -6 q 158 45 218 -6 q 99 192 99 96 q 103 243 99 217 l 118 344 l 160 686 l 224 686 l 164 251 q 161 208 161 236 q 204 90 161 131 q 332 50 247 50 q 482 101 426 50 q 550 251 538 153 l 603 686 l 665 686 l 619 336 z "},"Ŵ":{"ha":1169,"x_min":101,"x_max":1226,"o":"m 732 0 l 619 565 l 613 565 l 344 0 l 274 0 l 101 888 l 169 888 l 176 815 l 319 82 l 328 82 l 600 660 l 553 888 l 622 888 l 632 811 l 775 82 l 783 82 l 1132 813 l 1160 888 l 1226 888 l 801 0 l 732 0 m 489 1053 q 650 1168 567 1101 l 676 1168 q 814 1053 736 1113 l 794 1021 l 785 1021 q 660 1115 721 1065 q 511 1021 593 1069 l 501 1021 l 489 1053 z "},"ŵ":{"ha":1019,"x_min":94,"x_max":1032,"o":"m 624 0 l 525 422 l 519 422 l 308 0 l 242 0 l 94 686 l 160 686 l 164 626 l 285 75 l 289 75 l 508 511 l 471 686 l 536 686 l 542 622 l 663 75 l 671 75 l 946 625 l 971 686 l 1032 686 l 689 0 l 624 0 m 382 800 q 557 981 453 867 l 585 981 q 717 800 649 883 l 693 771 l 683 771 q 565 925 624 840 q 408 771 474 829 l 399 771 l 382 800 z "},"Ŷ":{"ha":675,"x_min":99,"x_max":717,"o":"m 349 265 l 318 0 l 251 0 l 288 265 l 296 331 l 99 888 l 172 888 l 182 844 l 333 411 l 342 411 l 619 843 l 642 888 l 717 888 l 358 332 l 349 265 m 271 1053 q 432 1168 349 1101 l 458 1168 q 596 1053 518 1113 l 576 1021 l 567 1021 q 442 1115 503 1065 q 293 1021 375 1069 l 283 1021 l 271 1053 z "},"ŷ":{"ha":613,"x_min":92,"x_max":614,"o":"m 313 203 l 288 0 l 225 0 l 253 203 l 260 256 l 92 686 l 163 686 l 171 653 l 296 326 l 303 326 l 525 650 l 544 686 l 614 686 l 319 247 l 313 203 m 207 800 q 382 981 278 867 l 410 981 q 542 800 474 883 l 518 771 l 508 771 q 390 925 449 840 q 233 771 299 829 l 224 771 l 207 800 z "},"Ÿ":{"ha":675,"x_min":99,"x_max":717,"o":"m 349 265 l 318 0 l 251 0 l 288 265 l 296 331 l 99 888 l 172 888 l 182 844 l 333 411 l 342 411 l 619 843 l 642 888 l 717 888 l 358 332 l 349 265 m 328 1135 q 358 1123 347 1135 q 369 1092 369 1111 q 326 1047 369 1047 q 283 1090 283 1047 q 295 1122 283 1110 q 328 1135 307 1135 m 543 1133 q 574 1122 563 1133 q 585 1092 585 1111 q 573 1058 585 1071 q 542 1046 561 1046 q 499 1089 499 1046 q 543 1133 499 1133 z "},"Ź":{"ha":685,"x_min":6,"x_max":699,"o":"m 94 57 l 486 57 l 593 63 l 599 56 l 585 -1 l 461 0 l 67 0 l 6 -3 l 13 49 l 610 829 l 238 829 l 136 824 l 131 832 l 146 889 l 260 888 l 642 888 l 699 889 l 693 836 l 94 57 m 550 1138 l 547 1128 q 292 1004 436 1071 l 282 1008 l 267 1043 q 522 1179 385 1099 l 532 1176 l 550 1138 z "},"ź":{"ha":617,"x_min":19,"x_max":593,"o":"m 104 53 l 419 53 l 514 58 l 519 53 l 506 -1 l 396 0 l 75 0 l 19 -1 l 26 46 l 510 633 l 204 633 l 119 628 l 115 635 l 129 688 l 225 686 l 544 686 l 593 688 l 586 638 l 104 53 m 506 965 l 503 957 q 286 774 422 885 l 276 775 l 254 806 q 469 1001 364 897 l 478 1000 l 506 965 z "},"Ż":{"ha":685,"x_min":6,"x_max":699,"o":"m 94 57 l 486 57 l 593 63 l 599 56 l 585 -1 l 461 0 l 67 0 l 6 -3 l 13 49 l 610 829 l 238 829 l 136 824 l 131 832 l 146 889 l 260 888 l 642 888 l 699 889 l 693 836 l 94 57 m 397 1153 q 440 1108 440 1153 q 428 1075 440 1088 q 396 1063 417 1063 q 351 1107 351 1063 q 364 1140 351 1128 q 397 1153 376 1153 z "},"ż":{"ha":617,"x_min":19,"x_max":593,"o":"m 104 53 l 419 53 l 514 58 l 519 53 l 506 -1 l 396 0 l 75 0 l 19 -1 l 26 46 l 510 633 l 204 633 l 119 628 l 115 635 l 129 688 l 225 686 l 544 686 l 593 688 l 586 638 l 104 53 m 379 951 q 422 907 422 951 q 410 874 422 886 q 378 861 399 861 q 333 906 333 861 q 346 939 333 926 q 379 951 358 951 z "},"Ž":{"ha":685,"x_min":6,"x_max":699,"o":"m 94 57 l 486 57 l 593 63 l 599 56 l 585 -1 l 461 0 l 67 0 l 6 -3 l 13 49 l 610 829 l 238 829 l 136 824 l 131 832 l 146 889 l 260 888 l 642 888 l 699 889 l 693 836 l 94 57 m 556 1125 q 396 1010 483 1081 l 369 1010 q 232 1125 297 1075 l 251 1157 l 260 1157 q 385 1063 324 1113 q 533 1157 451 1108 l 543 1157 l 556 1125 z "},"ž":{"ha":617,"x_min":19,"x_max":593,"o":"m 104 53 l 419 53 l 514 58 l 519 53 l 506 -1 l 396 0 l 75 0 l 19 -1 l 26 46 l 510 633 l 204 633 l 119 628 l 115 635 l 129 688 l 225 686 l 544 686 l 593 688 l 586 638 l 104 53 m 544 958 q 372 778 478 894 l 343 778 q 208 958 276 878 l 233 988 l 243 988 q 361 833 310 908 q 517 988 424 901 l 526 988 l 544 958 z "},"ƒ":{"ha":356,"x_min":-15,"x_max":486,"o":"m 393 851 q 486 840 428 851 l 475 792 l 468 789 q 389 804 429 804 q 240 658 258 804 l 221 513 l 378 513 l 382 506 l 378 469 l 217 469 l 189 257 l 165 61 q 124 -85 156 -31 q 14 -207 93 -140 l -15 -181 l -14 -172 q 75 -65 50 -112 q 110 58 100 -18 l 133 253 l 160 469 l 71 469 l 65 476 l 69 513 l 164 513 l 182 653 q 247 800 192 749 q 393 851 303 851 z "},"Ơ":{"ha":843,"x_min":71,"x_max":893,"o":"m 843 1054 q 877 1026 861 1054 q 893 957 893 997 q 844 847 893 888 q 721 807 796 807 q 803 529 803 715 q 752 249 803 371 q 606 60 701 128 q 378 -8 510 -8 q 71 369 71 -8 q 122 644 71 525 q 268 830 172 764 q 497 896 364 896 q 647 867 574 896 q 725 849 696 849 q 803 874 769 849 q 836 944 836 899 q 804 1031 836 990 l 807 1039 q 843 1054 829 1054 m 489 838 q 231 712 322 838 q 139 375 139 586 q 199 130 139 210 q 385 50 260 50 q 574 108 494 50 q 694 272 653 167 q 735 517 735 378 q 674 759 735 681 q 489 838 613 838 z "},"ơ":{"ha":750,"x_min":71,"x_max":757,"o":"m 679 804 q 711 817 696 817 q 742 794 728 817 q 757 739 757 772 q 717 648 757 683 q 618 615 676 613 q 682 413 682 547 q 640 190 682 285 q 519 44 599 96 q 331 -7 440 -7 q 139 67 207 -7 q 71 276 71 142 q 163 583 71 472 q 424 693 256 693 q 551 671 482 693 q 614 657 596 657 q 677 676 650 657 q 704 729 704 696 q 675 797 704 764 l 679 804 m 336 47 q 544 140 472 47 q 617 407 617 233 q 414 639 617 639 q 208 547 278 639 q 138 281 138 454 q 336 47 138 47 z "},"Ư":{"ha":831,"x_min":104,"x_max":888,"o":"m 888 963 q 858 887 888 918 q 778 847 829 856 l 725 435 l 713 326 q 608 80 696 167 q 374 -7 521 -7 q 175 59 246 -7 q 104 247 104 125 q 110 322 104 288 l 128 447 l 182 888 l 247 888 l 174 328 q 169 263 169 294 q 222 106 169 160 q 376 53 275 53 q 563 122 493 53 q 650 322 633 190 l 717 888 l 744 888 q 810 906 786 888 q 833 960 833 925 q 790 1043 833 999 l 794 1053 q 828 1067 813 1067 q 853 1053 839 1067 q 878 1015 868 1039 q 888 963 888 990 z "},"ư":{"ha":743,"x_min":99,"x_max":761,"o":"m 761 756 q 733 690 761 718 q 661 651 706 661 l 619 336 l 608 243 q 522 59 596 124 q 326 -6 449 -6 q 158 45 218 -6 q 99 192 99 96 q 103 243 99 217 l 118 344 l 160 686 l 224 686 l 164 251 q 161 208 161 236 q 204 90 161 131 q 332 50 247 50 q 482 101 426 50 q 550 251 538 153 l 603 686 l 628 686 q 686 703 665 686 q 707 749 707 719 q 679 807 707 778 l 682 814 q 717 828 706 828 q 747 806 732 828 q 761 756 761 785 z "},"Ǎ":{"ha":744,"x_min":-15,"x_max":674,"o":"m 604 0 l 596 74 l 556 271 l 358 272 l 179 271 l 85 76 l 54 0 l -15 0 l 417 888 l 493 888 l 674 0 l 604 0 m 446 808 l 440 808 l 208 331 l 372 328 l 543 331 l 446 808 m 636 1125 q 476 1010 564 1081 l 450 1010 q 313 1125 378 1075 l 332 1157 l 340 1157 q 465 1063 404 1113 q 614 1157 532 1108 l 624 1157 l 636 1125 z "},"ǎ":{"ha":669,"x_min":1,"x_max":579,"o":"m 513 0 l 507 61 l 475 201 l 311 203 l 164 201 l 93 64 l 67 0 l 1 0 l 351 686 l 425 686 l 579 0 l 513 0 m 381 617 l 375 617 l 190 256 l 463 256 l 381 617 m 576 958 q 404 778 510 894 l 375 778 q 240 958 308 878 l 265 988 l 275 988 q 393 833 342 908 q 549 988 456 901 l 558 988 l 576 958 z "},"Ǐ":{"ha":343,"x_min":99,"x_max":428,"o":"m 167 0 l 99 0 l 136 269 l 210 888 l 278 888 l 199 274 l 167 0 m 428 1125 q 268 1010 356 1081 l 242 1010 q 104 1125 169 1075 l 124 1157 l 132 1157 q 257 1063 196 1113 q 406 1157 324 1108 l 415 1157 l 428 1125 z "},"ǐ":{"ha":338,"x_min":71,"x_max":407,"o":"m 160 0 l 96 0 l 125 208 l 182 686 l 246 686 l 185 214 l 160 0 m 407 958 q 235 778 340 894 l 206 778 q 71 958 139 878 l 96 988 l 106 988 q 224 833 172 908 q 379 988 286 901 l 389 988 l 407 958 z "},"Ǒ":{"ha":840,"x_min":71,"x_max":804,"o":"m 497 896 q 724 803 644 896 q 804 543 804 711 q 754 249 804 374 q 608 58 704 125 q 376 -8 511 -8 q 151 86 231 -8 q 71 353 71 181 q 121 643 71 521 q 267 831 171 765 q 497 896 363 896 m 490 838 q 230 712 319 838 q 140 358 140 586 q 202 129 140 208 q 382 50 264 50 q 644 177 553 50 q 735 533 735 304 q 673 760 735 683 q 490 838 611 838 m 676 1125 q 517 1010 604 1081 l 490 1010 q 353 1125 418 1075 l 372 1157 l 381 1157 q 506 1063 444 1113 q 654 1157 572 1108 l 664 1157 l 676 1125 z "},"ǒ":{"ha":744,"x_min":71,"x_max":683,"o":"m 424 693 q 616 620 549 693 q 683 408 683 547 q 642 190 683 283 q 520 44 600 96 q 331 -7 440 -7 q 138 67 206 -7 q 71 283 71 142 q 164 583 71 474 q 424 693 257 693 m 415 638 q 209 547 281 638 q 138 289 138 457 q 335 49 138 49 q 544 140 471 49 q 617 400 617 232 q 415 638 617 638 m 608 958 q 436 778 542 894 l 407 778 q 272 958 340 878 l 297 988 l 307 988 q 425 833 374 908 q 581 988 488 901 l 590 988 l 608 958 z "},"Ǔ":{"ha":819,"x_min":104,"x_max":783,"o":"m 713 326 q 608 80 696 167 q 374 -7 521 -7 q 175 59 246 -7 q 104 247 104 125 q 110 322 104 288 l 128 447 l 182 888 l 247 888 l 174 328 q 169 263 169 294 q 222 106 169 160 q 376 53 275 53 q 563 122 493 53 q 650 322 633 190 l 717 888 l 783 888 l 725 435 l 713 326 m 674 1160 q 501 979 607 1096 l 472 979 q 338 1160 406 1079 l 363 1189 l 372 1189 q 490 1035 439 1110 q 646 1189 553 1103 l 656 1189 l 674 1160 z "},"ǔ":{"ha":731,"x_min":99,"x_max":667,"o":"m 608 243 q 523 59 596 124 q 328 -6 450 -6 q 158 45 218 -6 q 99 192 99 96 q 103 243 99 217 l 118 344 l 160 686 l 224 686 l 164 251 q 161 208 161 221 q 205 90 161 131 q 332 50 249 50 q 550 251 525 50 l 603 686 l 667 686 l 621 336 l 608 243 m 601 958 q 429 778 535 894 l 400 778 q 265 958 333 878 l 290 988 l 300 988 q 418 833 367 908 q 574 988 481 901 l 583 988 l 601 958 z "},"Ǖ":{"ha":819,"x_min":104,"x_max":783,"o":"m 713 326 q 608 80 696 167 q 374 -7 521 -7 q 175 59 246 -7 q 104 247 104 125 q 110 322 104 288 l 128 447 l 182 888 l 247 888 l 174 328 q 169 263 169 294 q 222 106 169 160 q 376 53 275 53 q 563 122 493 53 q 650 322 633 190 l 717 888 l 783 888 l 725 435 l 713 326 m 707 1203 l 364 1203 l 357 1210 l 361 1253 l 706 1253 l 711 1246 l 707 1203 m 418 1104 q 447 1093 436 1104 q 458 1063 458 1082 q 447 1031 458 1043 q 417 1019 435 1019 q 387 1031 399 1019 q 375 1061 375 1043 q 387 1092 375 1081 q 418 1104 399 1104 m 624 1104 q 653 1093 642 1104 q 664 1063 664 1082 q 653 1031 664 1043 q 622 1019 642 1019 q 592 1031 604 1019 q 581 1061 581 1043 q 592 1092 581 1081 q 624 1104 604 1104 z "},"ǖ":{"ha":731,"x_min":99,"x_max":667,"o":"m 608 243 q 523 59 596 124 q 328 -6 450 -6 q 158 45 218 -6 q 99 192 99 96 q 103 243 99 217 l 118 344 l 160 686 l 224 686 l 164 251 q 161 208 161 221 q 205 90 161 131 q 332 50 249 50 q 550 251 525 50 l 603 686 l 667 686 l 621 336 l 608 243 m 635 1001 l 292 1001 l 285 1008 l 289 1051 l 633 1051 l 639 1044 l 635 1001 m 346 903 q 375 892 364 903 q 386 861 386 881 q 374 830 386 842 q 344 818 363 818 q 315 830 326 818 q 303 860 303 842 q 315 891 303 879 q 346 903 326 903 m 551 903 q 581 892 569 903 q 592 861 592 881 q 581 830 592 842 q 550 818 569 818 q 520 830 532 818 q 508 860 508 842 q 520 891 508 879 q 551 903 532 903 z "},"Ǘ":{"ha":819,"x_min":104,"x_max":783,"o":"m 713 326 q 608 80 696 167 q 374 -7 521 -7 q 175 59 246 -7 q 104 247 104 125 q 110 322 104 288 l 128 447 l 182 888 l 247 888 l 174 328 q 169 263 169 294 q 222 106 169 160 q 376 53 275 53 q 563 122 493 53 q 650 322 633 190 l 717 888 l 783 888 l 725 435 l 713 326 m 665 1268 l 660 1258 q 386 1182 544 1222 l 378 1188 l 369 1225 q 644 1315 503 1261 l 653 1310 l 665 1268 m 400 1104 q 429 1093 418 1104 q 440 1063 440 1082 q 428 1031 440 1043 q 397 1019 417 1019 q 368 1031 379 1019 q 357 1061 357 1042 q 369 1092 357 1081 q 400 1104 381 1104 m 606 1104 q 635 1093 624 1104 q 646 1063 646 1082 q 634 1031 646 1043 q 603 1019 622 1019 q 574 1031 585 1019 q 563 1061 563 1042 q 574 1092 563 1081 q 606 1104 586 1104 z "},"ǘ":{"ha":731,"x_min":99,"x_max":667,"o":"m 608 243 q 523 59 596 124 q 328 -6 450 -6 q 158 45 218 -6 q 99 192 99 96 q 103 243 99 217 l 118 344 l 160 686 l 224 686 l 164 251 q 161 208 161 221 q 205 90 161 131 q 332 50 249 50 q 550 251 525 50 l 603 686 l 667 686 l 621 336 l 608 243 m 593 1067 l 588 1057 q 314 981 472 1021 l 306 986 l 297 1024 q 572 1114 431 1060 l 581 1108 l 593 1067 m 328 903 q 357 892 346 903 q 368 861 368 881 q 356 830 368 842 q 325 818 344 818 q 296 829 307 818 q 285 860 285 840 q 297 891 285 879 q 328 903 308 903 m 533 903 q 563 892 551 903 q 574 861 574 881 q 562 830 574 842 q 531 818 550 818 q 501 829 513 818 q 490 860 490 840 q 502 891 490 879 q 533 903 514 903 z "},"Ǚ":{"ha":819,"x_min":104,"x_max":783,"o":"m 713 326 q 608 80 696 167 q 374 -7 521 -7 q 175 59 246 -7 q 104 247 104 125 q 110 322 104 288 l 128 447 l 182 888 l 247 888 l 174 328 q 169 263 169 294 q 222 106 169 160 q 376 53 275 53 q 563 122 493 53 q 650 322 633 190 l 717 888 l 783 888 l 725 435 l 713 326 m 679 1258 q 519 1143 601 1208 l 493 1143 q 356 1258 433 1199 l 375 1290 l 385 1290 q 510 1196 446 1247 q 658 1290 576 1243 l 668 1290 l 679 1258 m 400 1104 q 429 1093 418 1104 q 440 1063 440 1082 q 428 1031 440 1043 q 397 1019 417 1019 q 368 1031 379 1019 q 357 1061 357 1042 q 369 1092 357 1081 q 400 1104 381 1104 m 606 1104 q 635 1093 624 1104 q 646 1063 646 1082 q 634 1031 646 1043 q 604 1019 622 1019 q 574 1031 586 1019 q 563 1061 563 1043 q 574 1092 563 1081 q 606 1104 586 1104 z "},"ǚ":{"ha":731,"x_min":99,"x_max":667,"o":"m 608 243 q 523 59 596 124 q 328 -6 450 -6 q 158 45 218 -6 q 99 192 99 96 q 103 243 99 217 l 118 344 l 160 686 l 224 686 l 164 251 q 161 208 161 221 q 205 90 161 131 q 332 50 249 50 q 550 251 525 50 l 603 686 l 667 686 l 621 336 l 608 243 m 607 1057 q 447 942 529 1007 l 421 942 q 283 1057 361 997 l 303 1089 l 313 1089 q 438 994 374 1046 q 586 1089 504 1042 l 596 1089 l 607 1057 m 328 903 q 357 892 346 903 q 368 861 368 881 q 356 830 368 842 q 325 818 344 818 q 296 829 307 818 q 285 860 285 840 q 297 891 285 879 q 328 903 308 903 m 533 903 q 563 892 551 903 q 574 861 574 881 q 562 830 574 842 q 532 818 550 818 q 502 830 514 818 q 490 860 490 842 q 502 891 490 879 q 533 903 514 903 z "},"Ǜ":{"ha":819,"x_min":104,"x_max":783,"o":"m 713 326 q 608 80 696 167 q 374 -7 521 -7 q 175 59 246 -7 q 104 247 104 125 q 110 322 104 288 l 128 447 l 182 888 l 247 888 l 174 328 q 169 263 169 294 q 222 106 169 160 q 376 53 275 53 q 563 122 493 53 q 650 322 633 190 l 717 888 l 783 888 l 725 435 l 713 326 m 406 1315 q 669 1225 532 1264 l 657 1188 l 647 1182 q 385 1258 489 1225 l 379 1268 l 397 1310 l 406 1315 m 396 1104 q 432 1068 432 1104 q 418 1033 432 1046 q 383 1019 404 1019 q 347 1056 347 1019 q 360 1091 347 1078 q 396 1104 374 1104 m 601 1104 q 638 1068 638 1104 q 624 1033 638 1046 q 589 1019 611 1019 q 553 1056 553 1019 q 566 1091 553 1078 q 601 1104 579 1104 z "},"ǜ":{"ha":731,"x_min":99,"x_max":667,"o":"m 608 243 q 523 59 596 124 q 328 -6 450 -6 q 158 45 218 -6 q 99 192 99 96 q 103 243 99 217 l 118 344 l 160 686 l 224 686 l 164 251 q 161 208 161 221 q 205 90 161 131 q 332 50 249 50 q 550 251 525 50 l 603 686 l 667 686 l 621 336 l 608 243 m 333 1114 q 597 1024 460 1063 l 585 986 l 575 981 q 313 1057 417 1024 l 307 1067 l 325 1108 l 333 1114 m 324 903 q 360 867 360 903 q 346 831 360 844 q 311 818 332 818 q 275 854 275 818 q 288 890 275 876 q 324 903 301 903 m 529 903 q 565 867 565 903 q 552 831 565 844 q 517 818 539 818 q 481 854 481 818 q 494 890 481 876 q 529 903 507 903 z "},"Ǫ":{"ha":840,"x_min":71,"x_max":804,"o":"m 475 -92 q 449 -164 449 -135 q 465 -207 449 -190 q 508 -224 481 -224 q 613 -160 563 -224 l 617 -160 l 632 -197 q 500 -274 568 -274 q 427 -247 454 -274 q 400 -175 400 -219 q 432 -82 400 -129 l 490 6 q 376 -8 440 -8 q 151 86 231 -8 q 71 353 71 181 q 120 643 71 521 q 265 831 169 765 q 496 896 361 896 q 724 803 644 896 q 804 543 804 711 q 740 217 804 350 q 554 28 675 83 l 475 -92 m 140 358 q 202 129 140 208 q 382 50 264 50 q 644 177 553 50 q 735 533 735 304 q 673 760 735 682 q 490 838 611 838 q 230 712 319 838 q 140 358 140 586 z "},"ǫ":{"ha":744,"x_min":71,"x_max":683,"o":"m 396 -92 q 369 -164 369 -135 q 385 -207 369 -190 q 429 -224 401 -224 q 533 -160 483 -224 l 539 -160 l 554 -197 q 421 -274 489 -274 q 349 -247 376 -274 q 321 -175 321 -219 q 353 -82 321 -129 l 408 0 q 331 -7 369 -7 q 138 67 206 -7 q 71 283 71 142 q 164 583 71 474 q 424 693 257 693 q 616 620 549 693 q 683 408 683 547 q 628 161 683 263 q 469 18 572 60 l 396 -92 m 138 289 q 335 49 138 49 q 544 140 471 49 q 617 400 617 232 q 415 638 617 638 q 209 547 281 638 q 138 289 138 457 z "},"Ǻ":{"ha":747,"x_min":-14,"x_max":675,"o":"m 353 1122 q 626 1214 482 1160 l 636 1210 l 647 1168 l 643 1160 q 436 1099 601 1146 l 369 1079 l 361 1086 l 353 1122 m 606 0 l 596 72 l 556 269 l 358 271 l 181 269 l 85 75 l 56 0 l -14 0 l 408 857 q 356 950 356 883 q 384 1025 356 996 q 461 1054 413 1054 q 540 1024 511 1054 q 568 950 568 994 q 549 887 568 913 q 499 851 529 861 l 675 0 l 606 0 m 461 1014 q 412 997 429 1014 q 394 950 394 979 q 413 902 394 919 q 461 885 432 885 q 509 901 490 885 q 528 949 528 918 q 510 996 528 978 q 461 1014 493 1014 m 447 804 l 442 804 l 208 329 l 372 328 l 543 329 l 447 804 z "},"ǻ":{"ha":669,"x_min":1,"x_max":588,"o":"m 513 0 l 507 61 l 475 201 l 311 203 l 164 201 l 93 64 l 67 0 l 1 0 l 351 686 l 425 686 l 579 0 l 513 0 m 381 617 l 375 617 l 190 256 l 463 256 l 381 617 m 588 1085 l 582 1076 q 386 1018 514 1054 q 351 1008 369 1014 q 310 996 332 1001 l 300 1003 l 292 1039 q 565 1131 442 1082 l 575 1126 l 588 1085 m 401 971 q 478 941 450 971 q 507 867 507 911 q 475 790 507 818 q 399 761 443 761 q 324 790 354 761 q 294 867 294 818 q 324 942 294 914 q 401 971 353 971 m 400 931 q 351 913 369 931 q 333 867 333 896 q 352 817 333 835 q 400 800 371 800 q 449 817 429 800 q 468 865 468 835 q 450 912 468 893 q 400 931 432 931 z "},"Ǽ":{"ha":1049,"x_min":-58,"x_max":990,"o":"m 976 0 l 549 0 l 551 74 l 543 383 l 210 317 l 56 76 l 14 0 l -58 0 l 515 888 l 958 888 l 964 879 l 949 826 l 735 829 l 599 829 l 607 451 l 911 510 l 915 503 l 911 453 l 608 397 l 615 57 l 771 57 l 986 61 l 990 53 l 976 0 m 533 807 l 526 807 l 253 382 l 543 439 l 533 807 m 903 1138 l 900 1128 q 644 1004 789 1071 l 635 1008 l 619 1043 q 875 1179 738 1099 l 885 1176 l 903 1138 z "},"ǽ":{"ha":922,"x_min":-33,"x_max":846,"o":"m 833 0 l 471 0 l 475 61 l 467 286 l 183 231 l 68 63 l 35 0 l -33 0 l 438 686 l 814 686 l 818 679 l 804 629 l 625 635 l 515 635 l 525 351 l 774 397 l 779 393 l 775 342 l 526 297 l 535 54 l 663 54 l 842 57 l 846 51 l 833 0 m 454 617 l 449 617 l 226 294 l 464 340 l 454 617 m 768 965 l 765 957 q 549 774 685 885 l 539 775 l 517 806 q 732 1001 626 897 l 740 1000 l 768 965 z "},"Ǿ":{"ha":842,"x_min":71,"x_max":804,"o":"m 692 835 q 804 543 804 743 q 754 249 804 374 q 608 58 704 125 q 376 -8 511 -8 q 232 22 297 -8 l 146 -131 l 104 -117 l 101 -110 l 190 49 q 71 353 71 138 q 120 643 71 521 q 265 831 169 765 q 496 896 361 896 q 650 863 585 896 l 725 994 l 767 981 l 769 971 l 692 835 m 140 358 q 224 106 140 182 l 619 807 q 490 838 563 838 q 230 712 319 838 q 140 358 140 586 m 382 50 q 644 177 553 50 q 735 533 735 304 q 658 775 735 700 l 264 76 q 382 50 314 50 m 671 1138 l 668 1128 q 413 1004 557 1071 l 403 1008 l 388 1043 q 643 1179 506 1099 l 653 1176 l 671 1138 z "},"ǿ":{"ha":744,"x_min":71,"x_max":683,"o":"m 581 651 q 683 408 683 581 q 642 190 683 283 q 520 44 600 96 q 331 -7 440 -7 q 214 14 264 -7 l 135 -122 l 93 -100 l 90 -92 l 167 40 q 71 283 71 113 q 164 583 71 474 q 424 693 257 693 q 532 675 486 693 l 599 790 l 640 768 l 643 760 l 581 651 m 138 289 q 197 94 138 154 l 503 624 q 415 638 467 638 q 209 547 281 638 q 138 289 138 457 m 335 49 q 544 140 471 49 q 617 400 617 232 q 549 596 617 540 l 243 65 q 335 49 281 49 m 546 967 l 543 958 q 326 775 463 886 l 317 776 l 294 807 q 510 1003 404 899 l 518 1001 l 546 967 z "},"Ș":{"ha":607,"x_min":32,"x_max":582,"o":"m 404 893 q 582 851 499 893 l 563 789 l 549 785 q 394 836 481 836 q 289 811 335 836 q 217 746 243 786 q 192 663 192 706 q 213 591 192 622 q 263 537 233 560 q 347 481 293 514 q 446 415 410 443 q 508 342 482 386 q 535 240 535 299 q 497 115 535 172 q 392 26 458 58 q 244 -7 325 -7 q 132 9 189 -7 q 32 56 75 25 l 47 124 l 60 128 q 149 69 97 89 q 251 50 200 50 q 362 75 313 50 q 439 141 411 100 q 467 229 467 182 q 446 306 467 272 q 394 363 425 339 q 308 419 363 386 q 213 484 249 456 q 151 555 176 513 q 126 656 126 597 q 163 776 126 721 q 263 862 199 831 q 404 893 326 893 m 253 -87 q 306 -164 306 -118 q 200 -314 306 -237 l 176 -292 l 178 -285 q 250 -174 250 -229 q 210 -119 250 -144 l 210 -112 q 253 -87 229 -97 z "},"ș":{"ha":553,"x_min":47,"x_max":493,"o":"m 343 692 q 493 660 419 692 l 475 597 l 461 594 q 336 639 403 639 q 253 619 289 639 q 197 569 217 600 q 178 506 178 539 q 209 435 178 463 q 304 378 240 408 q 386 332 354 353 q 440 278 418 311 q 463 197 463 244 q 433 98 463 144 q 350 23 404 51 q 226 -6 296 -6 q 132 7 181 -6 q 47 42 83 19 l 60 108 l 69 113 q 147 64 103 81 q 232 47 190 47 q 317 67 279 47 q 377 119 356 88 q 399 188 399 151 q 367 259 399 232 q 271 318 336 286 q 189 364 219 343 q 136 417 158 385 q 114 497 114 450 q 142 593 114 549 q 224 665 171 638 q 343 692 276 692 m 244 -87 q 297 -164 297 -118 q 192 -314 297 -237 l 168 -292 l 169 -285 q 242 -174 242 -229 q 201 -119 242 -144 l 201 -112 q 244 -87 221 -97 z "},"Ț":{"ha":638,"x_min":99,"x_max":675,"o":"m 661 828 l 522 831 l 418 831 l 344 274 l 314 0 l 247 0 l 283 269 l 350 831 l 249 831 l 104 828 l 99 835 l 114 888 l 669 888 l 675 879 l 661 828 m 268 -87 q 321 -164 321 -118 q 215 -314 321 -237 l 192 -292 l 193 -285 q 265 -174 265 -229 q 225 -119 265 -144 l 225 -112 q 268 -87 244 -97 z "},"ț":{"ha":578,"x_min":90,"x_max":574,"o":"m 561 626 l 444 632 l 361 632 l 307 214 l 282 0 l 219 0 l 247 208 l 299 632 l 215 632 l 96 626 l 90 635 l 103 686 l 571 686 l 574 679 l 561 626 m 308 -87 q 361 -164 361 -118 q 256 -314 361 -237 l 232 -292 l 233 -285 q 306 -174 306 -229 q 265 -119 306 -144 l 265 -112 q 308 -87 285 -97 z "},"ȷ":{"ha":381,"x_min":3,"x_max":275,"o":"m 217 228 l 204 126 q 155 -7 194 46 q 26 -108 115 -60 l 3 -71 l 4 -62 q 105 23 72 -21 q 144 129 138 67 l 156 219 l 206 635 l 69 635 l 64 640 l 75 686 l 275 686 l 217 228 z "},"ˆ":{"ha":542,"x_min":156,"x_max":490,"o":"m 156 746 q 331 926 226 813 l 358 926 q 490 746 422 829 l 467 717 l 457 717 q 339 871 397 786 q 182 717 247 775 l 172 717 l 156 746 z "},"ˇ":{"ha":542,"x_min":175,"x_max":511,"o":"m 511 904 q 339 724 444 840 l 310 724 q 175 904 243 824 l 200 933 l 210 933 q 328 779 276 854 q 483 933 390 847 l 493 933 l 511 904 z "},"ˉ":{"ha":542,"x_min":129,"x_max":536,"o":"m 532 811 l 136 811 l 129 818 l 135 861 l 531 861 l 536 856 l 532 811 z "},"˘":{"ha":542,"x_min":183,"x_max":497,"o":"m 497 881 q 325 728 449 728 q 224 766 257 728 q 183 881 190 804 l 211 910 l 222 910 q 328 781 228 781 q 464 910 428 781 l 476 910 l 497 881 z "},"˙":{"ha":542,"x_min":290,"x_max":379,"o":"m 336 897 q 379 853 379 897 q 367 819 379 832 q 335 807 356 807 q 290 851 290 807 q 303 885 290 872 q 336 897 315 897 z "},"˚":{"ha":542,"x_min":228,"x_max":440,"o":"m 335 947 q 413 917 385 947 q 440 843 440 888 q 408 765 440 794 q 332 736 376 736 q 258 765 289 736 q 228 842 228 793 q 257 917 228 888 q 335 947 286 947 m 333 907 q 285 890 303 907 q 267 843 267 872 q 285 794 267 811 q 333 776 304 776 q 382 793 363 776 q 401 840 401 810 q 384 888 401 869 q 333 907 367 907 z "},"˛":{"ha":542,"x_min":93,"x_max":325,"o":"m 168 -92 q 142 -164 142 -135 q 158 -207 142 -190 q 201 -224 174 -224 q 306 -160 256 -224 l 310 -160 l 325 -197 q 193 -274 261 -274 q 120 -247 147 -274 q 93 -175 93 -219 q 125 -82 93 -129 l 210 44 l 258 44 l 168 -92 z "},"˜":{"ha":542,"x_min":128,"x_max":539,"o":"m 539 868 l 461 788 l 450 783 q 340 811 424 786 q 233 836 251 836 q 185 800 218 836 q 160 775 160 775 l 151 775 l 128 800 l 128 808 l 207 888 l 217 892 q 329 864 247 889 q 433 840 413 840 q 483 876 447 840 l 508 900 l 517 900 l 539 875 l 539 868 z "},"˝":{"ha":542,"x_min":122,"x_max":546,"o":"m 122 744 q 317 946 217 838 l 326 946 l 357 921 l 357 913 q 157 719 265 819 l 147 719 l 122 744 m 310 744 q 506 946 418 850 l 514 946 l 546 921 l 544 913 q 344 719 453 819 l 335 719 l 310 744 z "},"̃":{"ha":0,"x_min":128,"x_max":539,"o":"m 539 868 l 460 786 l 449 783 q 335 811 419 786 q 233 836 249 836 q 185 800 218 836 q 160 775 160 775 l 151 775 l 128 800 l 128 808 l 208 889 l 218 893 q 331 865 232 892 q 433 840 417 840 q 483 876 447 840 l 508 900 l 517 900 l 539 875 l 539 868 z "},"̣":{"ha":0,"x_min":168,"x_max":257,"o":"m 214 -111 q 245 -123 233 -111 q 257 -154 257 -135 q 244 -188 257 -175 q 211 -201 232 -201 q 180 -189 192 -201 q 168 -157 168 -176 q 214 -111 168 -111 z "},"̦":{"ha":0,"x_min":138,"x_max":267,"o":"m 214 -90 q 267 -167 267 -121 q 161 -317 267 -240 l 138 -294 l 139 -287 q 211 -176 211 -232 q 171 -122 211 -147 l 171 -115 q 214 -90 190 -100 z "},"Δ":{"ha":746,"x_min":-15,"x_max":674,"o":"m -15 0 l 417 888 l 492 888 l 674 0 l -15 0 m 76 58 l 597 58 l 447 808 l 440 808 l 76 58 z "},"Ω":{"ha":974,"x_min":24,"x_max":883,"o":"m 560 896 q 796 804 714 896 q 878 558 878 713 q 812 279 878 411 q 625 60 746 147 l 625 56 l 775 56 l 878 61 l 883 54 l 867 -3 l 747 0 l 582 0 l 529 -1 l 525 1 l 532 56 q 735 271 663 139 q 808 553 808 403 q 744 762 808 686 q 556 838 681 838 q 372 786 449 838 q 254 642 294 735 q 214 429 214 550 q 257 216 214 315 q 379 56 300 117 l 374 1 l 368 -1 l 317 0 l 136 0 l 29 -3 l 24 4 l 40 60 l 149 56 l 288 56 l 289 60 q 183 218 219 122 q 146 425 146 314 q 194 669 146 563 q 337 836 243 776 q 560 896 431 896 z "},"μ":{"ha":651,"x_min":42,"x_max":575,"o":"m 508 150 l 499 1 l 431 -6 l 478 342 l 468 342 q 324 119 388 203 q 194 -11 260 35 l 179 -11 q 136 10 156 -6 l 119 -112 l 110 -262 l 42 -269 l 146 500 l 153 631 l 219 638 l 153 131 q 161 81 149 99 q 192 63 174 63 q 314 175 231 63 q 499 489 397 288 l 500 500 l 507 631 l 575 638 l 508 150 z "},"π":{"ha":819,"x_min":47,"x_max":811,"o":"m 578 125 q 575 96 575 103 q 613 47 575 47 q 669 65 640 47 l 676 61 l 663 17 q 590 -6 625 -6 q 514 83 514 -6 q 517 119 514 92 l 581 629 l 319 629 l 275 275 l 225 -133 l 161 -133 l 213 271 l 257 629 l 190 629 q 152 612 175 629 q 75 549 129 594 l 64 549 l 47 575 l 49 585 l 158 681 l 179 686 l 806 688 l 811 679 l 797 629 l 643 629 l 578 125 z "},"Ẁ":{"ha":1169,"x_min":101,"x_max":1226,"o":"m 732 0 l 619 565 l 613 565 l 344 0 l 274 0 l 101 888 l 169 888 l 176 815 l 319 82 l 328 82 l 600 660 l 553 888 l 622 888 l 632 811 l 775 82 l 783 82 l 1132 813 l 1160 888 l 1226 888 l 801 0 l 732 0 m 536 1181 q 792 1044 638 1121 l 778 1010 l 768 1006 q 736 1021 726 1026 q 513 1129 588 1090 l 508 1139 l 528 1178 l 536 1181 z "},"ẁ":{"ha":1019,"x_min":94,"x_max":1032,"o":"m 624 0 l 525 422 l 519 422 l 308 0 l 242 0 l 94 686 l 160 686 l 164 626 l 285 75 l 289 75 l 508 511 l 471 686 l 536 686 l 542 622 l 663 75 l 671 75 l 946 625 l 971 686 l 1032 686 l 689 0 l 624 0 m 449 1001 q 663 806 550 900 l 640 775 l 631 774 q 414 957 494 885 l 413 965 l 439 1000 l 449 1001 z "},"Ẃ":{"ha":1169,"x_min":101,"x_max":1226,"o":"m 732 0 l 619 565 l 613 565 l 344 0 l 274 0 l 101 888 l 169 888 l 176 815 l 319 82 l 328 82 l 600 660 l 553 888 l 622 888 l 632 811 l 775 82 l 783 82 l 1132 813 l 1160 888 l 1226 888 l 801 0 l 732 0 m 807 1138 l 804 1128 q 549 1004 693 1071 l 539 1008 l 524 1043 q 779 1179 642 1099 l 789 1176 l 807 1138 z "},"ẃ":{"ha":1019,"x_min":94,"x_max":1032,"o":"m 624 0 l 525 422 l 519 422 l 308 0 l 242 0 l 94 686 l 160 686 l 164 626 l 285 75 l 289 75 l 508 511 l 471 686 l 536 686 l 542 622 l 663 75 l 671 75 l 946 625 l 971 686 l 1032 686 l 689 0 l 624 0 m 679 965 l 676 957 q 460 774 596 885 l 450 775 l 428 806 q 643 1001 538 897 l 651 1000 l 679 965 z "},"Ẅ":{"ha":1169,"x_min":101,"x_max":1226,"o":"m 732 0 l 619 565 l 613 565 l 344 0 l 274 0 l 101 888 l 169 888 l 176 815 l 319 82 l 328 82 l 600 660 l 553 888 l 622 888 l 632 811 l 775 82 l 783 82 l 1132 813 l 1160 888 l 1226 888 l 801 0 l 732 0 m 544 1135 q 575 1123 564 1135 q 586 1092 586 1111 q 543 1047 586 1047 q 500 1090 500 1047 q 512 1122 500 1110 q 544 1135 524 1135 m 760 1133 q 790 1122 779 1133 q 801 1092 801 1111 q 790 1058 801 1071 q 758 1046 778 1046 q 715 1089 715 1046 q 760 1133 715 1133 z "},"ẅ":{"ha":1019,"x_min":94,"x_max":1032,"o":"m 624 0 l 525 422 l 519 422 l 308 0 l 242 0 l 94 686 l 160 686 l 164 626 l 285 75 l 289 75 l 508 511 l 471 686 l 536 686 l 542 622 l 663 75 l 671 75 l 946 625 l 971 686 l 1032 686 l 689 0 l 624 0 m 444 933 q 475 922 464 933 q 486 890 486 910 q 443 846 486 846 q 400 889 400 846 q 412 921 400 908 q 444 933 424 933 m 660 932 q 690 921 679 932 q 701 890 701 910 q 690 857 701 869 q 658 844 678 844 q 615 888 615 844 q 660 932 615 932 z "},"ẞ":{"ha":810,"x_min":74,"x_max":764,"o":"m 489 893 q 761 813 618 893 l 764 794 l 493 490 q 688 404 624 460 q 751 257 751 349 q 714 120 751 181 q 613 26 676 60 q 475 -7 550 -7 q 367 9 422 -7 q 269 56 311 25 l 286 124 l 297 128 q 385 70 335 90 q 485 50 436 50 q 586 76 540 50 q 658 146 632 101 q 685 244 685 190 q 617 374 685 325 q 406 447 549 422 l 404 471 l 678 779 q 479 835 581 835 q 299 770 371 835 q 214 596 228 706 l 172 275 l 140 0 l 74 0 l 110 264 l 150 596 q 206 752 160 685 q 324 856 251 819 q 489 893 397 893 z "},"Ạ":{"ha":744,"x_min":-15,"x_max":674,"o":"m 604 0 l 596 74 l 556 271 l 358 272 l 179 271 l 85 76 l 54 0 l -15 0 l 417 888 l 493 888 l 674 0 l 604 0 m 446 808 l 440 808 l 208 331 l 372 328 l 543 331 l 446 808 m 313 -111 q 344 -123 332 -111 q 356 -154 356 -135 q 343 -188 356 -175 q 310 -201 331 -201 q 278 -189 290 -201 q 267 -157 267 -176 q 313 -111 267 -111 z "},"ạ":{"ha":669,"x_min":1,"x_max":579,"o":"m 513 0 l 507 61 l 475 201 l 311 203 l 164 201 l 93 64 l 67 0 l 1 0 l 351 686 l 425 686 l 579 0 l 513 0 m 381 617 l 375 617 l 190 256 l 463 256 l 381 617 m 301 -111 q 333 -123 321 -111 q 344 -154 344 -135 q 332 -188 344 -175 q 299 -201 319 -201 q 267 -189 279 -201 q 256 -157 256 -176 q 301 -111 256 -111 z "},"Ả":{"ha":744,"x_min":-15,"x_max":674,"o":"m 604 0 l 596 74 l 556 271 l 358 272 l 179 271 l 85 76 l 54 0 l -15 0 l 417 888 l 493 888 l 674 0 l 604 0 m 446 808 l 440 808 l 208 331 l 372 328 l 543 331 l 446 808 m 461 1219 q 513 1201 492 1219 q 535 1154 535 1182 q 465 1057 535 1111 l 490 1014 l 456 996 l 418 1063 q 488 1147 488 1113 q 451 1176 488 1176 q 374 1143 414 1176 l 357 1171 q 461 1219 410 1219 z "},"ả":{"ha":669,"x_min":1,"x_max":579,"o":"m 513 0 l 507 61 l 475 201 l 311 203 l 164 201 l 93 64 l 67 0 l 1 0 l 351 686 l 425 686 l 579 0 l 513 0 m 381 617 l 375 617 l 190 256 l 463 256 l 381 617 m 396 1018 q 448 999 426 1018 q 469 953 469 981 q 400 856 469 910 l 425 813 l 390 794 l 353 861 q 422 946 422 911 q 386 975 422 975 q 308 942 349 975 l 292 969 q 396 1018 344 1018 z "},"Ấ":{"ha":744,"x_min":-15,"x_max":678,"o":"m 604 0 l 596 74 l 556 271 l 358 272 l 179 271 l 85 76 l 54 0 l -15 0 l 417 888 l 493 888 l 674 0 l 604 0 m 446 808 l 440 808 l 208 331 l 372 328 l 543 331 l 446 808 m 678 1253 l 628 1189 l 569 1128 l 546 1142 l 579 1214 l 639 1278 l 668 1265 l 678 1253 m 489 1142 q 625 1026 554 1081 l 606 994 l 597 994 q 472 1089 533 1039 q 324 994 406 1043 l 314 994 l 301 1026 q 463 1142 379 1075 l 489 1142 z "},"ấ":{"ha":669,"x_min":1,"x_max":611,"o":"m 513 0 l 507 61 l 475 201 l 311 203 l 164 201 l 93 64 l 67 0 l 1 0 l 351 686 l 425 686 l 579 0 l 513 0 m 381 617 l 375 617 l 190 256 l 463 256 l 381 617 m 611 1051 l 561 988 l 503 926 l 479 940 l 513 1013 l 572 1076 l 601 1064 l 611 1051 m 422 940 q 558 825 488 879 l 539 793 l 531 793 q 406 888 467 838 q 257 793 339 842 l 247 793 l 235 825 q 396 940 313 874 l 422 940 z "},"Ầ":{"ha":744,"x_min":-15,"x_max":674,"o":"m 604 0 l 596 74 l 556 271 l 358 272 l 179 271 l 85 76 l 54 0 l -15 0 l 417 888 l 493 888 l 674 0 l 604 0 m 446 808 l 440 808 l 208 331 l 372 328 l 543 331 l 446 808 m 636 1142 l 614 1128 l 554 1188 l 504 1253 l 514 1264 l 543 1278 l 603 1213 l 636 1142 m 493 1142 q 631 1026 553 1086 l 611 994 l 601 994 q 476 1089 538 1039 q 328 994 410 1043 l 318 994 l 307 1026 q 467 1142 385 1076 l 493 1142 z "},"ầ":{"ha":669,"x_min":1,"x_max":579,"o":"m 513 0 l 507 61 l 475 201 l 311 203 l 164 201 l 93 64 l 67 0 l 1 0 l 351 686 l 425 686 l 579 0 l 513 0 m 381 617 l 375 617 l 190 256 l 463 256 l 381 617 m 569 940 l 547 926 l 488 986 l 438 1051 l 447 1063 l 476 1076 l 536 1011 l 569 940 m 426 940 q 564 825 486 885 l 544 793 l 535 793 q 410 888 471 838 q 261 793 343 842 l 251 793 l 240 825 q 400 940 318 875 l 426 940 z "},"Ẩ":{"ha":744,"x_min":-15,"x_max":674,"o":"m 604 0 l 596 74 l 556 271 l 358 272 l 179 271 l 85 76 l 54 0 l -15 0 l 417 888 l 493 888 l 674 0 l 604 0 m 446 808 l 440 808 l 208 331 l 372 328 l 543 331 l 446 808 m 592 1324 q 642 1306 622 1324 q 663 1261 663 1288 q 597 1168 663 1221 l 619 1128 l 586 1111 l 551 1174 q 618 1254 618 1219 q 583 1281 618 1281 q 510 1251 547 1281 l 493 1276 q 592 1324 544 1324 m 490 1142 q 628 1028 553 1085 l 608 994 l 599 994 q 474 1089 536 1040 q 325 994 415 1050 l 315 994 l 304 1028 q 464 1142 376 1074 l 490 1142 z "},"ẩ":{"ha":669,"x_min":1,"x_max":596,"o":"m 513 0 l 507 61 l 475 201 l 311 203 l 164 201 l 93 64 l 67 0 l 1 0 l 351 686 l 425 686 l 579 0 l 513 0 m 381 617 l 375 617 l 190 256 l 463 256 l 381 617 m 525 1122 q 576 1104 556 1122 q 596 1060 596 1086 q 531 967 596 1019 l 553 926 l 519 910 l 485 972 q 551 1053 551 1018 q 517 1079 551 1079 q 443 1050 481 1079 l 426 1075 q 525 1122 478 1122 m 424 940 q 561 826 486 883 l 542 793 l 532 793 q 407 888 469 839 q 258 793 349 849 l 249 793 l 238 826 q 397 940 310 872 l 424 940 z "},"Ẫ":{"ha":744,"x_min":-15,"x_max":707,"o":"m 604 0 l 596 74 l 556 271 l 358 272 l 179 271 l 85 76 l 54 0 l -15 0 l 417 888 l 493 888 l 674 0 l 604 0 m 446 808 l 440 808 l 208 331 l 372 328 l 543 331 l 446 808 m 707 1268 l 633 1189 l 624 1186 q 515 1214 594 1189 q 419 1238 439 1238 q 375 1204 406 1238 l 349 1178 l 342 1178 l 319 1201 l 319 1210 l 393 1288 l 403 1292 q 508 1264 432 1289 q 608 1240 600 1240 q 656 1276 619 1240 l 678 1300 l 686 1300 l 707 1276 l 707 1268 m 497 1144 q 633 1029 578 1071 l 614 997 l 606 997 q 481 1092 561 1028 q 332 997 383 1028 l 322 997 l 310 1029 q 471 1144 374 1068 l 497 1144 z "},"ẫ":{"ha":669,"x_min":1,"x_max":640,"o":"m 513 0 l 507 61 l 475 201 l 311 203 l 164 201 l 93 64 l 67 0 l 1 0 l 351 686 l 425 686 l 579 0 l 513 0 m 381 617 l 375 617 l 190 256 l 463 256 l 381 617 m 640 1067 l 567 988 l 557 985 q 449 1013 528 988 q 353 1036 372 1036 q 308 1003 339 1036 l 282 976 l 275 976 l 253 1000 l 253 1008 l 326 1086 l 336 1090 q 442 1063 365 1088 q 542 1039 533 1039 q 589 1075 553 1039 l 611 1099 l 619 1099 l 640 1075 l 640 1067 m 431 943 q 567 828 511 869 l 547 796 l 539 796 q 414 890 494 826 q 265 796 317 826 l 256 796 l 243 828 q 404 943 307 867 l 431 943 z "},"Ậ":{"ha":744,"x_min":-15,"x_max":674,"o":"m 313 1053 q 474 1168 390 1101 l 500 1168 q 638 1053 560 1113 l 618 1021 l 608 1021 q 483 1115 544 1065 q 335 1021 417 1069 l 325 1021 l 313 1053 m 604 0 l 596 74 l 556 271 l 358 272 l 179 271 l 85 76 l 54 0 l -15 0 l 417 888 l 493 888 l 674 0 l 604 0 m 446 808 l 440 808 l 208 331 l 372 328 l 543 331 l 446 808 m 313 -111 q 344 -123 332 -111 q 356 -154 356 -135 q 343 -188 356 -175 q 310 -201 331 -201 q 278 -189 290 -201 q 267 -157 267 -176 q 313 -111 267 -111 z "},"ậ":{"ha":669,"x_min":1,"x_max":579,"o":"m 240 800 q 415 981 311 867 l 443 981 q 575 800 507 883 l 551 771 l 542 771 q 424 925 482 840 q 267 771 332 829 l 257 771 l 240 800 m 513 0 l 506 61 l 474 201 l 311 203 l 164 201 l 93 64 l 67 0 l 1 0 l 351 686 l 424 686 l 579 0 l 513 0 m 381 617 l 375 617 l 190 256 l 463 256 l 381 617 m 301 -111 q 333 -123 321 -111 q 344 -154 344 -135 q 332 -188 344 -175 q 299 -201 319 -201 q 267 -189 279 -201 q 256 -157 256 -176 q 301 -111 256 -111 z "},"Ắ":{"ha":744,"x_min":-15,"x_max":674,"o":"m 604 0 l 596 74 l 556 271 l 358 272 l 179 271 l 85 76 l 54 0 l -15 0 l 417 888 l 493 888 l 674 0 l 604 0 m 446 808 l 440 808 l 208 331 l 372 328 l 543 331 l 446 808 m 582 1247 q 485 1143 561 1222 l 460 1118 l 450 1118 l 424 1142 q 542 1279 500 1229 l 550 1279 l 582 1256 l 582 1247 m 632 1094 q 467 982 582 982 q 368 1011 407 982 q 319 1094 329 1040 l 346 1121 l 358 1121 q 468 1033 374 1033 q 600 1121 561 1033 l 611 1121 l 632 1094 z "},"ắ":{"ha":669,"x_min":1,"x_max":579,"o":"m 513 0 l 507 61 l 475 201 l 311 203 l 164 201 l 93 64 l 67 0 l 1 0 l 351 686 l 425 686 l 579 0 l 513 0 m 381 617 l 375 617 l 190 256 l 463 256 l 381 617 m 515 1046 q 418 942 494 1021 l 393 917 l 383 917 l 357 940 q 475 1078 433 1028 l 483 1078 l 515 1054 l 515 1046 m 565 893 q 400 781 515 781 q 301 810 340 781 q 253 893 263 839 l 279 919 l 292 919 q 401 832 307 832 q 533 919 494 832 l 544 919 l 565 893 z "},"Ằ":{"ha":744,"x_min":-15,"x_max":674,"o":"m 604 0 l 596 74 l 556 271 l 358 272 l 179 271 l 85 76 l 54 0 l -15 0 l 417 888 l 493 888 l 674 0 l 604 0 m 446 808 l 440 808 l 208 331 l 372 328 l 543 331 l 446 808 m 482 1118 l 457 1143 q 360 1247 381 1222 l 358 1256 l 390 1279 l 400 1279 q 518 1142 467 1199 l 492 1118 l 482 1118 m 633 1094 q 468 982 583 982 q 369 1011 408 982 q 319 1094 329 1040 l 347 1121 l 358 1121 q 468 1033 374 1033 q 600 1121 563 1033 l 613 1121 l 633 1094 z "},"ằ":{"ha":669,"x_min":1,"x_max":579,"o":"m 513 0 l 507 61 l 475 201 l 311 203 l 164 201 l 93 64 l 67 0 l 1 0 l 351 686 l 425 686 l 579 0 l 513 0 m 381 617 l 375 617 l 190 256 l 463 256 l 381 617 m 415 917 l 390 942 q 293 1046 314 1021 l 292 1054 l 324 1078 l 333 1078 q 451 940 400 997 l 425 917 l 415 917 m 567 893 q 401 781 517 781 q 302 810 342 781 q 253 893 263 839 l 281 919 l 292 919 q 401 832 307 832 q 533 919 496 832 l 546 919 l 567 893 z "},"Ẳ":{"ha":744,"x_min":-15,"x_max":674,"o":"m 604 0 l 596 74 l 556 271 l 358 272 l 179 271 l 85 76 l 54 0 l -15 0 l 417 888 l 493 888 l 674 0 l 604 0 m 446 808 l 440 808 l 208 331 l 372 328 l 543 331 l 446 808 m 478 1339 q 531 1320 510 1339 q 551 1274 551 1301 q 483 1176 551 1231 l 507 1133 l 472 1115 l 436 1182 q 506 1267 506 1229 q 469 1294 506 1294 q 392 1263 431 1294 l 375 1290 q 478 1339 428 1339 m 632 1096 q 467 982 582 982 q 368 1011 407 982 q 319 1096 329 1040 l 346 1121 l 358 1121 q 468 1035 374 1035 q 600 1121 561 1035 l 611 1121 l 632 1096 z "},"ẳ":{"ha":669,"x_min":1,"x_max":579,"o":"m 513 0 l 507 61 l 475 201 l 311 203 l 164 201 l 93 64 l 67 0 l 1 0 l 351 686 l 425 686 l 579 0 l 513 0 m 381 617 l 375 617 l 190 256 l 463 256 l 381 617 m 411 1138 q 464 1119 443 1138 q 485 1072 485 1100 q 417 975 485 1029 l 440 932 l 406 914 l 369 981 q 439 1065 439 1028 q 403 1093 439 1093 q 325 1061 364 1093 l 308 1089 q 411 1138 361 1138 m 565 894 q 400 781 515 781 q 301 810 340 781 q 253 894 263 839 l 279 919 l 292 919 q 401 833 307 833 q 533 919 494 833 l 544 919 l 565 894 z "},"Ẵ":{"ha":744,"x_min":-15,"x_max":692,"o":"m 604 0 l 596 74 l 556 271 l 358 272 l 179 271 l 85 76 l 54 0 l -15 0 l 417 888 l 493 888 l 674 0 l 604 0 m 446 808 l 440 808 l 208 331 l 372 328 l 543 331 l 446 808 m 692 1268 l 617 1189 l 608 1186 q 497 1214 579 1189 q 403 1238 421 1238 q 356 1201 392 1238 l 333 1178 l 325 1178 l 303 1201 l 303 1210 l 378 1288 l 388 1292 q 493 1264 417 1289 q 592 1240 582 1240 q 638 1275 606 1240 l 663 1300 l 669 1300 l 692 1276 l 692 1268 m 622 1093 q 458 982 569 982 q 361 1011 399 982 q 313 1093 324 1040 l 339 1119 l 350 1119 q 460 1033 365 1033 q 589 1119 553 1033 l 601 1119 l 622 1093 z "},"ẵ":{"ha":669,"x_min":1,"x_max":625,"o":"m 513 0 l 507 61 l 475 201 l 311 203 l 164 201 l 93 64 l 67 0 l 1 0 l 351 686 l 425 686 l 579 0 l 513 0 m 381 617 l 375 617 l 190 256 l 463 256 l 381 617 m 625 1067 l 550 988 l 542 985 q 431 1013 513 988 q 336 1036 354 1036 q 289 1000 325 1036 l 267 976 l 258 976 l 236 1000 l 236 1008 l 311 1086 l 321 1090 q 426 1063 350 1088 q 525 1039 515 1039 q 571 1074 539 1039 l 596 1099 l 603 1099 l 625 1075 l 625 1067 m 556 892 q 392 781 503 781 q 294 810 332 781 q 246 892 257 839 l 272 918 l 283 918 q 393 832 299 832 q 522 918 486 832 l 535 918 l 556 892 z "},"Ặ":{"ha":744,"x_min":-15,"x_max":674,"o":"m 465 1010 q 367 1039 406 1010 q 318 1122 328 1068 l 344 1149 l 357 1149 q 467 1061 372 1061 q 599 1149 560 1061 l 610 1149 l 631 1122 q 465 1010 581 1010 m 604 0 l 596 74 l 556 271 l 358 272 l 179 271 l 85 76 l 54 0 l -15 0 l 417 888 l 493 888 l 674 0 l 604 0 m 446 808 l 440 808 l 208 331 l 372 328 l 543 331 l 446 808 m 313 -111 q 344 -123 332 -111 q 356 -154 356 -135 q 343 -188 356 -175 q 310 -201 331 -201 q 278 -189 290 -201 q 267 -157 267 -176 q 313 -111 267 -111 z "},"ặ":{"ha":669,"x_min":1,"x_max":579,"o":"m 393 782 q 292 820 325 782 q 251 935 258 858 l 279 964 l 290 964 q 396 835 296 835 q 532 964 496 835 l 544 964 l 565 935 q 393 782 517 782 m 513 0 l 506 61 l 474 201 l 311 203 l 164 201 l 93 64 l 67 0 l 1 0 l 351 686 l 424 686 l 579 0 l 513 0 m 381 617 l 375 617 l 190 256 l 463 256 l 381 617 m 301 -111 q 333 -123 321 -111 q 344 -154 344 -135 q 332 -188 344 -175 q 299 -201 319 -201 q 267 -189 279 -201 q 256 -157 256 -176 q 301 -111 256 -111 z "},"Ẹ":{"ha":621,"x_min":99,"x_max":654,"o":"m 226 486 l 390 485 l 531 488 l 536 479 l 522 428 l 376 429 l 218 428 l 199 274 l 174 58 l 344 57 l 549 61 l 553 53 l 539 0 l 99 0 l 138 269 l 211 888 l 650 888 l 654 879 l 640 826 l 446 829 l 269 828 l 226 486 m 343 -111 q 374 -123 363 -111 q 386 -154 386 -135 q 374 -188 386 -175 q 340 -201 361 -201 q 309 -189 321 -201 q 297 -157 297 -176 q 343 -111 297 -111 z "},"ẹ":{"ha":567,"x_min":96,"x_max":558,"o":"m 206 381 l 343 381 l 458 382 l 463 375 l 451 325 l 331 326 l 199 326 l 183 214 l 165 54 l 301 53 l 476 56 l 482 50 l 468 0 l 96 0 l 124 208 l 182 686 l 554 686 l 558 679 l 546 629 l 383 633 l 239 633 l 206 381 m 286 -111 q 317 -123 306 -111 q 329 -154 329 -135 q 317 -188 329 -175 q 283 -201 304 -201 q 252 -189 264 -201 q 240 -157 240 -176 q 286 -111 240 -111 z "},"Ẻ":{"ha":621,"x_min":99,"x_max":654,"o":"m 226 486 l 390 485 l 531 488 l 536 479 l 522 428 l 376 429 l 218 428 l 199 274 l 174 58 l 344 57 l 549 61 l 553 53 l 539 0 l 99 0 l 138 269 l 211 888 l 650 888 l 654 879 l 640 826 l 446 829 l 269 828 l 226 486 m 442 1219 q 494 1201 472 1219 q 515 1154 515 1182 q 446 1057 515 1111 l 471 1014 l 436 996 l 399 1063 q 468 1147 468 1113 q 432 1176 468 1176 q 354 1143 394 1176 l 338 1171 q 442 1219 390 1219 z "},"ẻ":{"ha":567,"x_min":96,"x_max":558,"o":"m 206 381 l 343 381 l 458 382 l 463 375 l 451 325 l 331 326 l 199 326 l 183 214 l 165 54 l 301 53 l 476 56 l 482 50 l 468 0 l 96 0 l 124 208 l 182 686 l 554 686 l 558 679 l 546 629 l 383 633 l 239 633 l 206 381 m 378 1018 q 430 999 408 1018 q 451 953 451 981 q 382 856 451 910 l 407 813 l 372 794 l 335 861 q 404 946 404 911 q 368 975 404 975 q 290 942 331 975 l 274 969 q 378 1018 326 1018 z "},"Ẽ":{"ha":621,"x_min":99,"x_max":661,"o":"m 226 486 l 390 485 l 531 488 l 536 479 l 522 428 l 376 429 l 218 428 l 199 274 l 174 58 l 344 57 l 549 61 l 553 53 l 539 0 l 99 0 l 138 269 l 211 888 l 650 888 l 654 879 l 640 826 l 446 829 l 269 828 l 226 486 m 661 1124 l 583 1043 l 572 1039 q 463 1067 546 1042 q 356 1092 374 1092 q 307 1056 340 1092 q 282 1031 282 1031 l 274 1031 l 250 1056 l 250 1064 l 329 1143 l 339 1147 q 451 1119 369 1144 q 556 1096 535 1096 q 606 1132 569 1096 l 631 1156 l 639 1156 l 661 1131 l 661 1124 z "},"ẽ":{"ha":567,"x_min":96,"x_max":597,"o":"m 206 381 l 343 381 l 458 382 l 463 375 l 451 325 l 331 326 l 199 326 l 183 214 l 165 54 l 301 53 l 476 56 l 482 50 l 468 0 l 96 0 l 124 208 l 182 686 l 554 686 l 558 679 l 546 629 l 383 633 l 239 633 l 206 381 m 597 922 l 519 842 l 508 838 q 399 865 482 840 q 292 890 310 890 q 243 854 276 890 q 218 829 218 829 l 210 829 l 186 854 l 186 863 l 265 942 l 275 946 q 388 918 306 943 q 492 894 471 894 q 542 931 506 894 l 567 954 l 575 954 l 597 929 l 597 922 z "},"Ế":{"ha":621,"x_min":99,"x_max":658,"o":"m 226 486 l 390 485 l 531 488 l 536 479 l 522 428 l 376 429 l 218 428 l 199 274 l 174 58 l 344 57 l 549 61 l 553 53 l 539 0 l 99 0 l 138 269 l 211 888 l 650 888 l 654 879 l 640 826 l 446 829 l 269 828 l 226 486 m 658 1253 l 608 1189 l 550 1128 l 526 1142 l 560 1214 l 619 1278 l 649 1265 l 658 1253 m 469 1142 q 606 1026 535 1081 l 586 994 l 578 994 q 453 1089 514 1039 q 304 994 386 1043 l 294 994 l 282 1026 q 443 1142 360 1075 l 469 1142 z "},"ế":{"ha":567,"x_min":96,"x_max":594,"o":"m 206 381 l 343 381 l 458 382 l 463 375 l 451 325 l 331 326 l 199 326 l 183 214 l 165 54 l 301 53 l 476 56 l 482 50 l 468 0 l 96 0 l 124 208 l 182 686 l 554 686 l 558 679 l 546 629 l 383 633 l 239 633 l 206 381 m 594 1051 l 544 988 l 486 926 l 463 940 l 496 1013 l 556 1076 l 585 1064 l 594 1051 m 406 940 q 542 825 471 879 l 522 793 l 514 793 q 389 888 450 838 q 240 793 322 842 l 231 793 l 218 825 q 379 940 296 874 l 406 940 z "},"Ề":{"ha":621,"x_min":99,"x_max":654,"o":"m 226 486 l 390 485 l 531 488 l 536 479 l 522 428 l 376 429 l 218 428 l 199 274 l 174 58 l 344 57 l 549 61 l 553 53 l 539 0 l 99 0 l 138 269 l 211 888 l 650 888 l 654 879 l 640 826 l 446 829 l 269 828 l 226 486 m 617 1142 l 594 1128 l 535 1188 l 485 1253 l 494 1264 l 524 1278 l 583 1213 l 617 1142 m 474 1142 q 611 1026 533 1086 l 592 994 l 582 994 q 457 1089 518 1039 q 308 994 390 1043 l 299 994 l 288 1026 q 447 1142 365 1076 l 474 1142 z "},"ề":{"ha":567,"x_min":96,"x_max":558,"o":"m 206 381 l 343 381 l 458 382 l 463 375 l 451 325 l 331 326 l 199 326 l 183 214 l 165 54 l 301 53 l 476 56 l 482 50 l 468 0 l 96 0 l 124 208 l 182 686 l 554 686 l 558 679 l 546 629 l 383 633 l 239 633 l 206 381 m 553 940 l 531 926 l 471 986 l 421 1051 l 431 1063 l 460 1076 l 519 1011 l 553 940 m 410 940 q 547 825 469 885 l 528 793 l 518 793 q 393 888 454 838 q 244 793 326 842 l 235 793 l 224 825 q 383 940 301 875 l 410 940 z "},"Ể":{"ha":621,"x_min":99,"x_max":654,"o":"m 226 486 l 390 485 l 531 488 l 536 479 l 522 428 l 376 429 l 218 428 l 199 274 l 174 58 l 344 57 l 549 61 l 553 53 l 539 0 l 99 0 l 138 269 l 211 888 l 650 888 l 654 879 l 640 826 l 446 829 l 269 828 l 226 486 m 572 1324 q 623 1306 603 1324 q 643 1261 643 1288 q 578 1168 643 1221 l 600 1128 l 567 1111 l 532 1174 q 599 1254 599 1219 q 564 1281 599 1281 q 490 1251 528 1281 l 474 1276 q 572 1324 525 1324 m 471 1142 q 608 1028 533 1085 l 589 994 l 579 994 q 454 1089 517 1040 q 306 994 396 1050 l 296 994 l 285 1028 q 444 1142 357 1074 l 471 1142 z "},"ể":{"ha":567,"x_min":96,"x_max":579,"o":"m 206 381 l 343 381 l 458 382 l 463 375 l 451 325 l 331 326 l 199 326 l 183 214 l 165 54 l 301 53 l 476 56 l 482 50 l 468 0 l 96 0 l 124 208 l 182 686 l 554 686 l 558 679 l 546 629 l 383 633 l 239 633 l 206 381 m 508 1122 q 559 1104 539 1122 q 579 1060 579 1086 q 514 967 579 1019 l 536 926 l 503 910 l 468 972 q 535 1053 535 1018 q 500 1079 535 1079 q 426 1050 464 1079 l 410 1075 q 508 1122 461 1122 m 407 940 q 544 826 469 883 l 525 793 l 515 793 q 390 888 453 839 q 242 793 332 849 l 232 793 l 221 826 q 381 940 293 872 l 407 940 z "},"Ễ":{"ha":621,"x_min":99,"x_max":654,"o":"m 226 486 l 390 485 l 531 488 l 536 479 l 522 428 l 376 429 l 218 428 l 199 274 l 174 58 l 344 57 l 549 61 l 553 53 l 539 0 l 99 0 l 138 269 l 211 888 l 650 888 l 654 879 l 640 826 l 446 829 l 269 828 l 226 486 m 617 1142 l 594 1128 l 535 1188 l 485 1253 l 494 1264 l 524 1278 l 583 1213 l 617 1142 m 474 1142 q 611 1026 533 1086 l 592 994 l 582 994 q 457 1089 518 1039 q 308 994 390 1043 l 299 994 l 288 1026 q 447 1142 365 1076 l 474 1142 z "},"ễ":{"ha":567,"x_min":96,"x_max":624,"o":"m 206 381 l 343 381 l 458 382 l 463 375 l 451 325 l 331 326 l 199 326 l 183 214 l 165 54 l 301 53 l 476 56 l 482 50 l 468 0 l 96 0 l 124 208 l 182 686 l 554 686 l 558 679 l 546 629 l 383 633 l 239 633 l 206 381 m 624 1067 l 550 988 l 540 985 q 432 1013 511 988 q 336 1036 356 1036 q 292 1003 322 1036 l 265 976 l 258 976 l 236 1000 l 236 1008 l 310 1086 l 319 1090 q 425 1063 349 1088 q 525 1039 517 1039 q 572 1075 536 1039 l 594 1099 l 603 1099 l 624 1075 l 624 1067 m 414 943 q 550 828 494 869 l 531 796 l 522 796 q 397 890 478 826 q 249 796 300 826 l 239 796 l 226 828 q 388 943 290 867 l 414 943 z "},"Ệ":{"ha":621,"x_min":99,"x_max":654,"o":"m 226 486 l 390 485 l 531 488 l 536 479 l 522 428 l 376 429 l 218 428 l 199 274 l 174 58 l 344 57 l 549 61 l 553 53 l 539 0 l 99 0 l 138 269 l 211 888 l 650 888 l 654 879 l 640 826 l 446 829 l 269 828 l 226 486 m 343 -111 q 374 -123 363 -111 q 386 -154 386 -135 q 374 -188 386 -175 q 340 -201 361 -201 q 309 -189 321 -201 q 297 -157 297 -176 q 343 -111 297 -111 m 294 1053 q 456 1168 372 1101 l 482 1168 q 619 1053 542 1113 l 600 1021 l 590 1021 q 465 1115 526 1065 q 317 1021 399 1069 l 307 1021 l 294 1053 z "},"ệ":{"ha":567,"x_min":96,"x_max":558,"o":"m 206 381 l 343 381 l 458 382 l 463 375 l 451 325 l 331 326 l 199 326 l 183 214 l 165 54 l 301 53 l 476 56 l 482 50 l 468 0 l 96 0 l 124 208 l 182 686 l 554 686 l 558 679 l 546 629 l 383 633 l 239 633 l 206 381 m 286 -111 q 317 -123 306 -111 q 329 -154 329 -135 q 317 -188 329 -175 q 283 -201 304 -201 q 252 -189 264 -201 q 240 -157 240 -176 q 286 -111 240 -111 m 224 800 q 399 981 294 867 l 426 981 q 558 800 490 883 l 535 771 l 525 771 q 407 925 465 840 q 250 771 315 829 l 240 771 l 224 800 z "},"Ỉ":{"ha":343,"x_min":99,"x_max":326,"o":"m 167 0 l 99 0 l 136 269 l 210 888 l 278 888 l 199 274 l 167 0 m 253 1219 q 305 1201 283 1219 q 326 1154 326 1182 q 257 1057 326 1111 l 282 1014 l 247 996 l 210 1063 q 279 1147 279 1113 q 243 1176 279 1176 q 165 1143 206 1176 l 149 1171 q 253 1219 201 1219 z "},"ỉ":{"ha":338,"x_min":96,"x_max":299,"o":"m 160 0 l 96 0 l 125 208 l 182 686 l 246 686 l 185 214 l 160 0 m 225 1018 q 277 999 256 1018 q 299 953 299 981 q 229 856 299 910 l 254 813 l 219 794 l 182 861 q 251 946 251 911 q 215 975 251 975 q 138 942 178 975 l 121 969 q 225 1018 174 1018 z "},"Ị":{"ha":343,"x_min":79,"x_max":278,"o":"m 167 0 l 99 0 l 136 269 l 210 888 l 278 888 l 199 274 l 167 0 m 125 -111 q 156 -123 144 -111 q 168 -154 168 -135 q 156 -188 168 -175 q 122 -201 143 -201 q 91 -189 103 -201 q 79 -157 79 -176 q 125 -111 79 -111 z "},"ị":{"ha":338,"x_min":76,"x_max":246,"o":"m 160 0 l 96 0 l 125 208 l 182 686 l 246 686 l 185 214 l 160 0 m 122 -111 q 153 -123 142 -111 q 165 -154 165 -135 q 153 -188 165 -175 q 119 -201 140 -201 q 88 -189 100 -201 q 76 -157 76 -176 q 122 -111 76 -111 z "},"Ọ":{"ha":840,"x_min":71,"x_max":804,"o":"m 497 896 q 724 803 644 896 q 804 543 804 711 q 754 249 804 374 q 608 58 704 125 q 376 -8 511 -8 q 151 86 231 -8 q 71 353 71 181 q 121 643 71 521 q 267 831 171 765 q 497 896 363 896 m 490 838 q 230 712 319 838 q 140 358 140 586 q 202 129 140 208 q 382 50 264 50 q 644 177 553 50 q 735 533 735 304 q 673 760 735 683 q 490 838 611 838 m 404 -111 q 435 -123 424 -111 q 447 -154 447 -135 q 435 -188 447 -175 q 401 -201 422 -201 q 370 -189 382 -201 q 358 -157 358 -176 q 404 -111 358 -111 z "},"ọ":{"ha":744,"x_min":71,"x_max":683,"o":"m 424 693 q 616 620 549 693 q 683 408 683 547 q 642 190 683 283 q 520 44 600 96 q 331 -7 440 -7 q 138 67 206 -7 q 71 283 71 142 q 164 583 71 474 q 424 693 257 693 m 415 638 q 209 547 281 638 q 138 289 138 457 q 335 49 138 49 q 544 140 471 49 q 617 400 617 232 q 415 638 617 638 m 353 -111 q 384 -123 372 -111 q 396 -154 396 -135 q 383 -188 396 -175 q 350 -201 371 -201 q 319 -189 331 -201 q 307 -157 307 -176 q 353 -111 307 -111 z "},"Ỏ":{"ha":840,"x_min":71,"x_max":804,"o":"m 497 896 q 724 803 644 896 q 804 543 804 711 q 754 249 804 374 q 608 58 704 125 q 376 -8 511 -8 q 151 86 231 -8 q 71 353 71 181 q 121 643 71 521 q 267 831 171 765 q 497 896 363 896 m 490 838 q 230 712 319 838 q 140 358 140 586 q 202 129 140 208 q 382 50 264 50 q 644 177 553 50 q 735 533 735 304 q 673 760 735 683 q 490 838 611 838 m 501 1219 q 553 1201 532 1219 q 575 1154 575 1182 q 506 1057 575 1111 l 531 1014 l 496 996 l 458 1063 q 528 1147 528 1113 q 492 1176 528 1176 q 414 1143 454 1176 l 397 1171 q 501 1219 450 1219 z "},"ỏ":{"ha":744,"x_min":71,"x_max":683,"o":"m 424 693 q 616 620 549 693 q 683 408 683 547 q 642 190 683 283 q 520 44 600 96 q 331 -7 440 -7 q 138 67 206 -7 q 71 283 71 142 q 164 583 71 474 q 424 693 257 693 m 415 638 q 209 547 281 638 q 138 289 138 457 q 335 49 138 49 q 544 140 471 49 q 617 400 617 232 q 415 638 617 638 m 426 1018 q 478 999 457 1018 q 500 953 500 981 q 431 856 500 910 l 456 813 l 421 794 l 383 861 q 453 946 453 911 q 417 975 453 975 q 339 942 379 975 l 322 969 q 426 1018 375 1018 z "},"Ố":{"ha":840,"x_min":71,"x_max":804,"o":"m 497 896 q 724 803 644 896 q 804 543 804 711 q 754 249 804 374 q 608 58 704 125 q 376 -8 511 -8 q 151 86 231 -8 q 71 353 71 181 q 121 643 71 521 q 267 831 171 765 q 497 896 363 896 m 490 838 q 230 712 319 838 q 140 358 140 586 q 202 129 140 208 q 382 50 264 50 q 644 177 553 50 q 735 533 735 304 q 673 760 735 683 q 490 838 611 838 m 718 1253 l 668 1189 l 610 1128 l 586 1142 l 619 1214 l 679 1278 l 708 1265 l 718 1253 m 529 1142 q 665 1026 594 1081 l 646 994 l 638 994 q 513 1089 574 1039 q 364 994 446 1043 l 354 994 l 342 1026 q 503 1142 419 1075 l 529 1142 z "},"ố":{"ha":744,"x_min":71,"x_max":683,"o":"m 424 693 q 616 620 549 693 q 683 408 683 547 q 642 190 683 283 q 520 44 600 96 q 331 -7 440 -7 q 138 67 206 -7 q 71 283 71 142 q 164 583 71 474 q 424 693 257 693 m 415 638 q 209 547 281 638 q 138 289 138 457 q 335 49 138 49 q 544 140 471 49 q 617 400 617 232 q 415 638 617 638 m 643 1051 l 593 988 l 535 926 l 511 940 l 544 1013 l 604 1076 l 633 1064 l 643 1051 m 454 940 q 590 825 519 879 l 571 793 l 563 793 q 438 888 499 838 q 289 793 371 842 l 279 793 l 267 825 q 428 940 344 874 l 454 940 z "},"Ồ":{"ha":840,"x_min":71,"x_max":804,"o":"m 497 896 q 724 803 644 896 q 804 543 804 711 q 754 249 804 374 q 608 58 704 125 q 376 -8 511 -8 q 151 86 231 -8 q 71 353 71 181 q 121 643 71 521 q 267 831 171 765 q 497 896 363 896 m 490 838 q 230 712 319 838 q 140 358 140 586 q 202 129 140 208 q 382 50 264 50 q 644 177 553 50 q 735 533 735 304 q 673 760 735 683 q 490 838 611 838 m 676 1142 l 654 1128 l 594 1188 l 544 1253 l 554 1264 l 583 1278 l 643 1213 l 676 1142 m 533 1142 q 671 1026 593 1086 l 651 994 l 642 994 q 517 1089 578 1039 q 368 994 450 1043 l 358 994 l 347 1026 q 507 1142 425 1076 l 533 1142 z "},"ồ":{"ha":744,"x_min":71,"x_max":683,"o":"m 424 693 q 616 620 549 693 q 683 408 683 547 q 642 190 683 283 q 520 44 600 96 q 331 -7 440 -7 q 138 67 206 -7 q 71 283 71 142 q 164 583 71 474 q 424 693 257 693 m 415 638 q 209 547 281 638 q 138 289 138 457 q 335 49 138 49 q 544 140 471 49 q 617 400 617 232 q 415 638 617 638 m 601 940 l 579 926 l 519 986 l 469 1051 l 479 1063 l 508 1076 l 568 1011 l 601 940 m 458 940 q 596 825 518 885 l 576 793 l 567 793 q 442 888 503 838 q 293 793 375 842 l 283 793 l 272 825 q 432 940 350 875 l 458 940 z "},"Ổ":{"ha":840,"x_min":71,"x_max":804,"o":"m 497 896 q 724 803 644 896 q 804 543 804 711 q 754 249 804 374 q 608 58 704 125 q 376 -8 511 -8 q 151 86 231 -8 q 71 353 71 181 q 121 643 71 521 q 267 831 171 765 q 497 896 363 896 m 490 838 q 230 712 319 838 q 140 358 140 586 q 202 129 140 208 q 382 50 264 50 q 644 177 553 50 q 735 533 735 304 q 673 760 735 683 q 490 838 611 838 m 632 1324 q 683 1306 663 1324 q 703 1261 703 1288 q 638 1168 703 1221 l 660 1128 l 626 1111 l 592 1174 q 658 1254 658 1219 q 624 1281 658 1281 q 550 1251 588 1281 l 533 1276 q 632 1324 585 1324 m 531 1142 q 668 1028 593 1085 l 649 994 l 639 994 q 514 1089 576 1040 q 365 994 456 1050 l 356 994 l 344 1028 q 504 1142 417 1074 l 531 1142 z "},"ổ":{"ha":744,"x_min":71,"x_max":683,"o":"m 424 693 q 616 620 549 693 q 683 408 683 547 q 642 190 683 283 q 520 44 600 96 q 331 -7 440 -7 q 138 67 206 -7 q 71 283 71 142 q 164 583 71 474 q 424 693 257 693 m 415 638 q 209 547 281 638 q 138 289 138 457 q 335 49 138 49 q 544 140 471 49 q 617 400 617 232 q 415 638 617 638 m 557 1122 q 608 1104 588 1122 q 628 1060 628 1086 q 563 967 628 1019 l 585 926 l 551 910 l 517 972 q 583 1053 583 1018 q 549 1079 583 1079 q 475 1050 513 1079 l 458 1075 q 557 1122 510 1122 m 456 940 q 593 826 518 883 l 574 793 l 564 793 q 439 888 501 839 q 290 793 381 849 l 281 793 l 269 826 q 429 940 342 872 l 456 940 z "},"Ỗ":{"ha":840,"x_min":71,"x_max":804,"o":"m 497 896 q 724 803 644 896 q 804 543 804 711 q 754 249 804 374 q 608 58 704 125 q 376 -8 511 -8 q 151 86 231 -8 q 71 353 71 181 q 121 643 71 521 q 267 831 171 765 q 497 896 363 896 m 490 838 q 230 712 319 838 q 140 358 140 586 q 202 129 140 208 q 382 50 264 50 q 644 177 553 50 q 735 533 735 304 q 673 760 735 683 q 490 838 611 838 m 747 1268 l 674 1189 l 664 1186 q 556 1214 635 1189 q 460 1238 479 1238 q 415 1204 446 1238 l 389 1178 l 382 1178 l 360 1201 l 360 1210 l 433 1288 l 443 1292 q 549 1264 472 1289 q 649 1240 640 1240 q 696 1276 660 1240 l 718 1300 l 726 1300 l 747 1276 l 747 1268 m 538 1144 q 674 1029 618 1071 l 654 997 l 646 997 q 521 1092 601 1028 q 372 997 424 1028 l 363 997 l 350 1029 q 511 1144 414 1068 l 538 1144 z "},"ỗ":{"ha":744,"x_min":71,"x_max":683,"o":"m 424 693 q 616 620 549 693 q 683 408 683 547 q 642 190 683 283 q 520 44 600 96 q 331 -7 440 -7 q 138 67 206 -7 q 71 283 71 142 q 164 583 71 474 q 424 693 257 693 m 415 638 q 209 547 281 638 q 138 289 138 457 q 335 49 138 49 q 544 140 471 49 q 617 400 617 232 q 415 638 617 638 m 672 1067 l 599 988 l 589 985 q 481 1013 560 988 q 385 1036 404 1036 q 340 1003 371 1036 l 314 976 l 307 976 l 285 1000 l 285 1008 l 358 1086 l 368 1090 q 474 1063 397 1088 q 574 1039 565 1039 q 621 1075 585 1039 l 643 1099 l 651 1099 l 672 1075 l 672 1067 m 463 943 q 599 828 543 869 l 579 796 l 571 796 q 446 890 526 826 q 297 796 349 826 l 288 796 l 275 828 q 436 943 339 867 l 463 943 z "},"Ộ":{"ha":840,"x_min":71,"x_max":804,"o":"m 354 1053 q 515 1168 432 1101 l 542 1168 q 679 1053 601 1113 l 660 1021 l 650 1021 q 525 1115 586 1065 q 376 1021 458 1069 l 367 1021 l 354 1053 m 496 896 q 724 803 644 896 q 804 543 804 711 q 754 249 804 374 q 608 58 704 125 q 376 -8 511 -8 q 151 86 231 -8 q 71 353 71 181 q 120 643 71 521 q 265 831 169 765 q 496 896 361 896 m 490 838 q 230 712 319 838 q 140 358 140 586 q 202 129 140 208 q 382 50 264 50 q 644 177 553 50 q 735 533 735 304 q 673 760 735 683 q 490 838 611 838 m 404 -111 q 435 -123 424 -111 q 447 -154 447 -135 q 435 -188 447 -175 q 401 -201 422 -201 q 370 -189 382 -201 q 358 -157 358 -176 q 404 -111 358 -111 z "},"ộ":{"ha":744,"x_min":71,"x_max":683,"o":"m 271 800 q 446 981 342 867 l 474 981 q 606 800 538 883 l 582 771 l 572 771 q 454 925 513 840 q 297 771 363 829 l 288 771 l 271 800 m 424 693 q 616 620 549 693 q 683 408 683 547 q 642 190 683 283 q 520 44 600 96 q 331 -7 440 -7 q 138 67 206 -7 q 71 283 71 142 q 164 583 71 474 q 424 693 257 693 m 415 638 q 209 547 281 638 q 138 289 138 457 q 335 49 138 49 q 544 140 471 49 q 617 400 617 232 q 415 638 617 638 m 353 -111 q 384 -123 372 -111 q 396 -154 396 -135 q 383 -188 396 -175 q 350 -201 371 -201 q 319 -189 331 -201 q 307 -157 307 -176 q 353 -111 307 -111 z "},"Ớ":{"ha":843,"x_min":71,"x_max":893,"o":"m 843 1054 q 877 1026 861 1054 q 893 957 893 997 q 844 847 893 888 q 721 807 796 807 q 803 529 803 715 q 752 249 803 371 q 606 60 701 128 q 378 -8 510 -8 q 71 369 71 -8 q 122 644 71 525 q 268 830 172 764 q 497 896 364 896 q 647 867 574 896 q 725 849 696 849 q 803 874 769 849 q 836 944 836 899 q 804 1031 836 990 l 807 1039 q 843 1054 829 1054 m 489 838 q 231 712 322 838 q 139 375 139 586 q 199 130 139 210 q 385 50 260 50 q 574 108 494 50 q 694 272 653 167 q 735 517 735 378 q 674 759 735 681 q 489 838 613 838 m 671 1138 l 668 1128 q 413 1004 557 1071 l 403 1008 l 388 1043 q 643 1179 506 1099 l 653 1176 l 671 1138 z "},"ớ":{"ha":750,"x_min":71,"x_max":757,"o":"m 679 804 q 711 817 696 817 q 742 794 728 817 q 757 739 757 772 q 717 648 757 683 q 618 615 676 613 q 682 413 682 547 q 640 190 682 285 q 519 44 599 96 q 331 -7 440 -7 q 139 67 207 -7 q 71 276 71 142 q 163 583 71 472 q 424 693 256 693 q 551 671 482 693 q 614 657 596 657 q 677 676 650 657 q 704 729 704 696 q 675 797 704 764 l 679 804 m 336 47 q 544 140 472 47 q 617 407 617 233 q 414 639 617 639 q 208 547 278 639 q 138 281 138 454 q 336 47 138 47 m 578 936 l 575 926 q 319 803 464 869 l 310 807 l 294 842 q 550 978 413 897 l 560 975 l 578 936 z "},"Ờ":{"ha":843,"x_min":71,"x_max":893,"o":"m 843 1054 q 877 1026 861 1054 q 893 957 893 997 q 844 847 893 888 q 721 807 796 807 q 803 529 803 715 q 752 249 803 371 q 606 60 701 128 q 378 -8 510 -8 q 71 369 71 -8 q 122 644 71 525 q 268 830 172 764 q 497 896 364 896 q 647 867 574 896 q 725 849 696 849 q 803 874 769 849 q 836 944 836 899 q 804 1031 836 990 l 807 1039 q 843 1054 829 1054 m 489 838 q 231 712 322 838 q 139 375 139 586 q 199 130 139 210 q 385 50 260 50 q 574 108 494 50 q 694 272 653 167 q 735 517 735 378 q 674 759 735 681 q 489 838 613 838 m 401 1181 q 657 1044 503 1121 l 643 1010 l 633 1006 q 601 1021 592 1026 q 378 1129 453 1090 l 374 1139 l 393 1178 l 401 1181 z "},"ờ":{"ha":750,"x_min":71,"x_max":757,"o":"m 679 804 q 711 817 696 817 q 742 794 728 817 q 757 739 757 772 q 717 648 757 683 q 618 615 676 613 q 682 413 682 547 q 640 190 682 285 q 519 44 599 96 q 331 -7 440 -7 q 139 67 207 -7 q 71 276 71 142 q 163 583 71 472 q 424 693 256 693 q 551 671 482 693 q 614 657 596 657 q 677 676 650 657 q 704 729 704 696 q 675 797 704 764 l 679 804 m 336 47 q 544 140 472 47 q 617 407 617 233 q 414 639 617 639 q 208 547 278 639 q 138 281 138 454 q 336 47 138 47 m 307 979 q 563 843 408 919 l 549 808 l 539 804 q 507 819 497 825 q 283 928 358 889 l 279 938 l 299 976 l 307 979 z "},"Ở":{"ha":843,"x_min":71,"x_max":893,"o":"m 843 1054 q 877 1026 861 1054 q 893 957 893 997 q 844 847 893 888 q 721 807 796 807 q 803 529 803 715 q 752 249 803 371 q 606 60 701 128 q 378 -8 510 -8 q 71 369 71 -8 q 122 644 71 525 q 268 830 172 764 q 497 896 364 896 q 647 867 574 896 q 725 849 696 849 q 803 874 769 849 q 836 944 836 899 q 804 1031 836 990 l 807 1039 q 843 1054 829 1054 m 489 838 q 231 712 322 838 q 139 375 139 586 q 199 130 139 210 q 385 50 260 50 q 574 108 494 50 q 694 272 653 167 q 735 517 735 378 q 674 759 735 681 q 489 838 613 838 m 501 1219 q 553 1201 532 1219 q 575 1154 575 1182 q 506 1057 575 1111 l 531 1014 l 496 996 l 458 1063 q 528 1147 528 1113 q 492 1176 528 1176 q 414 1143 454 1176 l 397 1171 q 501 1219 450 1219 z "},"ở":{"ha":750,"x_min":71,"x_max":757,"o":"m 679 804 q 711 817 696 817 q 742 794 728 817 q 757 739 757 772 q 717 648 757 683 q 618 615 676 613 q 682 413 682 547 q 640 190 682 285 q 519 44 599 96 q 331 -7 440 -7 q 139 67 207 -7 q 71 276 71 142 q 163 583 71 472 q 424 693 256 693 q 551 671 482 693 q 614 657 596 657 q 677 676 650 657 q 704 729 704 696 q 675 797 704 764 l 679 804 m 336 47 q 544 140 472 47 q 617 407 617 233 q 414 639 617 639 q 208 547 278 639 q 138 281 138 454 q 336 47 138 47 m 407 1018 q 459 999 438 1018 q 481 953 481 981 q 411 856 481 910 l 436 813 l 401 794 l 364 861 q 433 946 433 911 q 397 975 433 975 q 319 942 360 975 l 303 969 q 407 1018 356 1018 z "},"Ỡ":{"ha":843,"x_min":71,"x_max":893,"o":"m 843 1054 q 877 1026 861 1054 q 893 957 893 997 q 844 847 893 888 q 721 807 796 807 q 803 529 803 715 q 752 249 803 371 q 606 60 701 128 q 378 -8 510 -8 q 71 369 71 -8 q 122 644 71 525 q 268 830 172 764 q 497 896 364 896 q 647 867 574 896 q 725 849 696 849 q 803 874 769 849 q 836 944 836 899 q 804 1031 836 990 l 807 1039 q 843 1054 829 1054 m 489 838 q 231 712 322 838 q 139 375 139 586 q 199 130 139 210 q 385 50 260 50 q 574 108 494 50 q 694 272 653 167 q 735 517 735 378 q 674 759 735 681 q 489 838 613 838 m 721 1124 l 643 1043 l 632 1039 q 522 1067 606 1042 q 415 1092 433 1092 q 367 1056 400 1092 q 342 1031 342 1031 l 333 1031 l 310 1056 l 310 1064 l 389 1143 l 399 1147 q 511 1119 429 1144 q 615 1096 594 1096 q 665 1132 629 1096 l 690 1156 l 699 1156 l 721 1131 l 721 1124 z "},"ỡ":{"ha":750,"x_min":71,"x_max":757,"o":"m 679 804 q 711 817 696 817 q 742 794 728 817 q 757 739 757 772 q 717 648 757 683 q 618 615 676 613 q 682 413 682 547 q 640 190 682 285 q 519 44 599 96 q 331 -7 440 -7 q 139 67 207 -7 q 71 276 71 142 q 163 583 71 472 q 424 693 256 693 q 551 671 482 693 q 614 657 596 657 q 677 676 650 657 q 704 729 704 696 q 675 797 704 764 l 679 804 m 336 47 q 544 140 472 47 q 617 407 617 233 q 414 639 617 639 q 208 547 278 639 q 138 281 138 454 q 336 47 138 47 m 626 922 l 549 842 l 538 838 q 428 865 511 840 q 321 890 339 890 q 272 854 306 890 q 247 829 247 829 l 239 829 l 215 854 l 215 863 l 294 942 l 304 946 q 417 918 335 943 q 521 894 500 894 q 571 931 535 894 l 596 954 l 604 954 l 626 929 l 626 922 z "},"Ợ":{"ha":843,"x_min":71,"x_max":893,"o":"m 843 1054 q 877 1026 861 1054 q 893 957 893 997 q 844 847 893 888 q 721 807 796 807 q 803 529 803 715 q 752 249 803 371 q 606 60 701 128 q 378 -8 510 -8 q 71 369 71 -8 q 122 644 71 525 q 268 830 172 764 q 497 896 364 896 q 647 867 574 896 q 725 849 696 849 q 803 874 769 849 q 836 944 836 899 q 804 1031 836 990 l 807 1039 q 843 1054 829 1054 m 489 838 q 231 712 322 838 q 139 375 139 586 q 199 130 139 210 q 385 50 260 50 q 574 108 494 50 q 694 272 653 167 q 735 517 735 378 q 674 759 735 681 q 489 838 613 838 m 404 -111 q 435 -123 424 -111 q 447 -154 447 -135 q 435 -188 447 -175 q 401 -201 422 -201 q 370 -189 382 -201 q 358 -157 358 -176 q 404 -111 358 -111 z "},"ợ":{"ha":750,"x_min":71,"x_max":757,"o":"m 679 804 q 711 817 696 817 q 742 794 728 817 q 757 739 757 772 q 717 648 757 683 q 618 615 676 613 q 682 413 682 547 q 640 190 682 285 q 519 44 599 96 q 331 -7 440 -7 q 139 67 207 -7 q 71 276 71 142 q 163 583 71 472 q 424 693 256 693 q 551 671 482 693 q 614 657 596 657 q 677 676 650 657 q 704 729 704 696 q 675 797 704 764 l 679 804 m 336 47 q 544 140 472 47 q 617 407 617 233 q 414 639 617 639 q 208 547 278 639 q 138 281 138 454 q 336 47 138 47 m 353 -111 q 384 -123 372 -111 q 396 -154 396 -135 q 383 -188 396 -175 q 350 -201 371 -201 q 319 -189 331 -201 q 307 -157 307 -176 q 353 -111 307 -111 z "},"Ụ":{"ha":819,"x_min":104,"x_max":783,"o":"m 713 326 q 608 80 696 167 q 374 -7 521 -7 q 175 59 246 -7 q 104 247 104 125 q 110 322 104 288 l 128 447 l 182 888 l 247 888 l 174 328 q 169 263 169 294 q 222 106 169 160 q 376 53 275 53 q 563 122 493 53 q 650 322 633 190 l 717 888 l 783 888 l 725 435 l 713 326 m 378 -111 q 409 -123 397 -111 q 421 -154 421 -135 q 408 -188 421 -175 q 375 -201 396 -201 q 344 -189 356 -201 q 332 -157 332 -176 q 378 -111 332 -111 z "},"ụ":{"ha":731,"x_min":99,"x_max":667,"o":"m 608 243 q 523 59 596 124 q 328 -6 450 -6 q 158 45 218 -6 q 99 192 99 96 q 103 243 99 217 l 118 344 l 160 686 l 224 686 l 164 251 q 161 208 161 221 q 205 90 161 131 q 332 50 249 50 q 550 251 525 50 l 603 686 l 667 686 l 621 336 l 608 243 m 325 -111 q 356 -123 344 -111 q 368 -154 368 -135 q 356 -188 368 -175 q 322 -201 343 -201 q 291 -189 303 -201 q 279 -157 279 -176 q 325 -111 279 -111 z "},"Ủ":{"ha":819,"x_min":104,"x_max":783,"o":"m 713 326 q 608 80 696 167 q 374 -7 521 -7 q 175 59 246 -7 q 104 247 104 125 q 110 322 104 288 l 128 447 l 182 888 l 247 888 l 174 328 q 169 263 169 294 q 222 106 169 160 q 376 53 275 53 q 563 122 493 53 q 650 322 633 190 l 717 888 l 783 888 l 725 435 l 713 326 m 492 1219 q 544 1201 522 1219 q 565 1154 565 1182 q 496 1057 565 1111 l 521 1014 l 486 996 l 449 1063 q 518 1147 518 1113 q 482 1176 518 1176 q 404 1143 444 1176 l 388 1171 q 492 1219 440 1219 z "},"ủ":{"ha":731,"x_min":99,"x_max":667,"o":"m 608 243 q 523 59 596 124 q 328 -6 450 -6 q 158 45 218 -6 q 99 192 99 96 q 103 243 99 217 l 118 344 l 160 686 l 224 686 l 164 251 q 161 208 161 221 q 205 90 161 131 q 332 50 249 50 q 550 251 525 50 l 603 686 l 667 686 l 621 336 l 608 243 m 419 1018 q 472 999 450 1018 q 493 953 493 981 q 424 856 493 910 l 449 813 l 414 794 l 376 861 q 446 946 446 911 q 410 975 446 975 q 332 942 372 975 l 315 969 q 419 1018 368 1018 z "},"Ứ":{"ha":831,"x_min":104,"x_max":888,"o":"m 888 963 q 858 887 888 918 q 778 847 829 856 l 725 435 l 713 326 q 608 80 696 167 q 374 -7 521 -7 q 175 59 246 -7 q 104 247 104 125 q 110 322 104 288 l 128 447 l 182 888 l 247 888 l 174 328 q 169 263 169 294 q 222 106 169 160 q 376 53 275 53 q 563 122 493 53 q 650 322 633 190 l 717 888 l 744 888 q 810 906 786 888 q 833 960 833 925 q 790 1043 833 999 l 794 1053 q 828 1067 813 1067 q 853 1053 839 1067 q 878 1015 868 1039 q 888 963 888 990 m 653 1138 l 650 1128 q 394 1004 539 1071 l 385 1008 l 369 1043 q 625 1179 488 1099 l 635 1176 l 653 1138 z "},"ứ":{"ha":743,"x_min":99,"x_max":761,"o":"m 761 756 q 733 690 761 718 q 661 651 706 661 l 619 336 l 608 243 q 522 59 596 124 q 326 -6 449 -6 q 158 45 218 -6 q 99 192 99 96 q 103 243 99 217 l 118 344 l 160 686 l 224 686 l 164 251 q 161 208 161 236 q 204 90 161 131 q 332 50 247 50 q 482 101 426 50 q 550 251 538 153 l 603 686 l 628 686 q 686 703 665 686 q 707 749 707 719 q 679 807 707 778 l 682 814 q 717 828 706 828 q 747 806 732 828 q 761 756 761 785 m 589 936 l 586 926 q 331 803 475 869 l 321 807 l 306 842 q 561 978 424 897 l 571 975 l 589 936 z "},"Ừ":{"ha":831,"x_min":104,"x_max":888,"o":"m 888 963 q 858 887 888 918 q 778 847 829 856 l 725 435 l 713 326 q 608 80 696 167 q 374 -7 521 -7 q 175 59 246 -7 q 104 247 104 125 q 110 322 104 288 l 128 447 l 182 888 l 247 888 l 174 328 q 169 263 169 294 q 222 106 169 160 q 376 53 275 53 q 563 122 493 53 q 650 322 633 190 l 717 888 l 744 888 q 810 906 786 888 q 833 960 833 925 q 790 1043 833 999 l 794 1053 q 828 1067 813 1067 q 853 1053 839 1067 q 878 1015 868 1039 q 888 963 888 990 m 382 1181 q 638 1044 483 1121 l 624 1010 l 614 1006 q 582 1021 572 1026 q 358 1129 433 1090 l 354 1139 l 374 1178 l 382 1181 z "},"ừ":{"ha":743,"x_min":99,"x_max":761,"o":"m 761 756 q 733 690 761 718 q 661 651 706 661 l 619 336 l 608 243 q 522 59 596 124 q 326 -6 449 -6 q 158 45 218 -6 q 99 192 99 96 q 103 243 99 217 l 118 344 l 160 686 l 224 686 l 164 251 q 161 208 161 236 q 204 90 161 131 q 332 50 247 50 q 482 101 426 50 q 550 251 538 153 l 603 686 l 628 686 q 686 703 665 686 q 707 749 707 719 q 679 807 707 778 l 682 814 q 717 828 706 828 q 747 806 732 828 q 761 756 761 785 m 318 979 q 574 843 419 919 l 560 808 l 550 804 q 518 819 508 825 q 294 928 369 889 l 290 938 l 310 976 l 318 979 z "},"Ử":{"ha":831,"x_min":104,"x_max":888,"o":"m 888 963 q 858 887 888 918 q 778 847 829 856 l 725 435 l 713 326 q 608 80 696 167 q 374 -7 521 -7 q 175 59 246 -7 q 104 247 104 125 q 110 322 104 288 l 128 447 l 182 888 l 247 888 l 174 328 q 169 263 169 294 q 222 106 169 160 q 376 53 275 53 q 563 122 493 53 q 650 322 633 190 l 717 888 l 744 888 q 810 906 786 888 q 833 960 833 925 q 790 1043 833 999 l 794 1053 q 828 1067 813 1067 q 853 1053 839 1067 q 878 1015 868 1039 q 888 963 888 990 m 483 1219 q 535 1201 514 1219 q 557 1154 557 1182 q 488 1057 557 1111 l 513 1014 l 478 996 l 440 1063 q 510 1147 510 1113 q 474 1176 510 1176 q 396 1143 436 1176 l 379 1171 q 483 1219 432 1219 z "},"ử":{"ha":743,"x_min":99,"x_max":761,"o":"m 761 756 q 733 690 761 718 q 661 651 706 661 l 619 336 l 608 243 q 522 59 596 124 q 326 -6 449 -6 q 158 45 218 -6 q 99 192 99 96 q 103 243 99 217 l 118 344 l 160 686 l 224 686 l 164 251 q 161 208 161 236 q 204 90 161 131 q 332 50 247 50 q 482 101 426 50 q 550 251 538 153 l 603 686 l 628 686 q 686 703 665 686 q 707 749 707 719 q 679 807 707 778 l 682 814 q 717 828 706 828 q 747 806 732 828 q 761 756 761 785 m 419 1018 q 472 999 450 1018 q 493 953 493 981 q 424 856 493 910 l 449 813 l 414 794 l 376 861 q 446 946 446 911 q 410 975 446 975 q 332 942 372 975 l 315 969 q 419 1018 368 1018 z "},"Ữ":{"ha":831,"x_min":104,"x_max":888,"o":"m 888 963 q 858 887 888 918 q 778 847 829 856 l 725 435 l 713 326 q 608 80 696 167 q 374 -7 521 -7 q 175 59 246 -7 q 104 247 104 125 q 110 322 104 288 l 128 447 l 182 888 l 247 888 l 174 328 q 169 263 169 294 q 222 106 169 160 q 376 53 275 53 q 563 122 493 53 q 650 322 633 190 l 717 888 l 744 888 q 810 906 786 888 q 833 960 833 925 q 790 1043 833 999 l 794 1053 q 828 1067 813 1067 q 853 1053 839 1067 q 878 1015 868 1039 q 888 963 888 990 m 703 1124 l 625 1043 l 614 1039 q 504 1067 588 1042 q 397 1092 415 1092 q 349 1056 382 1092 q 324 1031 324 1031 l 315 1031 l 292 1056 l 292 1064 l 371 1143 l 381 1147 q 493 1119 411 1144 q 597 1096 576 1096 q 647 1132 611 1096 l 672 1156 l 681 1156 l 703 1131 l 703 1124 z "},"ữ":{"ha":743,"x_min":99,"x_max":761,"o":"m 761 756 q 733 690 761 718 q 661 651 706 661 l 619 336 l 608 243 q 522 59 596 124 q 326 -6 449 -6 q 158 45 218 -6 q 99 192 99 96 q 103 243 99 217 l 118 344 l 160 686 l 224 686 l 164 251 q 161 208 161 236 q 204 90 161 131 q 332 50 247 50 q 482 101 426 50 q 550 251 538 153 l 603 686 l 628 686 q 686 703 665 686 q 707 749 707 719 q 679 807 707 778 l 682 814 q 717 828 706 828 q 747 806 732 828 q 761 756 761 785 m 639 922 l 561 842 l 550 838 q 440 865 524 840 q 333 890 351 890 q 285 854 318 890 q 260 829 260 829 l 251 829 l 228 854 l 228 863 l 307 942 l 317 946 q 429 918 347 943 q 533 894 513 894 q 583 931 547 894 l 608 954 l 617 954 l 639 929 l 639 922 z "},"Ự":{"ha":831,"x_min":104,"x_max":888,"o":"m 888 963 q 858 887 888 918 q 778 847 829 856 l 725 435 l 713 326 q 608 80 696 167 q 374 -7 521 -7 q 175 59 246 -7 q 104 247 104 125 q 110 322 104 288 l 128 447 l 182 888 l 247 888 l 174 328 q 169 263 169 294 q 222 106 169 160 q 376 53 275 53 q 563 122 493 53 q 650 322 633 190 l 717 888 l 744 888 q 810 906 786 888 q 833 960 833 925 q 790 1043 833 999 l 794 1053 q 828 1067 813 1067 q 853 1053 839 1067 q 878 1015 868 1039 q 888 963 888 990 m 363 -112 q 394 -124 382 -112 q 406 -156 406 -136 q 393 -190 406 -176 q 360 -203 381 -203 q 328 -190 340 -203 q 317 -158 317 -178 q 363 -112 317 -112 z "},"ự":{"ha":743,"x_min":99,"x_max":761,"o":"m 761 756 q 733 690 761 718 q 661 651 706 661 l 619 336 l 608 243 q 522 59 596 124 q 326 -6 449 -6 q 158 45 218 -6 q 99 192 99 96 q 103 243 99 217 l 118 344 l 160 686 l 224 686 l 164 251 q 161 208 161 236 q 204 90 161 131 q 332 50 247 50 q 482 101 426 50 q 550 251 538 153 l 603 686 l 628 686 q 686 703 665 686 q 707 749 707 719 q 679 807 707 778 l 682 814 q 717 828 706 828 q 747 806 732 828 q 761 756 761 785 m 325 -111 q 356 -123 344 -111 q 368 -154 368 -135 q 356 -188 368 -175 q 322 -201 343 -201 q 291 -189 303 -201 q 279 -157 279 -176 q 325 -111 279 -111 z "},"Ỳ":{"ha":675,"x_min":99,"x_max":717,"o":"m 349 265 l 318 0 l 251 0 l 288 265 l 296 331 l 99 888 l 172 888 l 182 844 l 333 411 l 342 411 l 619 843 l 642 888 l 717 888 l 358 332 l 349 265 m 318 1181 q 574 1044 419 1121 l 560 1010 l 550 1006 q 518 1021 508 1026 q 294 1129 369 1090 l 290 1139 l 310 1178 l 318 1181 z "},"ỳ":{"ha":613,"x_min":92,"x_max":614,"o":"m 313 203 l 288 0 l 225 0 l 253 203 l 260 256 l 92 686 l 163 686 l 171 653 l 296 326 l 303 326 l 525 650 l 544 686 l 614 686 l 319 247 l 313 203 m 272 1001 q 486 806 374 900 l 464 775 l 454 774 q 238 957 318 885 l 236 965 l 263 1000 l 272 1001 z "},"Ỵ":{"ha":675,"x_min":99,"x_max":717,"o":"m 349 265 l 318 0 l 251 0 l 288 265 l 296 331 l 99 888 l 172 888 l 182 844 l 333 411 l 342 411 l 619 843 l 642 888 l 717 888 l 358 332 l 349 265 m 274 -111 q 305 -123 293 -111 q 317 -154 317 -135 q 304 -188 317 -175 q 271 -201 292 -201 q 240 -189 251 -201 q 228 -157 228 -176 q 274 -111 228 -111 z "},"ỵ":{"ha":613,"x_min":92,"x_max":614,"o":"m 313 203 l 288 0 l 225 0 l 253 203 l 260 256 l 92 686 l 163 686 l 171 653 l 296 326 l 303 326 l 525 650 l 544 686 l 614 686 l 319 247 l 313 203 m 246 -111 q 277 -123 265 -111 q 289 -154 289 -135 q 276 -188 289 -175 q 243 -201 264 -201 q 212 -189 224 -201 q 200 -157 200 -176 q 246 -111 200 -111 z "},"Ỷ":{"ha":675,"x_min":99,"x_max":717,"o":"m 349 265 l 318 0 l 251 0 l 288 265 l 296 331 l 99 888 l 172 888 l 182 844 l 333 411 l 342 411 l 619 843 l 642 888 l 717 888 l 358 332 l 349 265 m 419 1219 q 472 1201 450 1219 q 493 1154 493 1182 q 424 1057 493 1111 l 449 1014 l 414 996 l 376 1063 q 446 1147 446 1113 q 410 1176 446 1176 q 332 1143 372 1176 l 315 1171 q 419 1219 368 1219 z "},"ỷ":{"ha":613,"x_min":92,"x_max":614,"o":"m 313 203 l 288 0 l 225 0 l 253 203 l 260 256 l 92 686 l 163 686 l 171 653 l 296 326 l 303 326 l 525 650 l 544 686 l 614 686 l 319 247 l 313 203 m 361 1018 q 413 999 392 1018 q 435 953 435 981 q 365 856 435 910 l 390 813 l 356 794 l 318 861 q 388 946 388 911 q 351 975 388 975 q 274 942 314 975 l 257 969 q 361 1018 310 1018 z "},"Ỹ":{"ha":675,"x_min":99,"x_max":717,"o":"m 349 265 l 318 0 l 251 0 l 288 265 l 296 331 l 99 888 l 172 888 l 182 844 l 333 411 l 342 411 l 619 843 l 642 888 l 717 888 l 358 332 l 349 265 m 639 1124 l 561 1043 l 550 1039 q 440 1067 524 1042 q 333 1092 351 1092 q 285 1056 318 1092 q 260 1031 260 1031 l 251 1031 l 228 1056 l 228 1064 l 307 1143 l 317 1147 q 429 1119 347 1144 q 533 1096 513 1096 q 583 1132 547 1096 l 608 1156 l 617 1156 l 639 1131 l 639 1124 z "},"ỹ":{"ha":613,"x_min":92,"x_max":614,"o":"m 313 203 l 288 0 l 225 0 l 253 203 l 260 256 l 92 686 l 163 686 l 171 653 l 296 326 l 303 326 l 525 650 l 544 686 l 614 686 l 319 247 l 313 203 m 581 922 l 503 842 l 492 838 q 382 865 465 840 q 275 890 293 890 q 226 854 260 890 q 201 829 201 829 l 193 829 l 169 854 l 169 863 l 249 942 l 258 946 q 371 918 289 943 q 475 894 454 894 q 525 931 489 894 l 550 954 l 558 954 l 581 929 l 581 922 z "},"–":{"ha":674,"x_min":-18,"x_max":701,"o":"m 693 328 l -14 328 l -18 335 l -8 379 l 697 379 l 701 374 l 693 328 z "},"—":{"ha":1322,"x_min":-18,"x_max":1351,"o":"m 1342 328 l -14 328 l -18 335 l -8 379 l 1346 379 l 1351 374 l 1342 328 z "},"‘":{"ha":200,"x_min":89,"x_max":206,"o":"m 160 635 q 89 725 89 657 q 175 888 89 797 l 204 865 l 206 858 q 146 742 146 794 q 199 676 146 694 l 199 669 q 160 635 190 660 z "},"’":{"ha":200,"x_min":90,"x_max":207,"o":"m 136 886 q 207 796 207 864 q 121 633 207 724 l 92 656 l 90 663 q 150 779 150 726 q 97 844 150 826 l 97 851 q 136 886 106 861 z "},"‚":{"ha":319,"x_min":40,"x_max":175,"o":"m 121 88 q 175 8 175 57 q 65 -147 175 -67 l 40 -124 l 42 -117 q 117 -3 117 -58 q 75 54 117 31 l 75 63 q 121 88 99 81 z "},"“":{"ha":340,"x_min":79,"x_max":351,"o":"m 306 636 q 235 726 235 658 q 321 889 235 799 l 350 867 l 351 860 q 292 743 292 796 q 344 678 292 696 l 344 671 q 306 636 336 661 m 150 636 q 79 726 79 658 q 165 889 79 799 l 194 867 l 196 860 q 136 743 136 796 q 189 678 136 696 l 189 671 q 150 636 181 661 z "},"”":{"ha":354,"x_min":86,"x_max":356,"o":"m 285 886 q 356 796 356 864 q 269 633 356 724 l 240 656 l 239 663 q 299 779 299 726 q 246 844 299 826 l 246 851 q 285 886 254 861 m 132 886 q 203 796 203 864 q 117 633 203 724 l 88 656 l 86 663 q 146 779 146 726 q 93 844 146 826 l 93 851 q 132 886 101 861 z "},"„":{"ha":475,"x_min":40,"x_max":329,"o":"m 275 88 q 329 8 329 57 q 219 -147 329 -67 l 194 -124 l 196 -117 q 271 -3 271 -58 q 229 54 271 31 l 229 63 q 275 88 253 81 m 121 88 q 175 8 175 57 q 65 -147 175 -67 l 40 -124 l 42 -117 q 117 -3 117 -58 q 75 54 117 31 l 75 63 q 121 88 99 81 z "},"†":{"ha":654,"x_min":85,"x_max":624,"o":"m 375 503 l 363 397 l 299 -129 l 253 -131 l 247 -124 l 311 394 l 325 503 l 89 503 l 85 508 l 94 553 l 331 553 l 363 814 l 411 818 l 414 814 l 382 553 l 618 553 l 624 547 l 613 503 l 375 503 z "},"‡":{"ha":654,"x_min":38,"x_max":624,"o":"m 336 179 l 571 179 l 578 174 l 568 128 l 329 128 l 297 -129 l 253 -131 l 247 -124 l 278 128 l 44 128 l 38 135 l 49 179 l 285 179 l 311 394 l 325 506 l 90 506 l 85 513 l 94 557 l 331 557 l 363 814 l 411 818 l 414 814 l 382 557 l 618 557 l 624 551 l 614 506 l 376 506 l 363 397 l 336 179 z "},"•":{"ha":336,"x_min":126,"x_max":221,"o":"m 175 393 q 209 379 196 393 q 221 346 221 366 q 209 310 221 323 q 174 297 196 297 q 127 344 127 297 q 140 379 127 365 q 175 393 153 393 z "},"․":{"ha":319,"x_min":81,"x_max":169,"o":"m 126 86 q 158 74 146 86 q 169 42 169 61 q 158 8 169 21 q 125 -4 146 -4 q 81 40 81 -4 q 93 73 81 60 q 126 86 106 86 z "},"‥":{"ha":546,"x_min":75,"x_max":389,"o":"m 346 86 q 377 74 365 86 q 389 42 389 61 q 377 8 389 21 q 344 -4 365 -4 q 300 40 300 -4 q 313 73 300 60 q 346 86 325 86 m 121 86 q 152 74 140 86 q 164 42 164 61 q 152 8 164 21 q 119 -4 140 -4 q 75 40 75 -4 q 88 73 75 60 q 121 86 100 86 z "},"…":{"ha":771,"x_min":42,"x_max":581,"o":"m 313 86 q 344 74 332 86 q 356 42 356 61 q 344 8 356 21 q 311 -4 332 -4 q 267 40 267 -4 q 279 73 267 60 q 313 86 292 86 m 538 86 q 569 74 557 86 q 581 42 581 61 q 569 8 581 21 q 536 -4 557 -4 q 492 40 492 -4 q 504 73 492 60 q 538 86 517 86 m 88 86 q 119 74 107 86 q 131 42 131 61 q 119 8 131 21 q 86 -4 107 -4 q 42 40 42 -4 q 54 73 42 60 q 88 86 67 86 z "},"‰":{"ha":1649,"x_min":101,"x_max":1578,"o":"m 960 903 l 168 -125 l 142 -110 l 136 -94 l 928 935 l 956 918 l 960 903 m 338 890 q 460 841 418 890 q 503 701 503 792 q 442 486 503 564 q 268 408 381 408 q 144 458 188 408 q 101 599 101 507 q 164 813 101 735 q 338 890 226 890 m 326 842 q 197 781 243 842 q 151 610 151 719 q 278 457 151 457 q 408 518 363 457 q 454 689 454 579 q 422 802 454 763 q 326 842 389 842 m 893 476 q 1017 428 974 476 q 1060 288 1060 379 q 999 72 1060 150 q 825 -6 938 -6 q 701 44 744 -6 q 658 185 658 93 q 720 399 658 321 q 893 476 782 476 m 1413 476 q 1535 427 1493 476 q 1578 288 1578 378 q 1517 72 1578 150 q 1343 -6 1456 -6 q 1219 44 1263 -6 q 1176 185 1176 93 q 1239 399 1176 321 q 1413 476 1301 476 m 882 428 q 753 367 799 428 q 708 196 708 306 q 740 83 708 122 q 833 43 772 43 q 964 104 918 43 q 1010 275 1010 165 q 882 428 1010 428 m 1401 428 q 1272 367 1318 428 q 1226 196 1226 306 q 1353 43 1226 43 q 1483 104 1438 43 q 1529 275 1529 165 q 1497 388 1529 349 q 1401 428 1464 428 z "},"′":{"ha":200,"x_min":111,"x_max":208,"o":"m 156 651 l 115 646 l 111 654 l 150 879 l 203 885 l 208 876 l 156 651 z "},"″":{"ha":331,"x_min":111,"x_max":338,"o":"m 285 651 l 244 646 l 240 654 l 279 879 l 332 885 l 338 876 l 285 651 m 156 651 l 115 646 l 111 654 l 150 879 l 203 885 l 208 876 l 156 651 z "},"‹":{"ha":307,"x_min":46,"x_max":318,"o":"m 49 325 l 286 557 l 318 536 l 317 525 l 103 311 l 265 99 l 263 88 l 226 67 l 46 306 l 49 325 z "},"›":{"ha":307,"x_min":6,"x_max":278,"o":"m 275 299 l 38 67 l 6 88 l 7 99 l 221 313 l 58 525 l 61 536 l 97 557 l 278 318 l 275 299 z "},"⁄":{"ha":83,"x_min":-385,"x_max":439,"o":"m 439 903 l -354 -125 l -381 -110 l -385 -94 l 407 935 l 435 918 l 439 903 z "},"⁰":{"ha":522,"x_min":110,"x_max":511,"o":"m 346 976 q 469 923 426 976 q 511 769 511 869 q 450 535 511 619 q 276 450 389 450 q 153 504 196 450 q 110 658 110 558 q 172 892 110 807 q 346 976 233 976 m 335 922 q 206 856 251 922 q 160 669 160 789 q 286 503 160 503 q 417 570 371 503 q 463 757 463 638 q 430 880 463 838 q 335 922 397 922 z "},"⁴":{"ha":475,"x_min":76,"x_max":467,"o":"m 457 606 l 376 608 l 367 608 l 351 458 l 347 454 l 300 451 l 297 454 l 317 608 l 136 608 l 81 606 l 76 613 l 81 651 l 358 972 l 413 972 l 372 654 l 461 654 l 467 649 l 457 606 m 322 654 l 354 900 l 349 900 l 138 654 l 322 654 z "},"⁵":{"ha":410,"x_min":67,"x_max":435,"o":"m 424 925 l 418 921 l 364 925 l 208 925 l 186 778 l 244 764 q 390 636 390 731 q 322 501 390 553 q 147 449 254 449 q 67 457 119 449 l 67 500 l 72 504 q 154 496 117 496 q 283 532 233 496 q 332 626 332 568 q 303 683 332 661 q 214 719 275 706 l 139 735 l 135 742 l 165 964 l 178 974 l 225 972 l 357 972 l 432 975 l 435 971 l 424 925 z "},"⁶":{"ha":457,"x_min":94,"x_max":444,"o":"m 443 946 q 169 722 225 872 l 174 717 q 304 760 238 760 q 405 726 369 760 q 440 633 440 692 l 439 614 q 381 493 431 538 q 246 449 332 449 q 133 489 172 449 q 94 606 94 529 q 177 828 94 731 q 407 979 260 926 l 413 979 l 444 953 l 443 946 m 286 717 q 154 671 219 717 l 150 640 q 149 608 149 629 q 250 489 149 489 q 349 525 314 489 q 385 628 385 561 q 286 717 385 717 z "},"⁷":{"ha":408,"x_min":111,"x_max":447,"o":"m 410 972 l 447 974 l 443 929 l 213 543 l 160 446 l 113 458 l 111 468 l 382 924 l 181 924 l 115 919 l 111 928 l 122 974 l 199 972 l 410 972 z "},"⁸":{"ha":460,"x_min":89,"x_max":444,"o":"m 315 976 q 410 948 375 976 q 444 868 444 919 q 413 783 444 815 q 324 728 381 750 l 322 725 q 401 677 374 703 q 429 607 429 651 q 376 492 429 535 q 238 449 324 449 q 128 481 168 449 q 89 569 89 514 q 228 717 89 668 l 228 721 q 143 831 143 760 q 191 937 143 897 q 315 976 239 976 m 308 935 q 226 908 258 935 q 194 835 194 881 q 217 781 194 801 q 282 743 240 761 q 365 788 335 763 q 394 860 394 814 q 372 915 394 894 q 308 935 349 935 m 267 700 q 174 652 208 679 q 140 575 140 625 q 168 515 140 538 q 244 492 196 492 q 342 522 306 492 q 379 599 379 551 q 364 644 379 626 q 328 672 349 663 q 267 700 308 682 z "},"⁹":{"ha":458,"x_min":114,"x_max":465,"o":"m 314 979 q 426 939 386 979 q 465 824 465 899 q 382 600 465 699 q 150 449 299 501 l 146 449 l 114 475 l 115 482 q 388 706 332 557 l 383 710 q 254 668 321 668 q 155 701 190 668 q 119 793 119 735 q 171 928 119 878 q 314 979 222 979 m 271 711 q 403 757 338 711 l 407 788 q 410 822 410 813 q 308 939 410 939 q 209 903 244 939 q 174 800 174 867 q 199 734 174 757 q 271 711 225 711 z "},"₣":{"ha":536,"x_min":19,"x_max":560,"o":"m 199 367 l 336 367 l 457 368 l 460 360 l 450 318 l 193 318 l 179 213 l 176 190 l 340 190 l 344 186 l 338 150 l 172 150 l 156 0 l 97 0 l 117 150 l 24 150 l 19 156 l 26 190 l 121 190 l 124 208 l 182 686 l 556 686 l 560 679 l 549 636 l 233 638 l 199 367 z "},"€":{"ha":694,"x_min":19,"x_max":672,"o":"m 488 690 q 672 635 596 690 l 654 588 l 644 586 q 481 640 578 640 q 218 436 279 640 l 499 436 l 503 431 l 494 390 l 206 390 q 193 271 193 332 l 479 271 l 482 265 l 474 226 l 196 226 q 256 91 206 138 q 394 44 306 44 q 593 107 500 44 l 603 103 l 592 56 q 386 -7 490 -7 q 205 53 269 -7 q 133 226 140 114 l 24 226 l 19 232 l 29 271 l 133 271 q 146 390 136 332 l 43 390 l 40 396 l 49 436 l 157 436 q 278 625 194 560 q 488 690 363 690 z "},"ℓ":{"ha":497,"x_min":94,"x_max":436,"o":"m 424 0 l 94 0 l 124 208 l 182 686 l 244 686 l 183 214 l 164 56 l 432 56 l 436 49 l 424 0 z "},"™":{"ha":803,"x_min":107,"x_max":757,"o":"m 357 882 l 350 850 l 289 853 l 251 853 l 226 664 l 217 563 l 174 563 l 188 660 l 211 853 l 172 853 l 110 850 l 107 854 l 114 886 l 354 886 l 357 882 m 751 563 l 714 563 l 715 661 l 717 818 l 713 818 l 588 600 l 551 600 l 485 818 l 482 818 l 444 665 l 422 563 l 385 563 l 461 886 l 513 886 l 525 838 l 578 657 l 581 657 l 685 839 l 707 886 l 757 886 l 751 563 z "},"Ω":{"ha":974,"x_min":24,"x_max":883,"o":"m 560 896 q 796 804 714 896 q 878 558 878 713 q 812 279 878 411 q 625 60 746 147 l 625 56 l 775 56 l 878 61 l 883 54 l 867 -3 l 747 0 l 582 0 l 529 -1 l 525 1 l 532 56 q 735 271 663 139 q 808 553 808 403 q 744 762 808 686 q 556 838 681 838 q 372 786 449 838 q 254 642 294 735 q 214 429 214 550 q 257 216 214 315 q 379 56 300 117 l 374 1 l 368 -1 l 317 0 l 136 0 l 29 -3 l 24 4 l 40 60 l 149 56 l 288 56 l 289 60 q 183 218 219 122 q 146 425 146 314 q 194 669 146 563 q 337 836 243 776 q 560 896 431 896 z "},"℮":{"ha":1101,"x_min":72,"x_max":1092,"o":"m 582 901 q 838 840 721 901 q 1023 673 954 778 q 1092 443 1092 568 l 1092 435 l 264 435 q 256 426 256 435 l 256 175 q 268 144 256 160 q 410 49 328 83 q 583 14 493 14 q 773 53 683 14 q 926 160 863 92 l 982 160 q 807 33 913 79 q 582 -14 701 -14 q 327 47 444 -14 q 141 214 210 108 q 72 443 72 319 q 141 673 72 568 q 327 840 210 778 q 582 901 444 901 m 583 874 q 410 840 492 874 q 269 744 329 806 q 256 711 256 731 l 256 471 q 264 461 256 461 l 900 461 q 910 471 910 461 l 910 717 q 896 749 910 735 q 755 841 836 808 q 583 874 674 874 z "},"←":{"ha":706,"x_min":29,"x_max":669,"o":"m 35 1026 l 35 1017 l -232 746 l -271 760 l -271 772 l -51 997 l -600 994 l -606 1000 l -601 1047 l -51 1044 l -271 1271 l -271 1283 l -232 1297 l 35 1026 z "},"↑":{"ha":706,"x_min":74,"x_max":625,"o":"m 344 640 l 354 640 l 625 374 l 611 335 l 599 335 l 374 554 l 376 6 l 371 0 l 324 4 l 326 554 l 100 335 l 88 335 l 74 374 l 344 640 z "},"→":{"ha":706,"x_min":31,"x_max":671,"o":"m 665 -387 l 665 -378 l 932 -107 l 971 -121 l 971 -133 l 751 -358 l 1300 -356 l 1306 -361 l 1301 -408 l 751 -406 l 971 -632 l 971 -644 l 932 -658 l 665 -387 z "},"↓":{"ha":706,"x_min":76,"x_max":628,"o":"m 357 -3 l 347 -3 l 76 264 l 90 303 l 103 303 l 328 83 l 325 632 l 331 638 l 378 633 l 375 83 l 601 303 l 614 303 l 628 264 l 357 -3 z "},"↖":{"ha":706,"x_min":140,"x_max":617,"o":"m 148 1046 l 155 1039 l 158 659 l 121 641 l 112 650 l 108 964 l -278 575 l -286 575 l -316 611 l 75 998 l -241 1003 l -249 1012 l -232 1049 l 148 1046 z "},"↗":{"ha":706,"x_min":86,"x_max":561,"o":"m 547 47 l 554 54 l 934 57 l 952 19 l 943 11 l 629 7 l 1018 -379 l 1018 -387 l 982 -418 l 595 -27 l 590 -342 l 581 -351 l 544 -333 l 547 47 z "}}}
